<?xml version="1.0" encoding="UTF-8"?>
<svg id="balkan_2" data-name="balkan 2" xmlns="http://www.w3.org/2000/svg" viewBox="0 0 549.07 418.58">
  <defs>
    <style>
      .cls-1 {
        fill: none;
      }

      .cls-1, .cls-2, .cls-3 {
        stroke: #efedeb;
        stroke-miterlimit: 10;
      }

      .cls-2 {
        fill: #ffbb87;
      }

      .cls-3 {
        fill: #ffc9c9;
      }
    </style>
  </defs>
  <path class="cls-3" d="m193.14,256.23c3.58,1.29,7.16,2.58,10.74,3.88-1.47,4.46,2.44,8.39,5.72,11.76s6.63,8.18,4.48,12.36c-.85,1.65-2.53,3.37-1.68,5.02.89,1.75,3.77,1.08,4.82-.58s1.03-3.76,1.6-5.64c2-6.58,10.15-8.62,16.96-9.6,6.81-.97,14.96-3.06,16.9-9.66"/>
  <path class="cls-3" d="m235.25,339.72c-5,0-9.79-.23-13.91-4.33-2.01-2-3.24-4.62-4.43-7.19-.75-1.62-1.5-3.23-2.25-4.85-2.74-5.92-5.52-11.95-6.44-18.42s-.27-12.78,4.12-17.61"/>
  <path class="cls-2" d="m175.99,70.48c6.53-1.21,14.18-1.51,18.82,3.23,2.47,2.52,3.8,6.24,6.9,7.92,4.6,2.49,12.42.39,13.85,5.42.9,3.16-2.13,6.04-2.74,9.27-1,5.34,4.73,9.54,10.01,10.8s11.22,1.27,15.39,4.76c3.91,3.28,5.14,8.94,4.36,13.98s-3.23,9.65-5.65,14.15c5.25-.12,10.5-.24,15.75-.36.34,2.42.68,4.85,1.01,7.27.65-3.4,5.74-3.23,8.68-1.39s6.09,4.59,9.38,3.49c2.34-.79,3.59-3.24,5.26-5.05,5.35-5.8,16.64-3.6,19.43,3.78-3.46-.01-7.19.06-9.97,2.13s-3.62,6.93-.72,8.81c1.26.81,2.89.88,4.14,1.71,2.51,1.67-.81,4.62-.81,4.62,0,0,12.14,3.41,15.85,3.37-4.08-.29-7.33,4.36-6.52,8.37.8,4.01,4.61,6.91,8.61,7.76s8.17.03,12.1-1.08c23.26,1.24,46.52,2.47,69.78,3.71,6.83.36,14.11.62,20.03-2.82,9.12-5.3,12.23-17.78,21.48-22.87,5.72-3.14,12.61-2.81,19.13-3.19s13.73-2.04,17.29-7.51c-.04,5.97,7.91,8.09,13.87,7.77,5.96-.32,13.61-.27,15.83,5.27,8.08,7.64,26.03,7.23,26.33,7.99,0,0,3.8,10.26,1.99,12.73-1.59,2.18-4.65,1.9-7.34,2.04s-5.47-.13-8.03.71c-4.8,1.58-7.58,6.64-8.85,11.54-1.89,7.29-1.46,15.17,1.22,22.22-4.29,3.34-8.45,6.83-12.47,10.48-1.12,1.02-2.34,2.48-1.74,3.87.32.75,1.09,1.19,1.8,1.6,7.26,4.16,13.53,10.06,17.62,17.77,3.51,2.08,4.99,1.52,6.18,5.42l-3.49,1c-10.88,4-19.86-.92-31.45-.88-5.24.02-10.48,1.08-15.32,3.11-7.24,3.04-14.24,10.15-12.26,17.75-3.39-1.73-7.48-2.03-11.08-.83-3.02,5.04,4.69,10.12,5.34,15.96.73,6.46-7.23,10.33-13.73,10.54-6.5.2-13.82-.95-18.8,3.22,1.94-.77,3.88-1.54,5.82-2.31-11.61-4.26-24.24-5.71-36.51-4.18-.09-2.74-.17-5.49-.26-8.23-24.45-7.02-50.43,19.39-75.48,14.99-1.36,3.87-3.21,8.24-7.13,9.46-2.85.89-5.89-.22-8.82-.8-8.37-1.64-17.51,1.46-23.15,7.86-2.32,2.63-4.26,5.91-7.53,7.19s-8.07-1.39-6.94-4.72c-4.57,3.6-17.21,10.4-17.21,10.4.41,4.71.75,9.75-1.6,13.86s-8.5,6.32-11.91,3.05c.55,3.93,1.1,7.95.36,11.86-.74,3.9-3.03,7.74-6.69,9.28-2.43,1.02-5.21.96-7.61,2.02s-4.34,4.16-2.78,6.28c.83,1.12,2.32,1.52,3.34,2.48,2.24,2.11,1.31,5.98-.71,8.31s-8.34,6.29-8.34,6.29c-.57-3-5.12-9.48-8.14-9.89,2.09-7.96-5.45-13.42-12.61-17.47-7.17-4.05-15.67-8.24-17.55-16.25,2.53,1.34,5.06,2.68,7.59,4.02,2.07-2.38,1.12-6.16-.71-8.73s-4.4-4.62-5.77-7.46-.83-7.04,2.14-8.1c2.78,2.25,6.81-1.79,6.53-5.35s-2.69-6.62-3.44-10.12c-.89-4.16.65-8.42,2.26-12.37,1.6-3.94,3.33-8.08,2.82-12.31-.51-4.23-6.21-9.89-12.03-8.43-9.43-12.92-19.91-25.29-33.02-34.45,0,0-21.64-18.49-46.04-44.49-13.19-14.05-26.39-28.12-38.28-43.28-5.56-7.09-5.34-16.4-10.29-23.93-1.85-2.82-9.2-3.84-9.41-7.21s1.85-7.13,5.2-7.6c-4.25.15-5.96-6.58-2.76-9.39,3.2-2.81,8.47-1.73,11.58,1.18s4.57,7.12,5.93,11.15c3.34-4.72,6.68-9.45,10.02-14.17,5.11.97,10.21,1.95,15.32,2.92,9.67,1.84,19.34,3.69,29.01,5.53,3.11.59,6.3,1.19,9.42.68,2.82-.46,5.41-1.8,8.14-2.65,9.32-2.92,20.28.43,26.37,8.07,1.98,2.49,3.61,5.47,6.43,6.93,2.83,1.46,7.32.09,7.33-3.09-4.79-2.78-2.88-11.74,2.64-12.31,3.38-.35,7.86,1.43,9.52-1.53,1.46-2.61-1.71-5.63-4.69-5.92s-6.04.92-8.93.16c-13.38-3.52-3.39-30.8-13.43-33.94,0,0,22.47-10.45,35.52-12.88h0Z"/>
  <path class="cls-1" d="m130.63,257.22c-1.41-9.6,3.2-21.25,6.21-30.48,1.12-3.43-.32-7.93,2.62-10.01,2.94-2.08,7.61-2.07,9.67.89,1.82,1.09,3.85-1.62,3.36-3.68s-2.21-3.59-3.09-5.52-.24-4.94,1.87-5.04c1.18-.06,2.15.85,3.12,1.54,5.12,3.65,13.48.68,15.16-5.37s-3.96-12.9-10.22-12.42c2.61-4.09,9-5.06,12.71-1.93,2.48-3.74-1.74-8.49-5.96-10.03s-9.34-2.2-11.72-6c-2.57-4.1-.41-9.5,2.38-13.45s6.34-7.84,6.62-12.66-5.4-9.87-9.22-6.91"/>
  <path class="cls-1" d="m289.1,165.03c-6.78,4.13-2.92,7.67-4.91,9.94-6.11,6.97-4.56,18.24.98,25.67s14.05,11.94,22.27,16.2c-9.77,4.86-16.6,15.16-17.27,26.06,0,0-2.85,4.88-2.52,4.96,2.83,3.88.58,9.75-3.39,12.45-3.97,2.7-9.02,3.07-13.82,3.37-6.77.42-11.27.43-18.04.85,3.79-10.31,6.66-13.4,2.04-20.14s-12.48-10.3-19.1-15.08c-6.87-4.96-12.61-11.47-16.68-18.91-1.32,9.59-4.96,18.86-10.52,26.78-18.58-5.97-35.59-16.72-48.96-30.93"/>
  <path class="cls-1" d="m208.13,237.37c-5.19,2.88-8.12,6.28-13.31,9.16-1.81,1-3.91,2.82-3.07,4.7.52,1.14,1.91,1.59,2.74,2.53s.21,1.4-.93,2.53c-3.21,2.7-7.73,4.18-11.71,2.85s-6.84-6.01-5.34-9.93c-8.93,10.5-13.18,27.48-12.46,42.09"/>
  <path class="cls-1" d="m284.84,260.61c2.24,7.86,14.02,9.35,19.88,15.04,4.4,4.26,6.03,10.76,5.71,16.88-.32,6.12-2.37,12-4.4,17.78"/>
</svg>