<?xml version="1.0" encoding="UTF-8"?><svg id="east" xmlns="http://www.w3.org/2000/svg" width="549.066" height="535.339" viewBox="0 0 549.066 535.339"><defs><style>.cls-1,.cls-2{fill:#79a672;}.cls-1,.cls-2,.cls-3,.cls-4{stroke-miterlimit:10;}.cls-1,.cls-3{stroke:#efedeb;}.cls-2,.cls-4{stroke:#efeeea;}.cls-3,.cls-4{fill:none;}</style></defs><path class="cls-1" d="M117.447,336.588s1.368-2.437,2.451-3.306c1.077-.864,2.636-1.277,3.862-.641,.685,.355,1.187,.987,1.848,1.385,1.741,1.049,3.964,.225,5.816-.611,2.409-1.088,5.046-2.411,5.965-4.89,.456-1.231,.413-2.59,.752-3.858,.65-2.436,2.671-4.319,4.943-5.412s4.8-1.509,7.288-1.914"/><path class="cls-1" d="M117.447,336.588s-12.396-.197-25.633-6.119c-3.686-1.649-8.9-3.729-11.379-.541-2.22,2.855-.924,8.282-4.337,9.479-1.452,.509-3.038-.164-4.37-.933s-2.7-1.679-4.239-1.67-3.156,.738-2.625,2.182c-1.056-2.094-3.233-4.388-3.233-4.388,.42-2.755-1.907-4.183-3.976-5.005s-4.48-1.794-5.076-3.94c-.611-2.2,.712-5.361-1.342-6.358-1.225-.594-2.661,.284-4.019,.181-1.8-.137-2.976-1.889-3.873-3.456-1.653-2.888-3.326-5.69-3.579-9.007-.201-2.635,.541-5.652-1.09-7.731-.781-.995-2.075-1.746-3.128-2.448s-1.957-2.046-2.125-3.299,1.012-2.672,2.216-2.283c1.151,.372,1.077,1.796,1.487,2.934,.553,1.538,2.058,2.692,2.795,1.732-1.484-1.261-.53-3.891,1.184-4.816s4.914-.762,6.838-1.065c10.707-1.683,16.42-9.919,26.049-8.461-1.64-.589-2.517-2.515-2.434-4.256s1.844-2.896,3.484-2.306c2.839,1.021,1.665,5.715,3.815,7.831,2.047,2.015,5.962,.072,6.787-3.015,.741-2.775-.214-10.829-1.645-7.772-1.563,3.339-3.597-8.957-5.445-13.356-.443-1.056-.775-2.58-.539-3.7,.296-1.407,1.591-2.387,2.134-3.719,.885-2.171-.86-4.957-3.199-5.109-.835-2.518,1.234-5.02,1.739-7.56,.396-1.993-.368-3.743-1.861-5.121s-3.719-1.91-5.674-1.356c1.257-2.258,2.635-4.902,3.892-7.16,.933-1.676,1.103-2.51,2.727-3.531,.613-.386,2.048-1.223,2.375-1.869,.813-1.605-.847-2.731,.152-4.226,0,0,1.978-.079,2.801,.213-.299-3.066-1.314-6.06-2.942-8.675,1.008,.809,2.087-1.114,1.667-2.336s-1.297-2.639-.493-3.651c.91-1.147,2.968-.021,3.111,1.437s-.848,2.755-1.784,3.881c1.011,.808,2.575,.097,3.331-.953s1.069-2.37,1.837-3.412c2.044-2.77,6.146-2.481,9.574-2.79,6.29-.566,12.221-4.269,15.224-8.919,5.217-1.934,10.434-3.868,15.65-5.802,3.022-1.12,6.208-2.259,9.393-1.769,3.594,.554,6.744,3.349,7.72,6.853-.308,1.074-.617,2.148-.925,3.223,.877,1.515,2.893,1.913,4.642,1.821s3.542-.51,5.22-.009,3.101,2.451,2.254,3.984c6.059-3.133,11.331-7.773,15.21-13.384-1.493,.993-3.635,.877-5.011-.272s-1.873-3.236-1.162-4.882c7.762-.454,14.981-5.998,17.423-13.38-.589,5.267-3.198,10.283-7.174,13.788,1.757,.603,3.565,1.214,5.421,1.128s3.793-1.035,4.503-2.751-.374-4.089-2.226-4.23c1.184-1.098,2.368-2.197,3.552-3.295-4.36-11.204-8.797-22.903-7.762-34.881,.327-3.779,1.196-7.489,2.114-11.17,.813-3.261,1.681-6.551,3.297-9.498,3.053-5.568,8.817-9.565,15.103-10.472,2.798,3.934,5.596,7.868,8.393,11.802,1.532,2.155,3.133,4.373,5.411,5.715,3.506,3.226,9.644,1.062,12.13-3.002,2.486-4.064,2.375-9.142,2.186-13.903-.22-5.538-.439-11.075-.659-16.613-.082-2.065-1.337-4.939-3.225-4.098-1.384,.616-1.214,2.638-1.999,3.934-.864,1.426-2.881,1.774-4.457,1.232-1.577-.542-2.815-1.756-3.996-2.933-1.328-2.792-2.656-5.583-3.983-8.375,1.776-2.017,1.179-5.617-1.152-6.954,1.16-.283,2.319-.567,3.479-.85-1.105-.486-2.211-.972-3.316-1.458-.279-2.148,.908-4.409,2.833-5.4,1.014-.522,2.173-.706,3.201-1.202,2.278-1.098,3.569-3.516,5.427-5.231s5.258-2.484,6.64-.366c.154-1.64,.309-3.28,1.194-4.499,2.949,2.181,7.502,1.785,10.264-.35,.504-.621,1.008-1.241,1.511-1.862,4.946,.795,10.11,.184,14.735-1.742,.09,1.175,.181,2.35,.271,3.526,4.604-.281,9.208-.562,13.813-.843,2.239-.137,3.831-.009,4.159-2.229,0,0,4.176-.578,5.385,2.653,.248,.663,.306,1.451-.079,2.045-.433,.668-1.291,.908-2.082,.996-1.472,.163-3.258,.126-4.041,1.384-.339,.545-.388,1.216-.429,1.857-.165,2.635-.568,4.362-.732,6.997-3.319,.686-6.638,1.373-9.957,2.059,3.617,6.544,7.233,13.088,10.85,19.631,1.623,2.936,5.109,5.578,5.109,5.578-2.957,2.321-6.04,4.091-5.371,7.79,7.715,1.15,11.076,10.431,7.6,17.414,11.358,1.693,10.723,19.251,10.723,19.251,.967-.946,2.338-1.713,3.638-2.089s2.949,.085,3.444,1.344c.561,1.426-.494,3.301,.502,4.466,.981,1.146,3.062,.221,3.498-1.223s-.191-2.973-.806-4.351c3.237,.288,6.473,.577,9.71,.865-2.215,.85-2.363,4.586-.222,5.609,2.293,1.096,4.784-.874,6.713-2.53s5.025-3.076,6.765-1.222c-.261,.882-.522,1.765-.782,2.647,4.598-.983,9.612,.196,13.29,3.125-.972,1.408-.428,3.615,1.087,4.41-1.646,2.769-.34,6.846,2.61,8.142-1.839,1.023-3.616,2.3-4.696,4.106s-1.321,4.234-.139,5.974,3.966,2.319,5.486,1.315l2.72,1.034c.82,4.073,1.64,8.145,2.46,12.218,4.096,.786,8.191,1.572,12.287,2.357l-.875,4.589c3.861-.7,7.949-.08,11.428,1.734-.391,1.277-.783,2.555-1.174,3.832,3.259-.15,6.536,1.63,8.182,4.447-2.009-.571-3.768,1.502-4.55,3.439s-1.419,4.245-3.317,5.116c-1.638,.752-3.557,.09-5.184-.686s-3.345-1.692-5.127-1.42-3.31,2.464-2.221,3.9c1.124,.539,2.249,1.079,3.373,1.618-2.639,4.866,1.624,11.855,7.159,11.736-.848,3.177-.612,6.633,.66,9.665,2.208,2.099,6.032,1.398,8.262-.677s3.266-5.097,4.22-7.99c1.478,.094,2.806,1.32,3.017,2.786,2.685-3.413,7.573-4.907,11.707-3.578,1.991-3.46,8.13-3.005,11.669,1.397-1.289,1.059-.55,3.288,.827,4.23s3.126,1.131,4.641,1.828,2.895,2.361,2.284,3.913c-.4,1.015-1.477,1.551-2.408,2.12s-1.886,1.459-1.759,2.542,2.082,1.454,2.19,.369c1.018,3.027,2.036,6.055,3.054,9.082,4.113-2.364,9.197-2.974,13.752-1.651-.929-.467-1.494-1.569-1.33-2.596,2.018-.784,4.378,.232,5.804,1.861s2.124,3.752,2.787,5.813c.981,3.047,1.962,6.093,2.942,9.14,1.372,.837,2.744,1.675,4.117,2.512-1.448-2.029,1.95-4.417,4.318-3.64s4.085,2.955,6.467,3.688c3.257,1.002,6.659-.963,9.269-3.155s5.16-4.806,8.51-5.433c.861,1.777,1.722,3.554,2.584,5.331,4.175,2.361,9.269,3.043,13.918,1.865,3.045,.099,6.09,.197,9.136,.296,3.789,.822,7.578,1.645,11.368,2.467,1.701-.053,3.402-.106,5.103-.159,2.024,2.994,7.685,1.694,8.199-1.884,.968,4.106,3.046,7.944,5.955,10.998-3.591,1.572-6.649,4.336-8.573,7.752,1.896-1.462,4.966-1.844,6.488,.005s-.816,5.426-2.833,4.136c-1.398,3.046,2.525,6.852,5.527,5.363,.225,2.176-.281,4.422-1.417,6.291,1.801,.567,3.601,1.134,5.402,1.701-2.27,3.005-3.088,7.057-2.161,10.707-2.756-.516-5.575-1.034-8.347-.607s-5.533,1.986-6.634,4.565c-.803,1.881-.693,4.168-1.98,5.757s-4.837,.788-4.147-1.137c-1.509,1.625-3.106,3.458-3.174,5.675s2.423,4.471,4.311,3.308c-.258,1.594-.961,5.215-.961,5.215-1.303,.736-1.005,.801-1.608,2.102,.341,.763-.447,1.645-1.28,1.724s-1.615-.367-2.327-.806-1.478-.903-2.313-.863c-.792,.038-1.486,.524-2.109,1.014-1.655,1.3-3.182,2.764-4.551,4.363-.749,.875-1.483,1.818-2.51,2.341-1.351,.689-3.011,.548-4.356,1.246-2.044,1.061-2.708,3.685-2.644,5.987-2.582-.63-5.371,.388-7.356,2.155s-3.267,4.195-4.207,6.681c-.217,.573-.533,1.247-1.142,1.31-.736,.076-1.197-.905-.945-1.6s.913-1.142,1.506-1.584,1.2-1.008,1.253-1.746c.056-.78-.588-1.497-1.345-1.69s-1.574,.053-2.224,.487c-1.46,.974-2.229,2.809-3.791,3.609-1.084,.555-2.468,.564-3.324,1.43-.574,.581-.775,1.423-1.153,2.147s-1.132,1.407-1.922,1.198c-1.028-.271-1.14-1.665-1.063-2.726s-.143-2.472-1.195-2.626c-.782-.114-1.464,.704-1.456,1.495s.509,1.493,1.084,2.035,1.245,.987,1.755,1.591c1.182,1.401,1.301,3.464,.765,5.216-.536,1.753-1.634,3.27-2.713,4.752-.308,.423-.63,.859-1.086,1.117s-1.085,.286-1.463-.077c-.412-.396-.363-1.096-.071-1.587s.768-.839,1.191-1.225c1.293-1.177,2.156-2.817,2.395-4.549,.096-.696-.007-1.571-.655-1.842-.748-.312-1.503,.459-1.822,1.205s-.554,1.643-1.294,1.798c-1.721,1.475-3.442,2.949-5.164,4.424,1.876,.291,3.451,1.956,3.638,3.845-2.849,.035-5.688,.727-8.234,2.005,1.747-.99,1.024-3.955-.776-4.846s-3.945-.387-5.885,.134c-2.983,.801-5.966,1.602-8.949,2.403,3.443-.177,5.765,3.768,9.145,4.446,1.239,.249,2.516,.033,3.779-.007,4.558-.143,8.838,2.001,12.891,4.091,1.213,.625,2.569,1.442,2.772,2.791,.168,1.115-.54,2.2-.485,3.327,.092,1.876,2.204,3.001,4.077,3.144,3.724,.285,7.197-1.714,10.396-3.643,2.023-1.22,4.046-2.44,6.068-3.66,1.385-.836,2.8-1.683,4.374-2.055,2.101-.496,4.402-.071,6.187,1.142-.816,.626-1.652,1.274-2.179,2.157s-.678,2.071-.097,2.919c.29,.423,.748,.757,.86,1.257,.169,.762-.538,1.411-1.168,1.872-2.955,2.161-6.724,4.421-10.031,2.852-1.614-.766-3.147-2.42-4.841-1.85-1.981,.666-1.826,3.458-2.543,5.421-.801,2.193-2.994,3.57-5.194,4.354s-4.553,1.15-6.649,2.178c-2.512,1.233-4.478,3.326-6.384,5.375-2.996,3.22-5.992,6.44-8.989,9.66-.841-2.867-4.034-4.825-6.97-4.274-.762-2.101-.374-4.417-.111-6.637s.344-4.641-.902-6.496-4.315-2.566-5.693-.806c-1.452-1.264-2.928-2.543-4.663-3.378s-3.792-1.184-5.597-.515c-.951,.353-1.793,.969-2.76,1.275s-2.192,.2-2.767-.635c-.951-1.381,.583-3.097,1.954-4.063,4.714-3.323,9.427-6.646,14.141-9.969,.937-.661,1.897-1.344,2.528-2.303s.864-2.267,.272-3.25c-.531-.881-1.574-1.3-2.563-1.586-4.34-1.256-9.089-1.052-13.306,.57-3.552,1.367-7.365,3.736-10.635,2.244-1.125-.791-2.265-1.59-3.553-2.07s-2.763-.611-4.022-.06c-1.273,.558-2.236,1.762-3.591,2.072-1.479,.338-3.134-.67-3.512-2.139,2.676,.46,5.528-.211,7.718-1.816,1.581-1.159,2.866-2.798,4.706-3.473,.619-.227,1.288-.338,1.853-.677s1.013-1.013,.814-1.642c-.18-.567-.821-.875-1.416-.892s-1.17,.188-1.75,.325c-1.931,.457-4.033,.141-5.745-.862-.608,.115-.712,1.025-.324,1.507s1.026,.663,1.594,.906,1.161,.663,1.212,1.28c.051,.612-.491,1.145-1.084,1.303s-1.221,.034-1.822-.09c-2.319-.479-4.883-1.118-6.172-3.105-.528-.814-.788-1.791-1.398-2.546s-1.809-1.202-2.541-.565c-.753,.656-.473,1.904-.924,2.796-.565,1.118-2.048,1.339-3.301,1.338s-2.686-.014-3.52,.92c-.331,.371-.565,.887-1.04,1.033-.412,.127-.845-.08-1.226-.281-1.827-.962-3.654-1.924-5.481-2.886-.342,1.233,.556,2.473,1.571,3.252s2.227,1.36,2.962,2.408c1.044,1.488,.846,3.483,.604,5.284-.115,.856-.303,1.828-1.044,2.272-.585,.35-1.351,.241-1.957-.072s-1.099-.801-1.627-1.233c-.943-.773-2.02-1.383-3.169-1.793-.622-.222-1.395-.358-1.878,.093-.594,.554-.275,1.608,.36,2.115s1.469,.674,2.203,1.021c1.552,.734,2.642,2.361,2.73,4.075,.126,2.472-1.62,4.599-3.267,6.447-1.262,1.416-2.55,2.85-4.159,3.854s-3.613,1.538-5.247,1.139l-1.154,.116c-.749,.848-.021,2.149,.699,3.021,1.244,1.507,2.488,3.013,3.732,4.52,.411,.497,.839,1.192,.488,1.733-.446,.69-1.512,.277-2.184-.196,.656,2.113,1.317,4.255,1.417,6.465s-.56,4.408-1.704,5.762c-2.277,2.696-7.101,2.553-9.213-.275,.767-1.073,.216-2.818-1.028-3.257s-2.767,.576-2.842,1.893c-.045,.793,.348,1.538,.515,2.314,.217,1.004,.054,2.047-.109,3.061-.29,1.802-.58,3.605-.87,5.407-.26,1.614-.519,3.228-.779,4.842-.346,2.152-.694,4.315-.704,6.495-.021,4.284,1.002,11.19,1.002,11.19,0,0-9.162-.173-13.22-4.008-1.117-2.781-4.955-2.807-7.947-2.645s-7.03-.881-7.011-3.877c-1.784,2.748-5.407,3.579-8.677,3.771s-6.732,.022-9.603,1.6c-4.643,2.553-6.156,8.796-10.737,11.459-2.971,1.727-6.626,1.595-10.057,1.413-11.677-.62-23.355-1.24-35.032-1.86-1.977,.557-4.068,.97-6.077,.541s-3.918-1.884-4.322-3.898,1.226-4.348,3.276-4.202c-1.865,.021-7.958-1.692-7.958-1.692,0,0,3.029-2.03-1.482-3.074-1.692-.392-1.242-3.477,.17-4.528,1.393-1.038,3.267-1.073,5.004-1.067-1.401-3.705-7.067-4.807-9.755-1.897-.84,.909-1.468,2.141-2.641,2.536-1.648,.556-3.233-.827-4.706-1.75s-4.032-1.008-4.358,.7c-.17-1.217-.339-2.434-.509-3.651-2.635,.06-5.27,.121-7.905,.181,1.215-2.256,1.918-3.701,2.653-6.155,.451-1.505,1.788-7.427-4.863-9.378-2.596-.761-6.428-.378-8.715-3.081-3.366-3.977,1.3-5.519-.03-8.493-.612-1.369-1.428-.936-5.919-1.877-1.735-.363-3.033-3.039-4.273-4.305-2.333-2.381-7.079-2.044-10.356-1.435-6.551,1.218-17.348,6.034-17.348,6.034-3.736-1.823-7.508,2.253-11.431,3.626-6.12,2.142-15.116-5.866-17.127-6.917s-3.372-3.07-5.057-4.605c-5.749-5.235-15.982-15.003-15.982-15.003,4.464-4.656,6.789-9.131,5.008-15.33,1.533,.76,3.643-.142,4.154-1.775s-.71-3.576-2.403-3.825c-1.05-.154-2.331,.184-3.027-.617-1.076-1.237,1.064-2.979,2.647-2.554s2.796,1.802,4.399,2.147c2.892,.623,5.385-2.457,5.734-5.395,.423-3.566-1.087-7.032-2.111-10.473s-1.276-7.018,.927-9.854"/><path class="cls-2" d="M197.331,69.439c-.936,1.606-1.872,3.211-2.807,4.817l-5.262-1.365c-.378,1.327,1.051,2.484,2.384,2.84s2.857,.398,3.853,1.353c1.335,1.28,.948,3.644-.325,4.986-1.273,1.342-3.138,1.914-4.922,2.401-1.364,.373-3.092,1.331-2.651,2.674,.353,1.076,2.024,1.594,1.837,2.711-.156,.929-1.51,1.181-1.833,2.066-.337,.924,.649,1.79,1.571,2.134s2.029,.6,2.452,1.487c.536,1.123-.4,2.348-1.167,3.327s-1.36,2.55-.387,3.326c1.707,.231,2.884-1.722,3.15-3.424,.266-1.702,.193-3.629,1.368-4.889,1.156-1.24,3.048-1.323,4.659-1.846,3.46-1.123,5.721-4.359,7.726-7.394,.942-1.427,1.821-3.514,.54-4.647-1.303-1.152-3.289,.032-4.614,1.158-1.325,1.126-3.431,2.191-4.605,.909-.918-1.002-.337-2.698,.695-3.582s2.391-1.289,3.508-2.064,2.01-2.23,1.434-3.461c-.494-1.055-1.777-1.411-2.864-1.827s-2.271-1.317-3.74-1.69Z"/><path class="cls-4" d="M204.689,69.43l.472,2.81c.402,.04,.804,.08,1.205,.12,.601-.536,.711-1.537,.242-2.19s-1.453-.87-1.92-.74Z"/><path class="cls-4" d="M289.702,137.099c-2.115-1.455-4.747,1.132-5.604,3.551s-1.659,5.476-4.162,6.048c-1.371,.313-2.759-.299-4.136-.581-4.608-.943-7.367,1.848-8.22,6.473"/><path class="cls-3" d="M166.732,191.55c11.931,3.495,24.713,4.047,36.9,1.592,5.269-1.061,11.298-2.519,15.581,.727,3.212,2.434,4.268,6.761,4.688,10.769s.47,8.226,2.425,11.751c1.619,2.92,4.373,5.026,6.375,7.698s3.164,6.556,1.219,9.27c-2.296,3.202-7.389,2.864-10.216,5.608-2.09,2.03-2.429,5.212-2.644,8.117,.852-1.807,3.479-2.213,5.181-1.166s2.553,3.093,2.779,5.079-.065,3.989-.1,5.987c-.147,8.509,4.784,16.914,12.284,20.936-1.817,.671-2.182,3.097-1.878,5.011s.953,3.965,.101,5.705-4.132,1.945-4.299,.014c-.816,1.423-1.631,2.845-2.283,4.577-10.317,5.806-15.11,19.795-10.521,30.708,.354,.842,.671,2.007-.091,2.511-.504,.333-1.175,.124-1.738-.094-3.75-1.452-7.5-2.904-11.25-4.356-2.553-3.559-6.829-5.818-11.207-5.922s-8.757,1.951-11.475,5.385c.658-1.756-.863-3.757-2.691-4.172s-3.728,.354-5.289,1.394-2.932,2.362-4.574,3.266c.174-.805-1.242-.919-1.776-.292s-.768,1.574-1.527,1.892c-1.057,.443-2.071-.675-2.676-1.648-.997-1.6-1.994-3.2-2.99-4.8-1.099-1.764-2.816-3.787-4.812-3.208-2.918,.847-2.919,6.395-5.956,6.287-1.151-.041-2.042-1.009-2.67-1.974-2.667-4.102-3.602-9.889-8.055-11.916-2.403-1.094-5.189-.713-7.801-1.097s-5.497-2.182-5.357-4.818c.591-1.19,1.183-2.38,1.774-3.569-4.051,.672-8.396-.81-11.192-3.818-.766-.824-1.471-1.789-2.521-2.193s-2.551,.143-2.592,1.267c-.055,1.53,2.193,1.853,3.193,3.014,1.19,1.382,.144,3.713-1.52,4.462s-3.59,.405-5.379,.049c.837-1.132-.188-2.79-1.467-3.378s-2.77-.597-4.037-1.211-2.227-2.332-1.324-3.412c.862-1.03,2.714-.661,3.573-1.692,.921-1.105-.171-2.896-1.559-3.276s-2.842,.11-4.259,.359-3.115,.145-3.959-1.02c-1.104-3.027-5.485-4.22-7.971-2.17,.482-1.373-.054-3.037-1.248-3.869s-2.941-.761-4.062,.167"/><path class="cls-4" d="M187.116,171.166c3.351,3.056,9.155,4.255,13.544,3.116,2.836-.736,6.111-2.298,8.41-.481,1.799,1.422,1.797,4.1,1.634,6.387-.18,2.515-.359,5.031-.539,7.546-.111,1.55,.021,3.511,1.467,4.081"/><path class="cls-4" d="M223.261,200.843c7,3.094,17.627,.909,22.151-5.263,1.102-1.503,1.967-3.201,3.313-4.491s3.388-2.106,5.092-1.35c1.221,.542,2.004,1.758,3.127,2.482s3.06,.585,3.313-.727c-3.544-3.437-5.224-8.692-4.331-13.548s4.333-9.169,8.869-11.12c2.533-1.09,5.99-2.325,5.769-5.074-.164-2.04-2.368-3.145-3.876-4.529s-.709-2.606,.69-4.482c-9.516-5.388-19.582-11.426-29.097-16.814-1.089-.617-2.292-1.005-3.526-.793-2.262,.389-3.13,3.24-5.069,4.469-2.226,1.411-5.098,.351-7.687-.143-2.358-.45-4.779-.384-7.178-.317-3.208,.09-6.416,.18-9.624,.27-5.272,.148-10.722,.337-15.48,2.611s-8.901,7.798-8.225,13.028"/><path class="cls-3" d="M118.032,355.134c8.591,.192,16.081,6.48,24.658,7.018,2.4,.15,5.035-.264,6.681-2.017s1.58-5.123-.582-6.174c7.024-1.229,14.048-2.457,21.073-3.686,4.445-.777,9.691-2.219,11.057-6.52,.441-1.388,.485-3.079,1.658-3.944,2.457-1.811,5.455,2.317,8.494,2.03,2.12-.201,3.587-2.53,5.711-2.68,2.065-.147,3.607,1.766,5.405,2.791,3.936,2.245,9.209-.127,11.694-3.916,2.485-3.789,2.908-8.522,3.26-13.04,.985-.229,1.971-.458,2.956-.687"/><path class="cls-3" d="M210.099,341.517c.399,.877,1.544,1.052,2.504,1.129s2.112,.321,2.429,1.23c.224,.642-.088,1.356,.026,2.027,.126,.746,.767,1.316,1.466,1.603s1.467,.349,2.214,.468c3.034,.485,5.896,1.992,8.013,4.219"/><path class="cls-3" d="M180.501,403.938c-.077-.608,.12-2.233,.042-2.841,2.075,.062,4.164-.52,5.908-1.646-.377-.807-.754-1.614-1.131-2.42,3.385,1.731,7.982,.523,10.079-2.649,1.153-1.744,1.567-3.884,2.635-5.682s3.282-3.277,5.188-2.416c-.969-4.712,.82-9.559,3.143-13.773,5.634-10.222,14.676-18.527,25.338-23.274-.585,1.385,.72,3.165,2.216,3.025"/><path class="cls-3" d="M232.808,352.859c2.145,.358,4.232-.705,6.278-1.443s4.595-1.069,6.17,.431c.532,.507,.901,1.185,1.509,1.596,1.403,.949,3.297,.076,4.667-.919s2.919-2.185,4.57-1.806c1.764,.405,2.625,2.365,4.004,3.537,2.028,1.723,5.102,1.594,7.565,.586s4.544-2.748,6.833-4.106,5.019-2.355,6.997-1.182c2.555-3.128,5.328-6.41,9.177-7.635,1.229-.391,2.712-.699,3.232-1.879,.505-1.147-.175-2.654,.582-3.652,.729-.961,2.194-.739,3.383-.536s2.777,.042,3.493-.169c1.833-1.943,4.842-2.332,7.455-1.778s4.978,1.894,7.414,2.99c4.914,2.21,10.199,3.451,15.446,4.679,3.686,.863,7.371,1.725,11.057,2.588-2.199,2.955-1.28,7.286,.836,10.301s5.203,5.191,7.731,7.87,4.582,6.302,3.825,9.907c3.93-.171,7.012,4.826,5.095,8.261-5.587-.411-11.175-.822-16.762-1.232,.891,8.206-.912,16.683-5.065,23.817-1.256,2.157-4.069,5.272-6.41,6.137"/><path class="cls-3" d="M294.542,339.26c4.018,4.467,8.036,8.934,12.054,13.401,4.269,4.746,8.538,9.493,12.808,14.239,2.908,3.233,5.886,6.581,7.337,10.68,1.552,4.384,1.204,9.178,.916,13.82s-.462,9.479,1.389,13.745,6.343,7.754,10.915,6.907c3.85-.713,6.529-4.081,9.596-6.515s5.346-5.409,7.882-2.425"/><path class="cls-4" d="M227.554,94.843c1.444,.412,3.683,1.093,5.127,1.505-.871-2.253,1.509-5.009,3.864-4.477,.351,.724,.702,1.448,1.054,2.172,1.63-2.255,5.265-1.644,7.47,.054s3.77,4.188,6.184,5.572c5.417,3.107,13.95-.157,20.126,.764"/><path class="cls-4" d="M230.136,264.267c.411-2.229,2.761-3.528,4.953-4.1s4.587-.783,6.387-2.16,2.439-4.557,.518-5.761c4.523,.418,9.066-.29,13.554-.995,5.164-.811,10.327-1.623,15.491-2.434,.865,2.352,3.978,2.73,6.484,2.713,2.547-.017,5.094-.034,7.64-.051,2.746-2.143,7.559,.247,7.512,3.73-.17-1.712,2.7-1.682,3.89-.44s2.285,3.122,3.991,2.904c.73-.093,1.34-.583,1.907-1.053,2.652-2.199,5.304-4.399,7.956-6.598,1.587,1.065,2.276,3.29,1.567,5.065,1.974-.486,3.949-.971,5.923-1.457,.212,.975,.424,1.95,.636,2.926,1.144-3.092,3.561-5.69,6.563-7.053-1.473,2.394,.201,6.046,2.976,6.492s5.51-2.496,4.862-5.231c6.248,1.281,12.496,2.563,18.744,3.844-2.074-1.165-2.808-3.817-2.8-6.197s.553-4.769,.19-7.121c4.022-4.71,10.545-8.464,16.54-10.024"/></svg>