<?xml version="1.0" encoding="UTF-8"?>
<svg id="east" xmlns="http://www.w3.org/2000/svg" viewBox="0 0 549.07 472.89">
  <defs>
    <style>
      .cls-1, .cls-2 {
        stroke: #efedeb;
      }

      .cls-1, .cls-2, .cls-3, .cls-4 {
        stroke-miterlimit: 10;
      }

      .cls-1, .cls-4 {
        fill: #79a672;
      }

      .cls-2, .cls-3 {
        fill: none;
      }

      .cls-3, .cls-4 {
        stroke: #efeeea;
      }
    </style>
  </defs>
  <path class="cls-1" d="m117.45,336.59s1.37-2.44,2.45-3.31c1.08-.86,2.64-1.28,3.86-.64.68.36,1.19.99,1.85,1.39,1.74,1.05,3.96.23,5.82-.61,2.41-1.09,5.05-2.41,5.96-4.89.46-1.23.41-2.59.75-3.86.65-2.44,2.67-4.32,4.94-5.41s4.8-1.51,7.29-1.91"/>
  <path class="cls-1" d="m117.45,336.59s-12.4-.2-25.63-6.12c-3.69-1.65-8.9-3.73-11.38-.54-2.22,2.86-.92,8.28-4.34,9.48-1.45.51-3.04-.16-4.37-.93s-2.7-1.68-4.24-1.67-3.16.74-2.62,2.18c-1.06-2.09-3.23-4.39-3.23-4.39.42-2.76-1.91-4.18-3.98-5.01s-4.48-1.79-5.08-3.94c-.61-2.2.71-5.36-1.34-6.36-1.22-.59-2.66.28-4.02.18-1.8-.14-2.98-1.89-3.87-3.46-1.65-2.89-3.33-5.69-3.58-9.01-.2-2.64.54-5.65-1.09-7.73-.78-.99-2.08-1.75-3.13-2.45s-1.96-2.05-2.12-3.3,1.01-2.67,2.22-2.28c1.15.37,1.08,1.8,1.49,2.93.55,1.54,2.06,2.69,2.8,1.73-1.48-1.26-.53-3.89,1.18-4.82s4.91-.76,6.84-1.07c10.71-1.68,16.42-9.92,26.05-8.46-1.64-.59-2.52-2.52-2.43-4.26s1.84-2.9,3.48-2.31c2.84,1.02,1.67,5.71,3.82,7.83,2.05,2.02,5.96.07,6.79-3.02.74-2.77-.21-10.83-1.64-7.77-1.56,3.34-3.6-8.96-5.44-13.36-.44-1.06-.78-2.58-.54-3.7.3-1.41,1.59-2.39,2.13-3.72.89-2.17-.86-4.96-3.2-5.11-.83-2.52,1.23-5.02,1.74-7.56.4-1.99-.37-3.74-1.86-5.12s-3.72-1.91-5.67-1.36c1.26-2.26,2.64-4.9,3.89-7.16.93-1.68,1.1-2.51,2.73-3.53.61-.39,2.05-1.22,2.38-1.87.81-1.6-.85-2.73.15-4.23,0,0,1.98-.08,2.8.21-.3-3.07-1.31-6.06-2.94-8.68,1.01.81,2.09-1.11,1.67-2.34s-1.3-2.64-.49-3.65c.91-1.15,2.97-.02,3.11,1.44s-.85,2.76-1.78,3.88c1.01.81,2.57.1,3.33-.95s1.07-2.37,1.84-3.41c2.04-2.77,6.15-2.48,9.57-2.79,6.29-.57,12.22-4.27,15.22-8.92,5.22-1.93,10.43-3.87,15.65-5.8,3.02-1.12,6.21-2.26,9.39-1.77,3.59.55,6.74,3.35,7.72,6.85-.31,1.07-.62,2.15-.93,3.22.88,1.51,2.89,1.91,4.64,1.82s3.54-.51,5.22,0,3.1,2.45,2.25,3.98c6.06-3.13,11.33-7.77,15.21-13.38-1.49.99-3.63.88-5.01-.27s-1.87-3.24-1.16-4.88c7.76-.45,14.98-6,17.42-13.38-.59,5.27-3.2,10.28-7.17,13.79,1.76.6,3.57,1.21,5.42,1.13s3.79-1.04,4.5-2.75-.37-4.09-2.23-4.23c1.18-1.1,2.37-2.2,3.55-3.29-4.36-11.2-8.8-22.9-7.76-34.88.33-3.78,1.2-7.49,2.11-11.17.81-3.26,1.68-6.55,3.3-9.5,3.05-5.57,8.82-9.57,15.1-10.47,2.8,3.93,5.6,7.87,8.39,11.8,1.53,2.15,3.13,4.37,5.41,5.71,3.51,3.23,9.64,1.06,12.13-3,2.49-4.06,2.38-9.14,2.19-13.9-.22-5.54-.44-11.07-.66-16.61-.08-2.07-1.34-4.94-3.23-4.1-1.38.62-1.21,2.64-2,3.93-.86,1.43-2.88,1.77-4.46,1.23-1.58-.54-2.82-1.76-4-2.93-1.33-2.79-2.66-5.58-3.98-8.38,1.78-2.02,1.18-5.62-1.15-6.95,1.16-.28,2.32-.57,3.48-.85-1.1-.49-2.21-.97-3.32-1.46-.28-2.15.91-4.41,2.83-5.4,1.01-.52,2.17-.71,3.2-1.2,2.28-1.1,3.57-3.52,5.43-5.23s5.26-2.48,6.64-.37c.15-1.64.31-3.28,1.19-4.5,2.95,2.18,7.5,1.78,10.26-.35.5-.62,1.01-1.24,1.51-1.86,4.95.79,10.11.18,14.74-1.74.09,1.17.18,2.35.27,3.53,4.6-.28,9.21-.56,13.81-.84,2.24-.14,3.83,0,4.16-2.23,0,0,4.18-.58,5.39,2.65.25.66.31,1.45-.08,2.04-.43.67-1.29.91-2.08,1-1.47.16-3.26.13-4.04,1.38-.34.54-.39,1.22-.43,1.86-.17,2.63-.57,4.36-.73,7-3.32.69-6.64,1.37-9.96,2.06,3.62,6.54,7.23,13.09,10.85,19.63,1.62,2.94,5.11,5.58,5.11,5.58-2.96,2.32-6.04,4.09-5.37,7.79,7.71,1.15,11.08,10.43,7.6,17.41,11.36,1.69,10.72,19.25,10.72,19.25.97-.95,2.34-1.71,3.64-2.09s2.95.09,3.44,1.34c.56,1.43-.49,3.3.5,4.47.98,1.15,3.06.22,3.5-1.22s-.19-2.97-.81-4.35c3.24.29,6.47.58,9.71.87-2.21.85-2.36,4.59-.22,5.61,2.29,1.1,4.78-.87,6.71-2.53s5.02-3.08,6.77-1.22c-.26.88-.52,1.76-.78,2.65,4.6-.98,9.61.2,13.29,3.12-.97,1.41-.43,3.62,1.09,4.41-1.65,2.77-.34,6.85,2.61,8.14-1.84,1.02-3.62,2.3-4.7,4.11s-1.32,4.23-.14,5.97,3.97,2.32,5.49,1.32l2.72,1.03c.82,4.07,1.64,8.15,2.46,12.22,4.1.79,8.19,1.57,12.29,2.36l-.88,4.59c3.86-.7,7.95-.08,11.43,1.73-.39,1.28-.78,2.55-1.17,3.83,3.26-.15,6.54,1.63,8.18,4.45-2.01-.57-3.77,1.5-4.55,3.44s-1.42,4.24-3.32,5.12c-1.64.75-3.56.09-5.18-.69s-3.35-1.69-5.13-1.42-3.31,2.46-2.22,3.9c1.12.54,2.25,1.08,3.37,1.62-2.64,4.87,1.62,11.85,7.16,11.74-.85,3.18-.61,6.63.66,9.66,2.21,2.1,6.03,1.4,8.26-.68s3.27-5.1,4.22-7.99c1.48.09,2.81,1.32,3.02,2.79,2.68-3.41,7.57-4.91,11.71-3.58,1.99-3.46,8.13-3.01,11.67,1.4-1.29,1.06-.55,3.29.83,4.23s3.13,1.13,4.64,1.83,2.89,2.36,2.28,3.91c-.4,1.01-1.48,1.55-2.41,2.12s-1.89,1.46-1.76,2.54,2.08,1.45,2.19.37c1.02,3.03,2.04,6.05,3.05,9.08,4.11-2.36,9.2-2.97,13.75-1.65-.93-.47-1.49-1.57-1.33-2.6,2.02-.78,4.38.23,5.8,1.86s2.12,3.75,2.79,5.81c.98,3.05,1.96,6.09,2.94,9.14,1.37.84,2.74,1.67,4.12,2.51-1.45-2.03,1.95-4.42,4.32-3.64s4.08,2.95,6.47,3.69c3.26,1,6.66-.96,9.27-3.15s5.16-4.81,8.51-5.43c.86,1.78,1.72,3.55,2.58,5.33,4.17,2.36,9.27,3.04,13.92,1.86,3.05.1,6.09.2,9.14.3,3.79.82,7.58,1.64,11.37,2.47,1.7-.05,3.4-.11,5.1-.16,2.02,2.99,7.68,1.69,8.2-1.88.97,4.11,3.05,7.94,5.96,11-3.59,1.57-6.65,4.34-8.57,7.75,1.9-1.46,4.97-1.84,6.49,0s-.82,5.43-2.83,4.14c-1.4,3.05,2.53,6.85,5.53,5.36.22,2.18-.28,4.42-1.42,6.29,1.8.57,3.6,1.13,5.4,1.7-2.27,3.01-3.09,7.06-2.16,10.71-2.76-.52-5.58-1.03-8.35-.61s-5.53,1.99-6.63,4.57c-.8,1.88-.69,4.17-1.98,5.76s-4.84.79-4.15-1.14c-1.51,1.62-3.11,3.46-3.17,5.67s2.42,4.47,4.31,3.31c-.26,1.59-.96,5.21-.96,5.21-1.3.74-1.01.8-1.61,2.1.34.76-.45,1.64-1.28,1.72s-1.61-.37-2.33-.81-1.48-.9-2.31-.86c-.79.04-1.49.52-2.11,1.01-1.65,1.3-3.18,2.76-4.55,4.36-.75.88-1.48,1.82-2.51,2.34-1.35.69-3.01.55-4.36,1.25-2.04,1.06-2.71,3.68-2.64,5.99-2.58-.63-5.37.39-7.36,2.15s-3.27,4.2-4.21,6.68c-.22.57-.53,1.25-1.14,1.31-.74.08-1.2-.9-.95-1.6s.91-1.14,1.51-1.58,1.2-1.01,1.25-1.75c.06-.78-.59-1.5-1.35-1.69s-1.57.05-2.22.49c-1.46.97-2.23,2.81-3.79,3.61-1.08.55-2.47.56-3.32,1.43-.57.58-.77,1.42-1.15,2.15s-1.13,1.41-1.92,1.2c-1.03-.27-1.14-1.67-1.06-2.73s-.14-2.47-1.2-2.63c-.78-.11-1.46.7-1.46,1.49s.51,1.49,1.08,2.04,1.24.99,1.76,1.59c1.18,1.4,1.3,3.46.77,5.22-.54,1.75-1.63,3.27-2.71,4.75-.31.42-.63.86-1.09,1.12s-1.08.29-1.46-.08c-.41-.4-.36-1.1-.07-1.59s.77-.84,1.19-1.23c1.29-1.18,2.16-2.82,2.39-4.55.1-.7,0-1.57-.65-1.84-.75-.31-1.5.46-1.82,1.2s-.55,1.64-1.29,1.8c-1.72,1.48-3.44,2.95-5.16,4.42,1.88.29,3.45,1.96,3.64,3.85-2.85.04-5.69.73-8.23,2.01,1.75-.99,1.02-3.95-.78-4.85s-3.95-.39-5.89.13c-2.98.8-5.97,1.6-8.95,2.4,3.44-.18,5.77,3.77,9.14,4.45,1.24.25,2.52.03,3.78,0,4.56-.14,8.84,2,12.89,4.09,1.21.62,2.57,1.44,2.77,2.79.17,1.11-.54,2.2-.48,3.33.09,1.88,2.2,3,4.08,3.14,3.72.29,7.2-1.71,10.4-3.64,2.02-1.22,4.05-2.44,6.07-3.66,1.39-.84,2.8-1.68,4.37-2.05,2.1-.5,4.4-.07,6.19,1.14-.82.63-1.65,1.27-2.18,2.16s-.68,2.07-.1,2.92c.29.42.75.76.86,1.26.17.76-.54,1.41-1.17,1.87-2.95,2.16-6.72,4.42-10.03,2.85-1.61-.77-3.15-2.42-4.84-1.85-1.98.67-1.83,3.46-2.54,5.42-.8,2.19-2.99,3.57-5.19,4.35s-4.55,1.15-6.65,2.18c-2.51,1.23-4.48,3.33-6.38,5.38-3,3.22-5.99,6.44-8.99,9.66-.84-2.87-4.03-4.83-6.97-4.27-.76-2.1-.37-4.42-.11-6.64s.34-4.64-.9-6.5-4.32-2.57-5.69-.81c-1.45-1.26-2.93-2.54-4.66-3.38s-3.79-1.18-5.6-.52c-.95.35-1.79.97-2.76,1.27s-2.19.2-2.77-.64c-.95-1.38.58-3.1,1.95-4.06,4.71-3.32,9.43-6.65,14.14-9.97.94-.66,1.9-1.34,2.53-2.3s.86-2.27.27-3.25c-.53-.88-1.57-1.3-2.56-1.59-4.34-1.26-9.09-1.05-13.31.57-3.55,1.37-7.36,3.74-10.64,2.24-1.12-.79-2.27-1.59-3.55-2.07s-2.76-.61-4.02-.06c-1.27.56-2.24,1.76-3.59,2.07-1.48.34-3.13-.67-3.51-2.14,2.68.46,5.53-.21,7.72-1.82,1.58-1.16,2.87-2.8,4.71-3.47.62-.23,1.29-.34,1.85-.68s1.01-1.01.81-1.64c-.18-.57-.82-.88-1.42-.89s-1.17.19-1.75.33c-1.93.46-4.03.14-5.74-.86-.61.11-.71,1.02-.32,1.51s1.03.66,1.59.91,1.16.66,1.21,1.28c.05.61-.49,1.14-1.08,1.3s-1.22.03-1.82-.09c-2.32-.48-4.88-1.12-6.17-3.11-.53-.81-.79-1.79-1.4-2.55s-1.81-1.2-2.54-.57c-.75.66-.47,1.9-.92,2.8-.57,1.12-2.05,1.34-3.3,1.34s-2.69-.01-3.52.92c-.33.37-.57.89-1.04,1.03-.41.13-.85-.08-1.23-.28-1.83-.96-3.65-1.92-5.48-2.89-.34,1.23.56,2.47,1.57,3.25s2.23,1.36,2.96,2.41c1.04,1.49.85,3.48.6,5.28-.11.86-.3,1.83-1.04,2.27-.58.35-1.35.24-1.96-.07s-1.1-.8-1.63-1.23c-.94-.77-2.02-1.38-3.17-1.79-.62-.22-1.39-.36-1.88.09-.59.55-.27,1.61.36,2.11s1.47.67,2.2,1.02c1.55.73,2.64,2.36,2.73,4.08.13,2.47-1.62,4.6-3.27,6.45-1.26,1.42-2.55,2.85-4.16,3.85s-3.61,1.54-5.25,1.14l-1.15.12c-.75.85-.02,2.15.7,3.02,1.24,1.51,2.49,3.01,3.73,4.52.41.5.84,1.19.49,1.73-.45.69-1.51.28-2.18-.2.66,2.11,1.32,4.26,1.42,6.46s-.56,4.41-1.7,5.76c-2.28,2.7-7.1,2.55-9.21-.27.77-1.07.22-2.82-1.03-3.26s-2.77.58-2.84,1.89c-.05.79.35,1.54.52,2.31.22,1,.05,2.05-.11,3.06-.29,1.8-.58,3.61-.87,5.41-.26,1.61-.52,3.23-.78,4.84-.35,2.15-.69,4.32-.7,6.49-.02,4.28,1,11.19,1,11.19,0,0-9.16-.17-13.22-4.01-1.12-2.78-4.95-2.81-7.95-2.64s-7.03-.88-7.01-3.88c-1.78,2.75-5.41,3.58-8.68,3.77s-6.73.02-9.6,1.6c-4.64,2.55-6.16,8.8-10.74,11.46-2.97,1.73-6.63,1.6-10.06,1.41-11.68-.62-23.35-1.24-35.03-1.86-1.98.56-4.07.97-6.08.54s-3.92-1.88-4.32-3.9,1.23-4.35,3.28-4.2c-1.87.02-7.96-1.69-7.96-1.69,0,0,3.03-2.03-1.48-3.07-1.69-.39-1.24-3.48.17-4.53,1.39-1.04,3.27-1.07,5-1.07-1.4-3.7-7.07-4.81-9.76-1.9-.84.91-1.47,2.14-2.64,2.54-1.65.56-3.23-.83-4.71-1.75s-4.03-1.01-4.36.7c-.17-1.22-.34-2.43-.51-3.65-2.63.06-5.27.12-7.9.18,1.21-2.26,1.92-3.7,2.65-6.15.45-1.51,1.79-7.43-4.86-9.38-2.6-.76-6.43-.38-8.71-3.08-3.37-3.98,1.3-5.52-.03-8.49-.61-1.37-1.43-.94-5.92-1.88-1.74-.36-3.03-3.04-4.27-4.3-2.33-2.38-7.08-2.04-10.36-1.43-6.55,1.22-17.35,6.03-17.35,6.03-3.74-1.82-7.51,2.25-11.43,3.63-6.12,2.14-15.12-5.87-17.13-6.92s-3.37-3.07-5.06-4.61c-5.75-5.23-15.98-15-15.98-15,4.46-4.66,6.79-9.13,5.01-15.33,1.53.76,3.64-.14,4.15-1.77s-.71-3.58-2.4-3.83c-1.05-.15-2.33.18-3.03-.62-1.08-1.24,1.06-2.98,2.65-2.55s2.8,1.8,4.4,2.15c2.89.62,5.39-2.46,5.73-5.39.42-3.57-1.09-7.03-2.11-10.47s-1.28-7.02.93-9.85"/>
  <path class="cls-4" d="m197.33,69.44c-.94,1.61-1.87,3.21-2.81,4.82l-5.26-1.36c-.38,1.33,1.05,2.48,2.38,2.84s2.86.4,3.85,1.35c1.34,1.28.95,3.64-.32,4.99s-3.14,1.91-4.92,2.4c-1.36.37-3.09,1.33-2.65,2.67.35,1.08,2.02,1.59,1.84,2.71-.16.93-1.51,1.18-1.83,2.07-.34.92.65,1.79,1.57,2.13s2.03.6,2.45,1.49c.54,1.12-.4,2.35-1.17,3.33s-1.36,2.55-.39,3.33c1.71.23,2.88-1.72,3.15-3.42.27-1.7.19-3.63,1.37-4.89,1.16-1.24,3.05-1.32,4.66-1.85,3.46-1.12,5.72-4.36,7.73-7.39.94-1.43,1.82-3.51.54-4.65-1.3-1.15-3.29.03-4.61,1.16s-3.43,2.19-4.6.91c-.92-1-.34-2.7.7-3.58s2.39-1.29,3.51-2.06,2.01-2.23,1.43-3.46c-.49-1.06-1.78-1.41-2.86-1.83s-2.27-1.32-3.74-1.69h0Z"/>
  <path class="cls-3" d="m204.69,69.43l.47,2.81c.4.04.8.08,1.21.12.6-.54.71-1.54.24-2.19s-1.45-.87-1.92-.74h0Z"/>
  <path class="cls-3" d="m289.7,137.1c-2.11-1.46-4.75,1.13-5.6,3.55s-1.66,5.48-4.16,6.05c-1.37.31-2.76-.3-4.14-.58-4.61-.94-7.37,1.85-8.22,6.47"/>
  <path class="cls-2" d="m166.73,191.55c11.93,3.49,24.71,4.05,36.9,1.59,5.27-1.06,11.3-2.52,15.58.73,3.21,2.43,4.27,6.76,4.69,10.77s.47,8.23,2.43,11.75c1.62,2.92,4.37,5.03,6.38,7.7s3.16,6.56,1.22,9.27c-2.3,3.2-7.39,2.86-10.22,5.61-2.09,2.03-2.43,5.21-2.64,8.12.85-1.81,3.48-2.21,5.18-1.17s2.55,3.09,2.78,5.08-.07,3.99-.1,5.99c-.15,8.51,4.78,16.91,12.28,20.94-1.82.67-2.18,3.1-1.88,5.01s.95,3.96.1,5.7-4.13,1.95-4.3.01c-.82,1.42-1.63,2.85-2.28,4.58-10.32,5.81-15.11,19.8-10.52,30.71.35.84.67,2.01-.09,2.51-.5.33-1.18.12-1.74-.09l-11.25-4.36c-2.55-3.56-6.83-5.82-11.21-5.92s-8.76,1.95-11.48,5.39c.66-1.76-.86-3.76-2.69-4.17s-3.73.35-5.29,1.39-2.93,2.36-4.57,3.27c.17-.8-1.24-.92-1.78-.29s-.77,1.57-1.53,1.89c-1.06.44-2.07-.67-2.68-1.65-1-1.6-1.99-3.2-2.99-4.8-1.1-1.76-2.82-3.79-4.81-3.21-2.92.85-2.92,6.39-5.96,6.29-1.15-.04-2.04-1.01-2.67-1.97-2.67-4.1-3.6-9.89-8.06-11.92-2.4-1.09-5.19-.71-7.8-1.1s-5.5-2.18-5.36-4.82c.59-1.19,1.18-2.38,1.77-3.57-4.05.67-8.4-.81-11.19-3.82-.77-.82-1.47-1.79-2.52-2.19s-2.55.14-2.59,1.27c-.06,1.53,2.19,1.85,3.19,3.01,1.19,1.38.14,3.71-1.52,4.46s-3.59.4-5.38.05c.84-1.13-.19-2.79-1.47-3.38s-2.77-.6-4.04-1.21-2.23-2.33-1.32-3.41c.86-1.03,2.71-.66,3.57-1.69.92-1.11-.17-2.9-1.56-3.28s-2.84.11-4.26.36-3.11.14-3.96-1.02c-1.1-3.03-5.49-4.22-7.97-2.17.48-1.37-.05-3.04-1.25-3.87s-2.94-.76-4.06.17"/>
  <path class="cls-3" d="m187.12,171.17c3.35,3.06,9.15,4.26,13.54,3.12,2.84-.74,6.11-2.3,8.41-.48,1.8,1.42,1.8,4.1,1.63,6.39-.18,2.51-.36,5.03-.54,7.55-.11,1.55.02,3.51,1.47,4.08"/>
  <path class="cls-3" d="m223.26,200.84c7,3.09,17.63.91,22.15-5.26,1.1-1.5,1.97-3.2,3.31-4.49s3.39-2.11,5.09-1.35c1.22.54,2,1.76,3.13,2.48,1.12.72,3.06.59,3.31-.73-3.54-3.44-5.22-8.69-4.33-13.55s4.33-9.17,8.87-11.12c2.53-1.09,5.99-2.32,5.77-5.07-.16-2.04-2.37-3.15-3.88-4.53s-.71-2.61.69-4.48c-9.52-5.39-19.58-11.43-29.1-16.81-1.09-.62-2.29-1.01-3.53-.79-2.26.39-3.13,3.24-5.07,4.47-2.23,1.41-5.1.35-7.69-.14-2.36-.45-4.78-.38-7.18-.32-3.21.09-6.42.18-9.62.27-5.27.15-10.72.34-15.48,2.61s-8.9,7.8-8.23,13.03"/>
  <path class="cls-2" d="m118.03,355.13c8.59.19,16.08,6.48,24.66,7.02,2.4.15,5.04-.26,6.68-2.02s1.58-5.12-.58-6.17c7.02-1.23,14.05-2.46,21.07-3.69,4.45-.78,9.69-2.22,11.06-6.52.44-1.39.49-3.08,1.66-3.94,2.46-1.81,5.46,2.32,8.49,2.03,2.12-.2,3.59-2.53,5.71-2.68,2.07-.15,3.61,1.77,5.4,2.79,3.94,2.24,9.21-.13,11.69-3.92,2.49-3.79,2.91-8.52,3.26-13.04.99-.23,1.97-.46,2.96-.69"/>
  <path class="cls-2" d="m210.1,341.52c.4.88,1.54,1.05,2.5,1.13s2.11.32,2.43,1.23c.22.64-.09,1.36.03,2.03.13.75.77,1.32,1.47,1.6s1.47.35,2.21.47c3.03.48,5.9,1.99,8.01,4.22"/>
  <path class="cls-2" d="m180.5,403.94c-.08-.61.12-2.23.04-2.84,2.07.06,4.16-.52,5.91-1.65-.38-.81-.75-1.61-1.13-2.42,3.38,1.73,7.98.52,10.08-2.65,1.15-1.74,1.57-3.88,2.63-5.68s3.28-3.28,5.19-2.42c-.97-4.71.82-9.56,3.14-13.77,5.63-10.22,14.68-18.53,25.34-23.27-.59,1.39.72,3.17,2.22,3.02"/>
  <path class="cls-2" d="m232.81,352.86c2.15.36,4.23-.7,6.28-1.44s4.6-1.07,6.17.43c.53.51.9,1.18,1.51,1.6,1.4.95,3.3.08,4.67-.92s2.92-2.18,4.57-1.81c1.76.4,2.62,2.36,4,3.54,2.03,1.72,5.1,1.59,7.57.59s4.54-2.75,6.83-4.11,5.02-2.36,7-1.18c2.55-3.13,5.33-6.41,9.18-7.64,1.23-.39,2.71-.7,3.23-1.88.51-1.15-.17-2.65.58-3.65.73-.96,2.19-.74,3.38-.54s2.78.04,3.49-.17c1.83-1.94,4.84-2.33,7.45-1.78s4.98,1.89,7.41,2.99c4.91,2.21,10.2,3.45,15.45,4.68,3.69.86,7.37,1.73,11.06,2.59-2.2,2.95-1.28,7.29.84,10.3s5.2,5.19,7.73,7.87,4.58,6.3,3.83,9.91c3.93-.17,7.01,4.83,5.1,8.26-5.59-.41-11.17-.82-16.76-1.23.89,8.21-.91,16.68-5.07,23.82-1.26,2.16-4.07,5.27-6.41,6.14"/>
  <path class="cls-2" d="m294.54,339.26c4.02,4.47,8.04,8.93,12.05,13.4,4.27,4.75,8.54,9.49,12.81,14.24,2.91,3.23,5.89,6.58,7.34,10.68,1.55,4.38,1.2,9.18.92,13.82s-.46,9.48,1.39,13.74,6.34,7.75,10.92,6.91c3.85-.71,6.53-4.08,9.6-6.52s5.35-5.41,7.88-2.42"/>
  <path class="cls-3" d="m227.55,94.84c1.44.41,3.68,1.09,5.13,1.5-.87-2.25,1.51-5.01,3.86-4.48.35.72.7,1.45,1.05,2.17,1.63-2.25,5.26-1.64,7.47.05s3.77,4.19,6.18,5.57c5.42,3.11,13.95-.16,20.13.76"/>
  <path class="cls-3" d="m230.14,264.27c.41-2.23,2.76-3.53,4.95-4.1s4.59-.78,6.39-2.16,2.44-4.56.52-5.76c4.52.42,9.07-.29,13.55-.99,5.16-.81,10.33-1.62,15.49-2.43.86,2.35,3.98,2.73,6.48,2.71,2.55-.02,5.09-.03,7.64-.05,2.75-2.14,7.56.25,7.51,3.73-.17-1.71,2.7-1.68,3.89-.44s2.29,3.12,3.99,2.9c.73-.09,1.34-.58,1.91-1.05,2.65-2.2,5.3-4.4,7.96-6.6,1.59,1.07,2.28,3.29,1.57,5.07,1.97-.49,3.95-.97,5.92-1.46.21.98.42,1.95.64,2.93,1.14-3.09,3.56-5.69,6.56-7.05-1.47,2.39.2,6.05,2.98,6.49s5.51-2.5,4.86-5.23c6.25,1.28,12.5,2.56,18.74,3.84-2.07-1.16-2.81-3.82-2.8-6.2s.55-4.77.19-7.12c4.02-4.71,10.55-8.46,16.54-10.02"/>
</svg>