<?xml version="1.0" encoding="UTF-8"?><svg id="north" xmlns="http://www.w3.org/2000/svg" width="549.066" height="535.339" viewBox="0 0 549.066 535.339"><defs><style>.cls-1{fill:#8fc9b4;}.cls-1,.cls-2,.cls-3{stroke:#efeeeb;stroke-miterlimit:10;}.cls-2{fill:#b8ddf2;}.cls-3{fill:#d5e3ac;}</style></defs><path class="cls-1" d="M279.736,443.9c-2.827,1.951-5.947,4.412-6.054,7.846-.049,1.56,.564,3.13,.24,4.658-.344,1.625-1.658,2.831-2.748,4.085-4.793,5.516-5.832,13.995-2.513,20.505,1.804-10.773,5.173-21.283,9.969-31.097,1.042-2.133,2.071-4.932,1.105-5.996Z"/><path class="cls-1" d="M307.163,426.817c-4.185,3.255-8,6.985-11.349,11.095-.864,1.061-1.737,2.501-1.08,3.702,.693,1.266,2.722,1.429,3.198,2.791,.747,2.137-3.184,3.678-2.665,5.882,.407,1.729,3.267,2.095,3.413,3.865,.121,1.467-1.837,2.544-1.6,3.997,.224,1.369,2.235,1.623,3.393,.859,3.353-2.214,1.912-8.218,5.203-10.524,.634-.444,1.386-.694,2.031-1.122s1.205-1.132,1.117-1.901-1.13-1.346-1.687-.809c-.391-.664,.346-1.503,1.11-1.606s1.513,.223,2.277,.324,1.71-.154,1.914-.897c.208-.761-.526-1.479-1.28-1.707s-1.578-.17-2.321-.434c-1.897-.676-2.484-3.287-1.623-5.107s2.696-2.964,4.519-3.82c1.823-.856,3.771-1.553,5.274-2.893,.617-.55,1.175-1.282,1.145-2.109-.055-1.501-2.011-2.239-3.454-1.823s-2.569,1.523-3.887,2.242-3.186,.939-3.646-.003Z"/><path class="cls-1" d="M313.298,413.762l-1.402,3.006c.202,.264,.404,.529,.606,.793,1.642-.381,3.122-1.42,4.038-2.836-1.027-1.248-2.726-2.068-3.241-.963Z"/><path class="cls-1" d="M336.912,352.111c.169,2.051,.738,4.068,1.667,5.904,1.141-.749,1.873-2.086,1.889-3.451,.016-1.365-.684-2.719-1.807-3.495,.266-.31,.533-.62-1.749,1.042Z"/><path class="cls-1" d="M342.257,354.897c1.215,1.567,2.43,3.135,3.645,4.702,1.889-.823,3.844-1.495,5.84-2.007,.562-.144,1.15-.276,1.718-.157s1.11,.56,1.158,1.138c.078,.943-1.04,1.472-1.951,1.726-1.668,.464-3.357,.932-5.088,.967s-3.536-.409-4.822-1.567c-1.286-1.159-1.917-3.122-.499-4.802Z"/><path class="cls-1" d="M360.85,359.668c-1.312,.969-2.701,2.042-3.188,3.599s.493,3.645,2.124,3.612c.801-.016,1.502-.515,2.144-.994,1.56-1.162,3.119-2.324,4.679-3.486,.355-.265,.728-.552,.883-.967,.354-.947-.615-1.881-1.57-2.214-1.744-.609-3.915-.406-5.073,.45Z"/><path class="cls-1" d="M331.982,357.199c.049,2.045,.635,4.075,1.682,5.832,1.267-.776,2.019-2.319,1.85-3.795s-1.251-2.809-2.66-3.278c-.099,.309-.198,.618-.872,1.241Z"/><path class="cls-1" d="M335.923,369.406l-1.552,1.033c.796,1.146,2.553,1.477,3.711,.699s1.517-2.529,.757-3.7c-.76-1.17-2.505-1.556-2.916,1.968Z"/><path class="cls-1" d="M327.53,359.021l2.156,4.83c.498-.838,1.991-.282,2.135,.682s-.619,1.847-1.476,2.313c-2.12,1.152-4.729,.584-7.042-.101-3.749-1.11-7.428-2.456-11.008-4.028-.351-.154-.74-.354-.842-.723-.186-.674,.679-1.118,1.36-1.278,1.896-.444,3.792-.889,5.689-1.333-1.403-.495-2.093-2.345-1.441-3.682s2.431-1.95,3.809-1.391c1.347,.546,2.138,1.917,2.836,3.191,.328,.599,.677,1.219,1.24,1.605s1.406,.457,2.583-.086Z"/><path class="cls-2" d="M430.989,351.779c-.806,1.361-.912,3.112-.275,4.56,1.153-.664,1.843-2.053,1.676-3.372s-.726-2.326-1.401-1.187Z"/><path class="cls-1" d="M440.326,335.88c-1.847,2.198-4.77,3.108-7.526,3.912-3.29,.96-6.579,1.92-9.869,2.88,.006,1.628,.011,3.257,.017,4.885-2.798-1.123-5.596-2.245-8.393-3.368,1.5,1.622,2.999,3.243,4.499,4.865-1.869,1.525-4.984,1.146-6.433-.783-.396-1.157-.791-2.314-1.187-3.471-1.261,2.106-1.461,4.812-.524,7.08-2.14-.096-4.254-.717-6.107-1.791-5.833,1.187-10.867,5.704-12.678,11.375-1.901-3.052-6.602-2.694-9.669-.818s-5.452,4.826-8.752,6.251-8.215,.251-8.694-3.312c.735,.158,1.469,.317,2.204,.475,.363-1.558,2.633-2.242,3.796-1.144,.243-4.221-4.531-7.886-8.546-6.56-2.688-.344-5.376-.689-8.064-1.033-3.391-4.619-9.16-7.386-14.885-7.141,1.414-1.276,2.828-2.552,4.242-3.828-1.141-5.613-2.281-11.226-3.422-16.839,1.624-.966,2.549-2.984,2.223-4.845s-1.884-3.443-3.74-3.798c.626-2.01,2.154-3.719,4.082-4.565-2.878-.15-5.564-2.204-6.46-4.943-.897-2.739,.053-5.984,2.515-7.852-4.059-2.306-6.353-7.357-5.417-11.931-1.953-.501-2.326-3.231-1.546-5.091,.779-1.859,2.268-3.417,2.7-5.386,.463-2.113-.223-4.746,1.417-6.157,2.103-1.808,5.423,.525,8.077-.278,2.253-.681,3.219-3.358,3.351-5.708s-.219-4.823,.748-6.969,4.065-3.533,5.691-1.832c5.994-10.819,11.988-21.638,17.982-32.457,1.118-2.017,2.289-4.097,4.136-5.478s4.573-1.868,6.44-.514c.454-1.562-.502-3.396-2.042-3.919,1.11-.608,2.22-1.216,3.33-1.823-3.804-1.821-.519-8.884-2.171-12.765-2.566-6.029-12.223-6.392-18.924-7.161-.342,.695-1.257,1.019-1.599,1.713l-9.545-.498c-1.646,2.305-3.292,4.609-4.938,6.914-1.525-3.502-5.526-5.742-9.308-5.213,.101,2.201,.201,4.402,.302,6.603l2.757,.617c-3.258,1.652-5.846,4.584-7.08,8.022,.475-1.922-1.477-4.21-3.327-3.504-2.058,.786-1.669,4.156,.197,5.326s4.268,.818,6.436,.425c-7.498,2.742-10.99,13.049-6.704,19.784,.599,.941,1.333,1.846,1.55,2.941,.315,1.589-.527,3.155-1.339,4.557-2.892,4.996-5.832,10.054-9.907,14.144-4.466,4.481-10.719,8.782-10.398,15.1,1.354-2.686-1.273-6.392-4.256-6.004s-4.576,4.64-2.583,6.894c-5.475,1.371-10.393,4.853-13.506,9.56,1.616-.394,3.232-.788,4.848-1.183,.223,2.232-1.078,4.536-3.104,5.498s-4.635,.511-6.221-1.074c-.368,4.015-.737,8.029-1.105,12.044-2.134-.587-4.267-1.173-6.401-1.76-2.259,2.985-.781,7.99,1.636,8.691-.298,5.088-.596,10.177-.895,15.265l-2.457-.042c-.48,8.201-.947,16.552,1.05,24.52,1.177,4.697,3.075,10.107,.194,13.999,1.616-1.417,3.232-2.833,4.848-4.25-.803-1.4-.765-3.453,.566-4.365s3.642,.528,2.985,2.002c-.499-1.599,2.337-2.247,3.481-1.024s1.286,3.085,2.212,4.481c1.031,1.555,2.88,2.327,4.279,3.562s2.275,3.591,.066,4.966c1.27,1.412,2.541,2.825,3.811,4.237,.498-1.878,3.564-1.688,4.601-.045s.667,3.769,.261,5.669c-1.854,.112-3.65,.982-4.889,2.365,1.151,.105,2.303,.209,3.454,.314-4.188,4.349-8.376,8.698-12.563,13.047,1.867,.396,3.734,.793,5.6,1.189-2.194,3.681-4.388,7.362-6.582,11.044-1.375-2.315-2.749-4.629-4.124-6.944-2.092,6.841-7.4,12.622-14.037,15.29,.79,1.653,1.58,3.306,2.369,4.958-1.313-.021-2.626-.042-3.939-.063,1.729,4.51,2.076,9.54,.982,14.245-.756-.252-1.513-.504-2.269-.755-.33,1.839-.659,3.678-.989,5.517l2.712-1.207c-.361,2.943-.722,5.885-1.084,8.828l2.145-.137c.407,3.059-1.924,6.225-4.965,6.745,.038,1.147,.076,2.295,.114,3.442,.732-.193,1.464-.385,2.195-.578-.576,2.067-1.152,4.134-2.364,7.578-.851,8.859-4.624,17.412-10.592,24.013-.943-3.147-6.258-3.472-7.578-.463-2.917-2.432-7.064-3.304-10.714-2.25-.513,1.657-.389,3.503,.343,5.076-2.025-2.599-7.121-.916-7.2,2.378-2.485-.601-3.554,3.178-2.833,5.63s1.826,5.57-.158,7.183c-2.411,1.961-6.14-1.059-9.041,.058-2.794,1.076-3.7,5.572-6.694,5.559-1.82-.008-3.045-1.771-4.467-2.908s-4.233-1.158-4.392,.655c-.784-1.766-.196-4.036,1.346-5.199-1.057-.552-1.75-1.737-1.714-2.929,1.789-.64,3.578-1.28,5.367-1.919-3.609-6.345-7.218-12.689-10.827-19.034,.123,2.375,3.462,3.825,5.281,2.294s.961-5.069-1.358-5.596c2.647-.252,6.147-1.521,5.726-4.147-.17-1.061-.998-1.874-1.759-2.632-6.395-6.377-10.995-14.534-13.142-23.306,1.585-3.882,.601-8.675-2.384-11.619-1.663-1.64-3.831-2.702-5.47-4.366s-2.656-4.374-1.372-6.326c.817-.978,.205-1.818,1.022-2.795-2.196-6.877-3.313-14.097-5.873-20.46l-3.816-1.568c.16-1.004,.32-2.007,.481-3.011l4.284,1.52,.701-1.515c.921-1.99,1.843-3.981,2.764-5.971-1.086,1.301-2.232,2.648-3.792,3.311s-3.657,.393-4.545-1.051c-.675-1.098-.481-2.5-.263-3.771,.671-3.921,1.342-7.843,2.013-11.764,.183-1.07,.299-2.348-.513-3.069-1.386-1.23-3.542,.767-3.527,2.62s1.083,3.578,1.084,5.43-2.198,3.82-3.555,2.558c1.698,3.716,1.329,8.3-.94,11.697-1.348,2.018-3.548,3.69-5.973,3.573s-4.672-2.674-3.821-4.947c-4.741,5.679-9.481,11.358-14.222,17.037-2.142,2.566-4.331,5.173-7.147,6.973-2.817,1.8-6.412,2.696-9.55,1.545-4.891,4.366-12.436,3.039-18.796,1.449-1.767-.442-3.591-.911-5.031-2.027s-2.398-3.068-1.802-4.79c1.354-.214,2.708-.427,3.689-1.171-5.531-.272-10.828-3.515-13.586-8.317s-2.89-11.011-.338-15.926c.521,1.436,1.091,2.944,2.274,3.911s3.181,1.109,4.097-.113c1.241-1.657-1.5-4.241-3.081-2.904-.457-.892,.29-2.142,1.293-2.163-1.268,.375-2.634,.749-3.887,.328s-2.187-2.006-1.455-3.107c.948-1.424,3.174-.576,4.512,.491s3.24,2.268,4.567,1.188c1.732-1.409-.364-4.169-2.494-4.839-4.857-1.529-10.613,.552-13.37,4.832-1.698-5.511,1.341-12.062,6.645-14.325,1.582-.675,3.304-1.001,4.842-1.77s2.944-2.156,3.034-3.874-1.758-3.441-3.324-2.728c-2.31,3.145-5.601,5.557-9.296,6.813,.452-4.077,2.965-7.872,6.541-9.881-1.212,.453-2.525,.913-3.772,.566s-2.216-1.896-1.496-2.971c.587-.877,1.823-.918,2.846-1.174s2.12-1.324,1.549-2.211c-4.311-.128-7.617-5.293-5.927-9.261,.8,.189,1.599,.379,3.342-.784-1.473-3.286-1.439-7.213,.091-10.473,.682,.758,1.365,1.516,2.047,2.273,.63-1.668,1.261-3.536,.581-5.184s-3.36-2.372-4.203-.8c-1.177-.702-1.68-2.346-1.096-3.586,.584-1.24,2.171-1.9,3.462-1.44,1.573,.561,2.317,2.351,3.647,3.36s4.069,.082,3.343-1.421c-3.491,.626-6.606-3.975-4.729-6.984,.818-1.311,2.233-2.13,3.205-3.331,2.57-3.175,.696-8.777-3.267-9.767,1.495-3.981,6.663-6.094,10.519-4.301-1.37-.669-2.683-1.666-3.217-3.095s.006-3.321,1.431-3.864,3.267,1.045,2.625,2.428c.557,1.381,2.801,.013,2.804-1.476s-.898-2.977-.458-4.4c.455-1.468,2.489-2.163,3.747-1.279s1.294,3.033,.067,3.959c.704,.642,1.942,.558,2.552-.174s.471-1.965-.287-2.542c1.721-.05,3.442-.101,5.162-.151-1.846,.192-3.788-1.318-3.779-3.173s2.327-3.358,3.914-2.396,1.006,3.994-.846,4.099c2.82,.714,6.002-.273,7.923-2.457-1.497,.31-3.198,.119-4.316-.925s-1.328-3.071-.159-4.056,3.433,.011,3.198,1.522c-.435,.454-.869,.908-1.304,1.362,1.993-.199,3.985-.398,5.978-.597l-.785-2.14c1.493-1.519,4.283-1.446,6.007-.894l-1.161-4.094c2.443-.134,4.92,.428,7.065,1.605-.061-.89,.579-1.779,1.443-2.002s1.855,.243,2.233,1.052c.789-1.72,1.805-3.636,3.643-4.087,.881-.216,1.834-.048,2.692-.341s1.543-1.429,.925-2.093c-.514-.235-1.028-.47-1.543-.704,.911,.231,1.862,.463,2.78,.263s1.785-.974,1.757-1.913c-.029-.973-.924-1.652-1.611-2.341s-1.214-1.88-.525-2.568c.99-.99,2.873,.523,4.024-.274,.803-.556,.568-1.907-.198-2.513s-1.813-.676-2.788-.722c1.264-1.704,3.058-3.009,5.069-3.687-.838,.097-1.311-1.184-.742-1.806s1.646-.512,2.287,.036,.934,1.397,1.115,2.221,.283,1.68,.656,2.436c.852,1.726,3.194,2.525,5.159,1.825,.35,1.659,.701,3.318,1.051,4.976,2.644-1.597,4.103-4.942,3.474-7.966,3.601,.552,7.251-2.853,6.95-6.484-1.518-.182-3.035-.364-4.553-.546,7.186-.856,11.162-11.706,18.266-10.325-.014-1.119-.028-2.239-.042-3.358,3.117-.909,5.941-2.8,7.969-5.336-1.13-1.94-3.874-1.856-6.111-2.052s-4.974-1.993-4.071-4.048c.692-1.575,3.003-1.612,4.514-.789s2.69,2.213,4.292,2.839,3.956-.091,4.014-1.81c-1.242,1.32-3.811,.855-4.511-.817s.77-3.829,2.582-3.788c.9,.02,1.729,.478,2.615,.637,3.853,.692,6.27-4.024,7.008-7.869,.738-3.844,1.975-8.655,5.836-9.295-1.821-.521-3.642-1.041-5.462-1.562,.736-1.04,.51-.992,1.247-2.031,0,0,2.976-11.258,7.925-14.245-.028,1.752-.641,3.489-1.719,4.87,3.623-.409,6.662-3.798,6.676-7.443-3-.843-3.859-5.555-1.35-7.403,.755,.702,1.511,1.403,2.266,2.105,.122-1.479,.244-2.958,.366-4.437,1.55-.573,3.093,1.846,1.919,3.01,2.055-5.844,5.904-11.044,10.893-14.717,1.926-1.286,.966-4.954-1.344-5.131,.536-1.319,1.073-2.638,1.609-3.957,1.868-.257,3.365,2.348,2.202,3.833,2.79,.558,5.502-2.781,4.384-5.397,1.826,.166,3.652,.332,5.478,.497-2.172-.844-4.345-1.687-6.517-2.531,1.558-1.74,2.194-4.262,1.649-6.533,1.402-.684,3.053-.453,4.603-.277s3.259,.241,4.514-.685,1.492-3.221,.081-3.886c-1.529-.721-3.041,.952-3.982,2.356s-2.755,2.9-4.09,1.864c1.309-4.288,6.131-7.174,10.528-6.302,.901-.07,1.802-.14,2.703-.21-1.731-.627-2.805-2.676-2.336-4.457,3.684,1.081,6.025,5.458,4.879,9.123,.61-1.448,1.221-2.895,1.831-4.343-1.157-1.447-2.314-2.893-3.47-4.34,1.322,.808,3.167-.657,3.066-2.203s-1.566-2.724-3.086-3.023c-1.52-.3-3.083,.074-4.587,.445,.695,1.671-.778,3.82-2.587,3.776s-3.174-2.264-2.398-3.898c-1.163,1.356-2.326,2.712-3.489,4.068-1.06-.345-2.12-.691-3.18-1.036l1.612,4.005c-3.477-1.101-7.479-.371-10.343,1.887-.859-.688-1.718-1.377-2.577-2.065-.632,1.247-1.263,2.494-1.895,3.741-4.101,.765-7.757,3.61-9.507,7.397-.594,.717-1.189,1.434-1.783,2.15-.627-4.287,.705-8.822,3.55-12.09,1.466,.09,2.932,.181,4.398,.271-.519-1.909,.287-4.104,1.916-5.225s3.968-1.087,5.565,.08l-.76,.011c2.394-.805,4.787-1.61,7.181-2.416,1.621-1.033,2.565-3.038,2.327-4.945,1.151,.526,2.58-.972,2.001-2.097-1.106,1.603-3.712,1.86-5.11,.505s-1.221-3.968,.346-5.123,4.115-.549,4.995,1.188c.748-.778,.854-2.093,.239-2.98s-1.882-1.251-2.874-.825c.099-2.214,2.579-3.978,4.703-3.345,.676,.202,1.334,.603,2.033,.507,.645-.089,1.149-.581,1.604-1.046,3.063-3.136,6.127-6.273,9.19-9.409,1.073,1.494,.851,3.58,.137,5.275s-1.855,3.183-2.582,4.872c-1.361,3.159-1.132,6.957,.598,9.929,.111-1.99,.237-4.043,1.117-5.832,.88-1.789,2.719-3.262,4.704-3.08s3.62,2.568,2.614,4.289c-.44,.752-1.266,1.263-1.549,2.087s.715,1.964,1.324,1.341c.866-1.554,1.732-3.107,2.598-4.661,1.413,.311,2.956,.504,4.251-.141,1.294-.645,2.091-2.44,1.228-3.602-1.716-2.312-6.589,.75-7.905-1.811,5.402-2.216,2.815-12.065,7.972-14.802,1.26-.669,3.154-.529,3.728,.777,.357,.811,.088,1.806,.492,2.595s2.07,.52,1.668-.27l.41,.741c-.535-1.388-1.069-2.777-1.604-4.165,.684-1.739,2.384-3.033,4.242-3.23-1.18-1.025-1.405-2.976-.49-4.243,.915-1.267,2.838-1.666,4.182-.868-1.779-1.764-1.729-5.021,.104-6.728-1.774,.902-4.198-1.037-3.708-2.965s3.547-2.473,4.674-.833c.059,1.396,.118,2.791,.176,4.187,1.717-2.205,3.434-4.41,5.151-6.615l-.051,4.293c.825-1.809,1.651-3.617,2.476-5.426,.655-.981,2.201-1.204,3.107-.447s.962,2.317,.113,3.137c.813-1.119,1.626-2.239,2.439-3.358,1.739,.028,2.197,3.083,.543,3.62,.07,.72-1.204,1.011-1.454,.332-.292,4.193-1.388,8.328-3.211,12.115,.99-1.674,2.06-3.427,3.769-4.354,1.709-.927,4.246-.623,5.09,1.129,1.069-.853,.792-2.584,.059-3.738s-1.822-2.116-2.221-3.423,.445-3.121,1.8-2.936c2.239,.305,1.103,4.372,2.963,5.655,1.009,.697,2.363,.207,3.583,.079,4.001-.418,7.108,3.26,9.421,6.551-.607-3.025-1.214-6.051-1.821-9.076-2.993,.883-6.728-.305-7.932-3.183s1.429-6.817,4.478-6.153c.991,1.064,1.982,2.128,2.973,3.192,.465-.45,.93-.901,1.395-1.351-.429,1.699,1.412,3.514,3.105,3.061s2.381-2.946,1.16-4.203c.669-.063,1.339-.126,3.203-.302,.102-2.921,3.5-5.204,6.242-4.195-.027-.788,.246-1.583,.752-2.188-.365-1.669-.601-3.519,.256-4.997,.857-1.478,3.245-2.093,4.267-.724,.333,.445,.468,1.017,.818,1.449,1.051,1.298,3.638-.097,3.13-1.688-2.102-.781-3.062-3.686-1.839-5.566-1.252,.358-2.627,.449-3.834-.04s-2.191-1.651-2.203-2.953c-.011-1.302,1.165-2.573,2.459-2.429s2.127,1.948,1.246,2.906c1.664-.274,3.427,.098,4.838,1.023-1.559-2.562,.803-6.452,3.795-6.25,.191,1.833,.382,3.665,.573,5.498l1.905-.23c.308,1.162,.615,2.325,.923,3.487-.395-2.296-.781-4.716,.012-6.907,.793-2.191,3.214-3.977,5.418-3.221,1.852,.636,3.262,2.861,5.173,2.432,.038,1.261-1.331,2.113-2.579,2.3s-2.571,.001-3.738,.481-2.01,2.085-1.147,3.005c1.336-.198,2.672-.396,4.007-.594-3.953,7.501-6.362,15.812-7.034,24.265,4.693-6.747,8.225-14.299,10.393-22.226,.402-1.471,.772-2.987,1.614-4.259,.841-1.272,2.278-2.274,3.797-2.134-3.704,4.656,1.088,11.923-1.165,17.775,3.501-2.415,6.051-6.173,7.002-10.318,.414-1.802,.503-3.809-.461-5.386-.523-.856-1.345-1.569-1.559-2.55-.387-1.772,1.337-3.231,2.854-4.225,2.903-.743,5.882-1.189,8.875-1.329,.523,.775,1.045,1.551,1.568,2.326-.342-.254-.868,.197-.771,.612s.586,.637,1.01,.586,.792-.303,1.141-.547c.865,.918,.084,2.507-1.028,3.103-1.112,.596-2.446,.645-3.582,1.195s-2.04,2.031-1.294,3.049c.843,1.151,2.887,.585,3.841,1.645,.859,.955,.246,2.451-.361,3.583s-1.107,2.712-.131,3.547c.762,.652,2.036,.31,2.636-.494s.66-1.891,.519-2.884-.458-1.959-.528-2.959c-.19-2.739,1.498-5.272,3.484-7.169,.619-.591,1.313-1.165,2.152-1.334s1.845,.21,2.112,1.023c.226,.688-.122,1.435-.055,2.156s1.095,1.369,1.646,1.246c1.292-.799,2.927-1.021,4.385-.596s2.717,1.492,3.377,2.86c.192,.398,.35,.839,.698,1.11,.652,.508,1.582,.185,2.396,.041,1.411-.249,2.849,.127,4.232,.499,.815,.22,1.645,.446,2.354,.904s1.291,1.194,1.346,2.037c.082,1.243-.951,2.267-1.992,2.951-1.041,.684-2.235,1.282-2.822,2.381-.584,1.095-.453,2.51-1.209,3.493-.586,.762-1.597,1.09-2.558,1.108s-1.904-.227-2.849-.406c-3.03-.573-6.187-.458-9.167,.334-.721,.192-1.564,.578-1.621,1.322-.073,.95,1.138,1.391,2.082,1.523,1.825,.256,3.649,.512,5.474,.768,1.081,.152,2.346,.437,2.769,1.444,.201,.478,.158,1.026,.329,1.516s.739,.928,1.2,.876c5.816-1.152,12.201-2.224,17.389,.646,0,0-.477,4.779-2.526,6.034s-5.118,.249-6.025-1.976c-4.268,6.941-8.026,15.154-12.294,22.095,0,0,3.83,3.175,5.745,5.106-4.533,1.6-5.732,7.542-2.787,11.341,2.945,3.8,7.739,5.533,12.01,7.74s8.6,5.692,8.943,10.487c.455,6.358-6.262,11.31-6.56,17.677-.311,6.65,6.137,11.269,10.492,16.305,4.479,5.18,7.126,11.913,7.374,18.756,.12,3.315-.301,6.665,.262,9.934,.563,3.269,2.397,6.602,5.522,7.714-2.175-1.078-4.685,1.634-4.334,4.037s2.403,4.16,4.417,5.515,4.243,2.657,5.341,4.822c.99,1.953,.886,4.303,1.774,6.305s3.719,3.485,4.388,2.218c2.517,.28,3.281,3.71,2.543,6.132s-2.316,4.714-2.067,7.234c.289,2.937,2.916,5.006,5.323,6.713,7.512,5.329,15.024,10.657,22.536,15.986-1.929-2.368-5.951,.647-5.938,3.701s1.993,5.754,2.524,8.761c.821,4.655-1.886,9.127-4.478,13.081-8.759,13.363-17.518,26.727-26.277,40.09-3.532,5.388-7.18,11.243-7.18,11.243Z"/><path class="cls-1" d="M178.367,391.333s4.88,5.244,7.555,5.249c3.243,.007,5.805-3.108,6.336-6.308s-.455-6.435-1.43-9.528c1.169,1.317,3.279-.689,3.199-2.448s-1.046-3.553-.418-5.198c.656-1.718,2.677-2.366,4.357-3.113,7.941-3.529,11.582-14.376,7.378-21.981-1.083-1.96-2.589-3.697-3.377-5.793s-.632-4.809,1.163-6.147,5.108,.16,4.613,2.343c4.298-3.609,4.614-10.994,.641-14.957-1.638-1.634-3.84-2.718-5.126-4.641-3.653-5.464,2.263-12.196,3.333-18.681,1.347-8.163-5.343-15.961-4.36-24.175,.283-2.36,1.191-4.594,2.091-6.794,1.801-4.404,3.602-8.807,5.403-13.211,1.811-4.428,5.475-9.779,9.998-8.217,3.405,1.176,4.528,5.712,7.752,7.321,4.747,2.368,10.089-4.066,8.623-9.165-1.466-5.099-6.756-8.066-11.819-9.651,2.855-3.5,5.709-7,9.626-11.276,4.706-11.333,6.659-23.798,5.645-36.027,1.716,2.578,5.767,2.578,8.284,.773s3.833-4.818,4.89-7.73,2.029-5.977,4.145-8.238c2.188-2.337,5.532-3.751,6.711-6.727,.815-2.057,.374-4.362,.224-6.57-.602-8.819,3.609-17.171,7.704-25.005,3.776,1.084,7.552,2.168,9.792,3.382,2.734-5.271,3.474-11.547,2.042-17.31,4.319,1.105,8.875,1.27,13.263,.48,.471,3.325,4.746,5.444,7.678,3.805s3.366-6.39,.78-8.533c2.352,1.279,4.124-2.76,3.206-5.274s-2.733-5.369-1.214-7.573c1.011-1.467,3.409-1.681,4.664-.417s3.37,4.062,1.896,5.062"/><path class="cls-1" d="M401.039,96.14c3.306-5.4,5.041-14.15,.496-18.559-2.731-2.649-5.844-3.062-9.425-4.35-3.58-1.287-6.804-5.843-4.23-8.645-3.524,.049-6.675,3.332-6.579,6.855-4.847-1.945-10.407,1.994-12.262,6.876s-1.102,10.307-.582,15.504,.682,10.81-2.111,15.222c-1.658,2.619-4.556,4.672-7.649,4.467-3.916-.26-7.099-3.933-11.021-3.781-5.066,.197-8.479,6.638-13.532,6.22-3.411-.282-5.704-3.635-6.881-6.849-1.177-3.214-1.854-6.789-4.217-9.266s-7.29-2.84-8.686,.285c2.083,2.889-.477,8.862-.477,8.862,7.147,3.678,12.004,8.215,19.151,11.894,5.046,2.597,10.449,5.558,12.773,10.736,1.205,2.684,1.435,5.687,1.649,8.621,.113,1.549,.226,3.098,.339,4.647,.105,1.439,.227,2.935,.951,4.184,.703,1.211,1.93,2.105,2.405,3.423,.883,2.449-1.186,5.113-.704,7.671,.384,2.039,2.237,3.404,3.536,5.022,3.481,4.337,2.957,9.062,3.11,14.62,.153,5.559,6.207,15.116,6.207,15.116"/><path class="cls-1" d="M124.406,512.604c-1.863-.973-1.79-4.215,.224-4.816-1.682-1.064-4.233,.943-3.595,2.828-2.284-4.142,1.751-10.106,6.445-9.527-.259-2.581-.519-5.162-.778-7.743-1.475,1.067-2.949,2.133-4.424,3.2-.065-1.845-.13-3.69-.194-5.535-5.172-2.311-4.103-11.648,1.458-12.731-.701-6.787-1.403-13.574-2.104-20.36l8.076,6.881c1.336-1.838,2.671-3.676,4.007-5.515l-6.063,1.063c-1.339-2.826-2.678-5.651-4.017-8.477,16.607-3.502,32.035-12.38,43.408-24.978,4.454,4.395,2.729,11.979-.373,17.413s-6.552,7.588-6.475,13.844c.077,6.257,7.385,12.679,11.681,8.129,.887,6.655-3.723,9.912-5.584,13.579-1.491-1.539-2.982-3.078-4.474-4.617-4.432,3.069-6.261,9.393-4.151,14.353-3.817-.316-7.635-.633-11.452-.949,.156,2.374,.312,4.749,.468,7.123,4.972-4.699,14.37-2.976,17.351,3.182,1.448-.069,2.895-.137,4.343-.206-3.18,1.812-2.737,7.462,.687,8.757-.871,4.836-3.507,9.335-7.301,12.459-.213-2.366-.427-4.732-.64-7.099l-3.675,2.483c-7.705-4.044-12.83-12.582-12.776-21.284-3.781,6.249,.13,14.163,2.159,18.259,0,0-2.339,.202-3.597-.501-1.533-.857-3.429-.185-5.074,.43s-3.654,1.112-5.025,.015c-.545-.436-.903-1.073-1.451-1.506-1.246-.984-4.564,2.166-5.36,2.48,0,0-1.374-.454-1.721-.636Z"/><path class="cls-1" d="M178.8,444.444c-2.814-.513-5.726-.484-8.529,.086-.043,1.284-.086,2.568-.129,3.852,3.038,.007,6.072-.921,8.585-2.628-.011-.541-.023-1.081,.073-1.31Z"/><path class="cls-1" d="M182.303,483.918c-2.364,2.481-5.664,4.048-9.08,4.312-1.24,.096-2.794,.225-3.226,1.391-.326,.881,.252,1.849,.96,2.467s1.576,1.072,2.131,1.831c1.068,1.461,.632,3.474,.373,5.264s-.055,4.031,1.585,4.796c2.066,.964,4.665-1.277,6.669-.191,1.756,.951,1.511,3.507,1.017,5.441-.519,2.036-1.576,4.518-3.677,4.522-1.87,.003-3.124-2.07-4.954-2.456-1.387-.292-2.824,.485-3.717,1.586s-1.35,2.483-1.789,3.83c1.662-.464,3.552-.002,4.811,1.178s1.845,3.034,1.492,4.723c2.527-2.813,5.632-5.103,9.064-6.688-.244,.833-.49,1.699-.354,2.556s.77,1.701,1.634,1.779c1.085,.098,1.877-.943,2.562-1.789,2.553-3.153,6.68-4.961,10.728-4.701-2.788-2.909-8.078-2.817-10.764,.185,.608-2.405,1.215-4.81,1.823-7.214,.165-.653,.365-1.36,.909-1.758,1.379-1.007,3.747,.719,4.889-.551,.644-.717,.303-1.896-.337-2.618s-1.519-1.208-2.113-1.968c-1.124-1.438-.857-3.763,.563-4.909s3.749-.915,4.917,.488c.025-.303,.05-.606,.076-.909-.061,.978-.121,1.955-.182,2.933,.746,.575,1.939-.064,2.182-.974s-.197-1.868-.774-2.612-1.305-1.375-1.786-2.184c-1.881-3.168,.598-7.783-1.643-10.707-1.518-1.98-4.712-2.055-6.736-.598s-2.994,4.024-3.178,6.511c-.069,.931-.054,1.909-.487,2.736s-1.52,1.409-2.32,.928c-1.031-.618-.682-2.156-.371-3.318s.005-2.899-.895-3.315Z"/><path class="cls-3" d="M240.889,507.936c-1.959-.626-4.144-.513-6.029,.31,.654,1.427,1.322,2.875,2.356,4.056s2.506,2.075,4.075,2.047,3.152-1.188,3.315-2.748c.14-1.338-.754-2.613-1.895-3.325s-2.498-.972-1.823-.34Z"/></svg>