<?xml version="1.0" encoding="UTF-8"?><svg id="south" xmlns="http://www.w3.org/2000/svg" width="549.066" height="535.339" viewBox="0 0 549.066 535.339"><defs><style>.cls-1{fill:#fce7b1;}.cls-1,.cls-2,.cls-3,.cls-4,.cls-5,.cls-6,.cls-7,.cls-8,.cls-9,.cls-10,.cls-11{stroke:#efedeb;stroke-miterlimit:10;}.cls-2{fill:#ffebba;}.cls-3{fill:#ffeab5;}.cls-4{fill:#ffe9b3;}.cls-5{fill:#ffedbf;}.cls-6{fill:#ffe28c;}.cls-7{fill:#e3d4ac;}.cls-8{fill:#f0ddaf;}.cls-9{fill:#f7e4b5;}.cls-10{fill:#f7e3b0;}.cls-11{fill:none;}</style></defs><path class="cls-6" d="M257.082,61.298c-9.956-.572-19.807-2.924-28.948-6.91-4.18-1.823-10.051-4.211-12.851-.611-2.507,3.224-1.044,9.353-4.898,10.705-1.64,.575-3.431-.185-4.936-1.053s-3.05-1.896-4.787-1.887-3.64,.572-3.04,2.202c-.431-2.591-2.917-3.96-2.917-3.96-.678,.922-.242,1.527-1.415,2.178s-2.591,.578-3.929,.671-2.825,.481-3.489,1.647c-.641,1.127-.278,2.576-.731,3.791-.75,2.011-3.298,2.578-5.443,2.654s-4.6,.093-5.997,1.722c-3.238,3.774,3.37,9.902,.873,14.202,2.09-.033,3.619,2.722,2.486,4.478s-4.274,1.498-5.105-.42c-.489-1.129-.221-2.434-.426-3.647s-1.365-2.496-2.492-2.001c-.74,.325-1.009,1.23-1.582,1.801-1.15,1.147-3.116,.652-4.512-.179s-2.779-1.965-4.402-1.896-2.989,2.372-1.666,3.314c-1.29,1.223-3.339,1.105-5.058,.65s-3.458-1.174-5.212-.886-3.388,2.18-2.607,3.777c-2.91-.645-5.994,.217-8.908-.411-1.518-.327-2.919-1.045-4.301-1.756-3.063-1.576-6.125-3.152-9.188-4.728,.986,2.792,1.496,6.773-1.237,7.915-1.897,.793-4.037-.583-5.26-2.236s-2.117-4.737-3.668-6.087-5.226-.08-5.226-.08c-1.156-2.872-5.528-4.149-8.572-4.712-4.189-.775-8.378-1.551-12.568-2.326,.626-.12,1.252-.24,1.879-.36,.687,2.838-1.802,5.661-4.624,6.41s-5.802-.011-8.609-.812-8.88-2.22-8.88-2.22c-.124,.997-.625,2.737-.697,3.739-4.095-1.517-8.191-3.034-12.286-4.551,.701,6.87-5.849,12.047-11.652,15.791-5.802,3.744-12.34,8.953-11.595,15.818l2.792,.131c-3.045,.534-5.729,2.789-6.78,5.696,1.234,1.61,3.875,1.027,5.42-.287s2.631-3.181,4.406-4.162c2.887-1.595,6.689-.211,8.865,2.268s1.759,8.149,2.634,11.329c-1.016,2.727-2.256,3.163-5.089,2.905,2.419,1.589,4.907,3.245,6.5,5.662s2.067,5.818,.344,8.144c-1.545,2.086-4.316,2.753-6.844,3.347s-5.297,1.445-6.605,3.688,.39,5.986,2.92,5.402c1.248-1.841,4.489-.735,5.198,1.372s-.29,4.393-1.46,6.284-2.578,3.776-2.777,5.991c-.302,3.378,2.442,6.427,5.615,7.623,3.173,1.196,6.681,.966,10.064,.72-4.448,2.404-5.892,11.64-5.892,11.64,2.295-.072,7.751-.704,9.791-1.758,.987-.51,1.743-1.366,2.467-2.208,3.019-3.51,6.023-7.213,10.093-9.421,4.07-2.208,9.567-2.531,13.015,.559,.618,.554,1.163,1.208,1.885,1.619,.601,.343,1.287,.497,1.951,.694,3.222,.957,6.091,3.06,7.973,5.845,5.8,1.251,10.688,4.517,14.017,8.973-.52,2.883-.066,7.227,1.468,11.156,.648,1.659,1.486,3.251,1.941,4.973s.486,3.654-.424,5.185c-.595,1.001-1.601,2.117-1.049,3.143,.762,1.414,3.065,.304,4.488,1.049,.973,.51,1.264,1.733,1.541,2.796,1.187,4.549,4.024,8.648,7.864,11.36-.387,1.381-1.572,2.506-2.971,2.821l.588,1.624c3.002-1.89,7.117-.987,9.915,1.195,2.798,2.181,4.576,5.384,6.279,8.497,8.562,3.829,11.08,15.308,19.028,20.289,1.765,.265,3.11,.202,4.455,.139-.057,2.412,.625,4.837,1.932,6.866,1.304-1.678,2.694-3.424,4.65-4.255s4.639-.365,5.561,1.549c.552,1.145,.368,2.519,.805,3.713s2.152,2.09,2.926,1.082c-.533-.894-1.081-1.835-1.131-2.875s.583-2.192,1.612-2.347c.762-.115,1.497,.329,2.069,.845,2.24,2.021,2.989,5.16,4.223,7.913s3.635,5.537,6.638,5.249c2.968-.106,5.021,4.144,3.014,6.287-.45-1.298-2.115-2.011-3.365-1.443s-1.808,2.291-1.126,3.484c2.639-1.154,5.348-2.326,8.223-2.498s6,.859,7.561,3.281c1.432,2.222,1.289,5.083,2.092,7.602s3.613,4.921,5.888,3.574c-.512,1.065-1.025,2.129-1.537,3.194,2.271,2.841,7.103-.4,10.43,1.07,1.927,.852,2.808,3.046,3.506,5.033,3.15,8.972,6.299,17.944,9.449,26.916,.399,1.137,.8,2.38,.41,3.52-.465,1.358-1.918,2.125-3.319,2.436s-2.873,.305-4.229,.775-2.642,1.622-2.621,3.057,2.025,2.571,2.991,1.509c.342,4.761-3.297,9.485-7.988,10.369-.262,4.99,5.982,9.001,10.412,6.689,.92-4.86,4.422-9.154,8.998-11.033,1.488-.611,3.252-1.134,3.907-2.603,.813-1.822-.595-3.811-.933-5.777-.552-3.22,1.999-6.321,5.035-7.527s6.427-.976,9.684-.727c.349-3.543,.691-7.175-.211-10.619s-3.321-6.718-6.769-7.606c-2.427-.625-5.386-.158-7.094-1.993-2.077-2.231-.553-5.814,1.039-8.414,3.131-5.114,6.262-10.228,9.393-15.342,.96-2.736,4.028-3.341,5.906-2.226s2.901,3.2,4.099,5.026,2.972,3.627,5.155,3.551c1.872-.064,3.617-1.525,5.442-1.106,1.403,.322,2.341,1.687,2.742,3.069s.406,2.85,.717,4.255c.97,4.386,5.239,7.804,9.73,7.793,.795-.002,1.796-.291,1.881-1.082,.064-.597-.456-1.075-.724-1.612-1.1-2.209,2.073-4.16,2.676-6.552,.7-2.777-2.132-5.008-4.304-6.874-2.741-2.355-4.893-5.326-7.596-7.724s-6.26-4.252-9.822-3.642c-13.505-9.689-26.942-18.007-40.378-26.326,2.1-.377,4.254-.774,6.08-1.877s3.283-3.083,3.137-5.212-2.379-4.053-4.402-3.373c-1.934,.649-3.019,3.218-5.059,3.216-1.274-.001-2.388-1.29-2.204-2.551-1.558,2.911-4.418,5.093-7.637,5.827-13.141-9.499-26.995-19.918-32.447-35.189-1.896-5.31-2.698-11.054-5.45-15.975-3.746-6.698-10.563-10.975-16.883-15.329-4.625-3.186-9.582-7.422-9.536-13.037,.006-.786,.102-1.633-.308-2.304-.559-.915-1.783-1.098-2.846-1.233s-2.298-.451-2.695-1.447,1.199-2.197,1.709-1.254c1.337-4.37,5.25-7.843,9.748-8.652-1.925-1.742-3.894-3.539-5.061-5.859s-1.369-5.312,.186-7.391c1.436-1.92,3.946-2.624,6.271-3.208,4.554-1.145,9.107-2.291,13.661-3.436-1.279-2.515,1.531-4.929,3.249-3.651-.161,1.387,.567,2.837,1.775,3.536,.721-2.362,3.737-3.702,5.972-2.652s3.133,4.225,1.776,6.289-4.627,2.5-6.477,.864c.008,8.002,3.772,15.921,9.972,20.979,.047-2.536,.093-5.073,.14-7.609,1.352,.678,2.704,1.356,4.056,2.034,2.448-1.635,.436-5.653,1.64-8.34,.771-1.721,2.869-2.583,4.736-2.315s3.491,1.464,4.715,2.898c3.159,3.699,3.973,8.778,5.075,13.515s2.934,9.806,7.146,12.239c1.76,1.017,3.802,1.479,5.542,2.53s3.208,3.039,2.69,5.005c-1.347-1.579-2.802-3.23-4.784-3.846s-4.594,.33-4.97,2.371c-.281,1.528,.728,2.964,1.682,4.19,2.759,3.547,5.517,7.093,8.276,10.64,.374-1.992,.954-2.769,1.772-3.222s1.947-.489,2.608,.173c.508,.508,.622,1.278,.711,1.991,.358,2.891,.716,5.783,1.073,8.674,1.477-.628,2.953-1.257,4.43-1.885,3.83-1.078,7.33,.034,10.04,2.172-.686,2.252-3.545,3.216-5.827,2.635s-4.097-2.259-5.808-3.878c.086,3.424,4.389,5.945,7.418,4.346-1.349,1.283-2.697,2.567-4.046,3.85,6.538,1.278,13.075,2.556,19.613,3.834-2.539-3.32-6.564-5.456-10.737-5.698,2.051-.012,3.648-2.49,2.812-4.363,3.789,3.97,8.078,7.462,12.734,10.367-2.34,.666-4.838,.765-7.223,.287-3.664,.521-7.328,1.042-10.992,1.563,4.112,1.141,8.224,2.282,12.336,3.423-.548-1.122-1.096-2.244-1.644-3.366,3.705-.924,7.919,.902,9.78,4.237-1.634-.32-3.267-.64-4.901-.96,2.098,4.158,7.446,6.346,11.856,4.851-.723-.898-2.01-2.079-2.733-2.977,6.051,2.364,11.884,4.293,17.208,8.015,0,0-14.051-12.385-26.1-25.221-7.476-7.964-14.964-15.942-21.703-24.539-3.15-4.019-3.027-9.298-5.833-13.564-1.051-1.599-5.215-2.177-5.335-4.087s1.051-4.041,2.946-4.307c-2.411,.085-3.38-3.731-1.566-5.322s4.804-.98,6.563,.672,2.592,4.036,3.363,6.323c1.893-2.678,3.787-5.356,5.68-8.034,2.895,.552,5.79,1.104,8.685,1.656,5.483,1.046,10.967,2.091,16.45,3.137,1.763,.336,3.57,.673,5.341,.383,1.599-.262,3.069-1.02,4.615-1.504,5.285-1.655,11.496,.246,14.951,4.575,1.125,1.41,2.045,3.102,3.647,3.931s4.148,.052,4.157-1.752c-2.717-1.578-1.631-6.653,1.494-6.981,1.916-.201,4.459,.813,5.4-.868,.828-1.479-.97-3.19-2.657-3.354s-3.41,.457-5.065,.089c-3.696-.821-4.626-5.615-4.558-9.4s-.13-8.454-3.532-10.114c-4.219-2.059-8.479,2.545-12.91,4.095-6.912,2.419-17.071-6.625-19.342-7.811s-3.808-3.467-5.712-5.201c-6.493-5.913-18.05-16.944-18.05-16.944,5.041-5.258,7.667-10.312,5.656-17.313,1.731,.858,4.115-.16,4.691-2.004s-.802-4.039-2.714-4.32c-1.185-.174-2.632,.208-3.418-.696-1.215-1.397,1.202-3.365,2.99-2.884s3.158,2.035,4.968,2.425c3.266,.704,6.082-2.775,6.475-6.092,.478-4.027-1.228-7.941-2.384-11.828-1.156-3.887-1.441-7.926,1.047-11.128"/><path class="cls-6" d="M341.439,356.076c-1.909,1.646-3.818,3.292-5.726,4.938-.485,.419-1.015,.937-.969,1.576,.056,.786,.92,1.216,1.659,1.489,2.227,.823,4.454,1.647,6.681,2.47,.945,.349,2.091,.672,2.884,.051,.674-.528,.763-1.546,.488-2.357s-.832-1.488-1.286-2.214-.82-1.582-.644-2.42c.114-.543,.446-1.019,.571-1.559,.282-1.217-.643-2.51-1.844-2.852s-2.535,.142-1.815,.877Z"/><path class="cls-6" d="M343.224,371.696l-1.936,2.204c1.068,2.327,3.564,3.607,5.936,4.572,1.267,.515,2.882,.933,3.868-.015,.94-.903,.619-2.584-.33-3.478s-2.299-1.192-3.586-1.402-2.632-.39-3.952-1.881Z"/><path class="cls-9" d="M399.238,415.908c-1.28-.183-2.56-.366-3.84-.549,.293,2.126,.89,4.21,1.768,6.168,.321,.717,.787,1.501,1.562,1.631,.969,.162,1.76-.813,2.041-1.754,.607-2.037-.186-4.415-1.531-5.496Z"/><path class="cls-6" d="M410.65,372.072c-1.434,.42-2.796,1.085-4.009,1.959,.129,1.032,.711,2.036,1.635,2.513s2.18,.32,2.846-.479c.533-.639,.615-1.594,.271-2.351-.344-.757-1.074-1.308-.743-1.642Z"/><path class="cls-6" d="M441.679,398.661c-.894,.73-1.546,1.706-2.216,2.646-.67,.94-1.394,1.88-2.375,2.488s-2.281,.826-3.291,.268-1.496-2.032-.79-2.945c.686-.888,2.024-.884,2.983-1.467,.666-.405,1.117-1.075,1.63-1.663s1.176-1.138,1.956-1.152,1.571,.787,2.104,1.826Z"/><path class="cls-6" d="M440.066,390.918c-.396-.452-1.22-.269-1.523,.25s-.166,1.203,.176,1.696,.855,.837,1.355,1.168c.554,.367,1.126,.742,1.777,.875s1.409-.033,1.795-.574c.526-.738,.115-1.84-.624-2.365s-1.687-.627-2.957-1.049Z"/><path class="cls-6" d="M435.488,385.605c-.597,.805-1.195,1.61-1.792,2.415,.313,.853,1.311,1.389,2.195,1.18s1.535-1.137,1.433-2.039-.946-1.66-1.836-1.555Z"/><path class="cls-6" d="M433.392,379.149c-.811,1.227-1.422,2.587-1.801,4.008,.794,.707,2.099,.751,2.939,.099s1.119-1.928,.629-2.872-1.641-1.424-1.767-1.235Z"/><path class="cls-6" d="M429.523,372.355c-.892,1.16-1.59,2.469-2.057,3.856,1.405,.797,3.415,.211,4.172-1.216,.521-.982,.266-2.481-.797-2.806-.616-.189-1.299,.084-1.768,.527s-.766,1.032,.449-.361Z"/><path class="cls-6" d="M439.62,373.53c-1.106-.14-2.538,.116-2.795,1.2-.198,.836,.563,1.689,1.416,1.787s1.688-.401,2.217-1.077,.808-1.51,1.069-2.328c-1.044-.158-2.088-.316-1.905,.417Z"/><path class="cls-9" d="M445.659,376.979c-1.19,.365-2.313,.949-3.296,1.712,.036,1.151,1.056,2.185,2.206,2.237s2.259-.887,2.397-2.03c.139-1.143-.622-2.129-1.308-1.919Z"/><path class="cls-3" d="M455.945,388.775c-.515,.967-1.029,1.934-1.544,2.901-.428-.601-1.344-.598-2.019-.3s-1.237,.814-1.921,1.09-1.612,.213-1.98-.426c-.302-.524-.084-1.218,.326-1.663s.971-.711,1.493-1.017c1.133-.663,2.129-1.558,2.911-2.613,.354-.478,.677-1.001,1.17-1.332s1.227-.403,1.641,.023c.457,.47,.543,1.467,1.197,1.424,.251-.016,.451-.209,.626-.39,1.172-1.213,2.344-2.425,3.517-3.638,.104,.94,1.639,.972,2.034,1.831,.209,.456,.023,.986-.165,1.452-.379,.944-.759,1.887-1.138,2.831-.37,.92-.769,1.881-1.538,2.508s-2.027,.772-2.698,.042c-.472-.514-.522-1.283-.846-1.901s-1.281-1.037-1.067-.821Z"/><path class="cls-3" d="M453.502,398.361c-.905,.366-1.868,.779-2.389,1.604s-.295,2.176,.646,2.434c.521,.143,1.087-.095,1.475-.471,.93-.899,.881-2.603,.268-3.568Z"/><path class="cls-3" d="M457.36,397.3l-3.001,.035c-.049,1.189,.959,2.214,2.089,2.587s2.357,.245,3.54,.112c.193-1.005-.303-2.106-1.183-2.628s-2.084-.43-1.445-.106Z"/><path class="cls-3" d="M461.401,404.502c-.429-.635-1.418-.716-2.046-.278s-.91,1.258-.864,2.023,.371,1.485,.75,2.152c.514,.904,1.376,1.85,2.398,1.658,.842-.158,1.353-1.047,1.499-1.891,.242-1.401-.245-2.908-1.737-3.664Z"/><path class="cls-4" d="M470.667,406.191l-4.09,.002c-.328,.515-.129,1.236,.305,1.664s1.044,.624,1.639,.758c.819,.185,1.698,.275,2.48-.03s1.419-1.109,1.292-1.939c-.127-.83-1.236-1.405-1.625-.456Z"/><path class="cls-4" d="M469.802,395.42c-.384,.334-.784,.677-1.27,.827s-1.088,.055-1.384-.36c-.513-.718,.182-1.663,.829-2.263,2.177-2.018,4.354-4.036,6.532-6.054,.766,.473,.752,1.656,.249,2.403s-1.331,1.192-2.067,1.712c-1.742,1.231-3.086,3.017-2.888,3.734Z"/><path class="cls-3" d="M456.36,375.22l-2.793,2.638c.644,.909,1.825,1.458,2.91,1.207s1.937-1.386,1.732-2.481-1.442-1.749-1.849-1.365Z"/><path class="cls-6" d="M437.098,363.511c.879,2.394,2.268,4.6,4.046,6.429,.417,.428,.868,.845,1.421,1.072s1.232,.228,1.708-.133c.512-.389,.675-1.114,.55-1.745s-.487-1.187-.867-1.705c-1.208-1.649-2.678-3.105-4.338-4.299-.473-.34-1.052-.674-1.608-.499s-.724,1.15-.912,.881Z"/><path class="cls-3" d="M448.494,371.426c-.655,.751-.219,2.017,.611,2.568s1.888,.587,2.885,.606c.169-.821-.195-1.728-.885-2.203s-1.667-.493-2.611-.97Z"/><path class="cls-2" d="M460.714,342.864c-.866,.772-1.731,1.544-2.597,2.317,.722,1.073,2.56,1.088,3.299,.027s-.028-2.945-.703-2.343Z"/><path class="cls-2" d="M470.755,342.567c-1.347-.225-2.762-.021-3.99,.576,.496,1.806,1.546,3.456,2.972,4.67,.425,.362,.89,.695,1.19,1.165s.392,1.131,.042,1.565c-.51,.635-1.603,.446-2.171,1.028-.356,.365-.399,.951-.24,1.436s.488,.893,.809,1.289c.467,.576,1.056,1.207,1.795,1.154,.711-.051,1.211-.728,1.47-1.392s.393-1.401,.844-1.953c.409-.5,1.028-.784,1.472-1.253,.821-.868,.898-2.205,.7-3.382-.498-2.956-2.836-5.78-4.893-4.903Z"/><path class="cls-6" d="M432.81,337.674l-2.844,.936c1.087,1.85,2.57,3.465,4.321,4.705,.352,.249,.786,.494,1.191,.348,.627-.225,.617-1.119,.403-1.75-.681-2.004-2.266-3.682-3.071-4.24Z"/><path class="cls-6" d="M418.651,327.966l-3.478,1.891c-.378,.988,.458,2.188,1.51,2.292s2.063-.778,2.231-1.822-.424-2.13-.263-2.361Z"/><path class="cls-6" d="M411.405,331.872c-.082,1.087,.032,2.188,.334,3.236,1.323,.112,2.526-1.324,2.184-2.606-.342-1.283-2.415-1.99-2.518-.629Z"/><path class="cls-7" d="M442.02,317.526c-.082,1.486-.163,2.971-.245,4.457,.747-.473,1.491-1.011,1.929-1.779s.489-1.82-.099-2.48-1.868-.606-1.584-.199Z"/><path class="cls-9" d="M417.3,432.779c.173,1.736-.509,3.537-1.788,4.723-.192-.502-.393-1.02-.767-1.406s-.971-.611-1.463-.395c-.451,.197-.689,.688-.857,1.15-.656,1.797-.818,3.835-.108,5.611,.711,1.776,2.399,3.214,4.31,3.307,1.71,.083,3.419-.974,4.108-2.54,.495,1.847,2.204,3.302,4.106,3.498,1.902,.196,3.871-.882,4.732-2.589,.238,.342,.657,.549,1.319,.837,3.548,1.013,6.678,3.421,8.567,6.592,.433,.728,.891,1.565,1.708,1.787,.739,.201,1.493-.183,2.238-.362,2.14-.513,4.504,.672,6.539-.165,.921-.379,1.634-1.126,2.469-1.669,1.801-1.171,4.13-1.334,6.208-.79,1.774,.465,3.798,1.369,5.29,.303,.482-.345,.822-.857,1.285-1.226,2.17-1.73,5.502,.41,8.11-.539,2.003-.729,2.913-2.994,3.593-5.014,.272-.807,.532-1.745,.079-2.467-.567-.905-1.959-.892-2.864-.325-.905,.567-1.494,1.509-2.211,2.301-2.179,2.405-5.793,3.397-8.895,2.441,.178-2.286,.355-4.572,.533-6.858-2.673,2.434-6.743,2.239-10.342,1.896-1.804-.172-3.608-.343-5.412-.515-.653-.062-1.34-.136-1.877-.513-.439-.308-.729-.788-1.146-1.127-.923-.75-2.287-.667-3.393-.23s-2.071,1.171-3.154,1.663c-3.969,1.801-8.636,.043-12.326-2.275,.501-.957,1.001-1.914,1.502-2.871-.559-.722-1.716-.638-2.491-.157s-1.324,1.25-2.027,1.833c-.703,.582-1.721,.971-2.52,.53-.899-.497-1.024-1.705-1.174-2.721s-.702-2.233-1.882-1.718Z"/><path class="cls-4" d="M483.204,398.391l1.902-1.758c-.054,1.021,1.446,1.569,1.474,2.591,.021,.76-.769,1.253-1.454,1.584-1.081,.522-2.162,1.043-3.243,1.565-.284,.137-.592,.277-.902,.222-.641-.115-.841-1.026-.501-1.583s.986-.83,1.591-1.074,1.25-.528,1.134-1.546Z"/><path class="cls-4" d="M485.693,375.389c-.212,.553-.725,.92-1.145,1.337s-.783,1.021-.577,1.576c.215,.58,.961,.794,1.566,.666,.929-.196,1.697-1.109,1.588-2.052s-1.219-1.671-1.432-1.527Z"/><path class="cls-4" d="M490.483,377.264c.742,.388,1.606,.538,2.435,.422,.308-1.156,.004-2.457-.783-3.358-.448-.513-1.125-.914-1.789-.764-.941,.211-1.334,1.441-1.014,2.351s1.112,1.558,1.151,1.35Z"/><path class="cls-4" d="M492.833,379.928c-.711,.751-.781,2.024-.157,2.848s1.868,1.102,2.784,.622c-.145,.864-.289,1.754-.094,2.608,.079,.347,.219,.69,.463,.949,.465,.495,1.233,.6,1.892,.436s1.236-.552,1.798-.933c.109-.848,.216-1.722-.007-2.548s-.861-1.6-1.708-1.713c-.522-.07-1.089,.107-1.561-.126-.638-.315-.74-1.171-1.146-1.756-.372-.535-1.049-.842-1.697-.769s-1.239,.524-.568,.381Z"/><path class="cls-4" d="M506.796,386.945c-.82-.374-1.786-.308-2.638-.016s-1.614,.794-2.366,1.29c-1.274,.841-2.572,1.703-3.52,2.9-.948,1.197-1.506,2.808-1.08,4.274,.097,.335,.256,.672,.54,.875,.522,.373,1.289,.152,1.743-.3s.684-1.076,.946-1.661c.156-.349,.365-.724,.731-.835,.692-.21,1.205,.631,1.439,1.315-.46,.511-.424,1.339-.053,1.918s1.006,.939,1.658,1.159c.651,.22,1.474,.278,1.927-.239,.316-.361,.342-.895,.26-1.368-.28-1.598-1.723-2.917-3.339-3.051,1.454-1.209,2.909-2.419,4.363-3.628,.638-.53,1.337-1.381,.894-2.082-.238-.377-.742-.514-1.182-.445s-.835,.304-.322-.107Z"/><path class="cls-4" d="M508.392,400.053c-1.096-.04-2.199,.455-2.897,1.301,.334,.741,1.15,1.172,1.957,1.268s1.619-.086,2.412-.266c.667-.152,1.439-.395,1.658-1.043,.244-.725-.444-1.493-1.196-1.631s-1.509,.159-1.933,.371Z"/><path class="cls-4" d="M514.105,405.203c-.816,.319-1.568,.797-2.203,1.4,.7,.521,1.63,.72,2.482,.533,.568-.125,1.117-.432,1.421-.927s.313-1.189-.069-1.628-1.162-.491-1.631,.622Z"/><path class="cls-4" d="M529.206,398.48c-3.511,2.051-6.643,4.75-9.19,7.92-.393,.489-.789,1.032-.818,1.659-.041,.886,.645,1.61,1.146,2.342,.883,1.29,1.276,2.908,1.08,4.459-.055,.438-.12,.969,.23,1.239,.498,.384,1.159-.196,1.514-.715,1.173-1.714,2.346-3.428,3.52-5.142,1.12-1.637,2.248-3.287,3.027-5.11s1.196-3.855,.829-5.805c-.102-.543-.306-1.13-.792-1.392s-1.262,.092-.546,.545Z"/><path class="cls-4" d="M508.236,418.339c-1.302,1.114-2.291,2.59-2.826,4.218,.322-.131,.679,.229,.656,.576s-.299,.626-.597,.805-.634,.294-.913,.502c-.99,.739-.806,2.393,.071,3.261s2.178,1.132,3.406,1.258c.262,.461-.05,1.018-.254,1.508s-.164,1.241,.358,1.334c.197,.035,.396-.048,.568-.149,.887-.518,1.411-1.596,1.272-2.613-.25-1.829-2.368-3.241-1.977-5.045,.288-1.325,1.87-2.153,1.941-3.508,.041-.77-.511-1.532-1.256-1.733s-1.605,.179-.45-.415Z"/><path class="cls-4" d="M503.556,430.642c-1.5,.885-2.838,2.042-3.93,3.399,.046,.617,.707,1.043,1.325,1.042s1.189-.315,1.714-.642c.506-.316,1.01-.663,1.355-1.149s.507-1.142,.273-1.69-.939-.893-.737-.96Z"/><path class="cls-6" d="M472.175,253.408c-1.921-.98-4.238-1.153-6.284-.469-1.71,2.857,1.801,4.914,2.805,8.089,1.241,3.927-3.209,6.774-6.893,6.89s-7.916-.806-10.743,1.559c1.099-.437,2.199-.875,3.298-1.312-6.582-2.417-14.278-2.79-21.235-1.922l-.147-4.667c-13.861-3.98-28.642,10.859-42.846,8.366-.77,2.196-1.819,4.673-4.041,5.365-1.618,.504-3.338-.125-5.001-.451-4.746-.931-9.846,.737-13.046,4.364-1.317,1.493-2.499,3.44-4.351,4.17s-4.495-.881-3.851-2.766c-2.588,2.038-9.843,5.989-9.843,5.989,.233,2.67,.604,5.665-.725,7.992s-4.819,3.584-6.756,1.732c.313,2.231,.496,4.51,.074,6.722s-1.718,4.387-3.794,5.261c-1.375,.579-3.002,.409-4.366,1.012s-2.458,2.36-1.574,3.561c.468,.636,1.315,.865,1.892,1.405,1.273,1.193-.304,4.415-1.445,5.735s-2.496,1.586-3.57,2.961c0,0,.136,5.301,1.727,7.298,5.747-.167,11.095,5.028,11.095,10.777,2.763-3.172,8.083-3.668,11.385-1.063-1.602,1.734-4.341,1.474-6.656,1.938s-4.715,3.127-3.162,4.905c-2.018-2.09-6.332-.084-6.033,2.807,.299,2.89,4.931,3.973,6.479,1.514,.872-1.384,.784-3.356,2.05-4.392,3.488,3.808,5.688,8.776,6.165,13.918,2.672,.593,4.908-3.396,3.007-5.366,2.071-.113,3.939,2.05,3.525,4.082,4.871-2.127,10.117-3.389,15.422-3.711-1.062,.756-2.125,1.513-3.187,2.269,4.728,1.485,10.283-.189,13.403-4.039-.644,1.862,.342,4.136,2.14,4.941-1.091-.691,.271-2.524,1.535-2.263s2.05,1.478,2.962,2.392c2.602,2.608,7.216,2.841,10.068,.508,.149,1.101,.298,2.202,.446,3.303-1.839,1.589-4.228,2.529-6.656,2.62,1.212-.019,1.287,2.069,.215,2.635s-2.375,.093-3.49-.383c-5.384-2.303-10.768-4.606-16.152-6.909-1.801-.77-3.747-1.557-5.662-1.148s-3.551,2.595-2.644,4.331c-3.732,.488-5.951,.546-8.169,.604,1.245,.618,1.137,2.56,.207,3.593s-2.33,1.469-3.565,2.106-2.459,1.728-2.425,3.117c.036,1.487,1.45,2.512,2.711,3.302,3.229,2.025,6.463,4.161,8.928,7.068,2.465,2.907,4.101,6.726,3.595,10.503-2.094,.043-3.458,2.493-3.164,4.567s1.708,3.788,3.065,5.383c1.027,1.207,2.469,2.542,3.971,2.036,1.994-.672,1.703-3.545,1.114-5.566-.588-2.02-.471-5.022,1.619-5.268,1.659-.195,2.709,1.689,3.282,3.258,1.619,4.432,3.239,8.863,4.858,13.295,.64,1.752,2.493,3.88,3.902,2.657,.768-.666,.632-1.877,.389-2.864-.499-2.023-1.183-4.096-.802-6.144s2.329-3.993,4.349-3.484c1.257,.317,2.121,1.437,2.883,2.486,2.502,3.445,5.004,6.891,7.505,10.336-.361-8.224-2.61-16.359-6.523-23.602-2.045-3.784-4.63-7.984-3.298-12.074,3.298,1.952,6.026,4.857,7.766,8.272-1.033-1.053,.482-2.917,1.953-2.795s2.596,1.29,3.748,2.212,2.805,1.657,4.046,.859c1.561-1.003,1.002-3.573-.428-4.756-1.43-1.183-3.355-1.548-4.983-2.439-1.628-.891-3.047-2.82-2.278-4.509-.863-3.435-3.663-5.508-6.805-6.29,2.927-.982,5.854-1.964,8.781-2.946,1.363-.457,2.784-.921,4.21-.743,3.295,.41,5.146,3.842,7.141,6.496,1.995,2.654,6.069,4.838,8.381,2.456-2.997-1.052-3.287-5.119-2.995-8.281,.293-3.162,.133-7.198-2.808-8.398-1.775-.724-4.235-.182-5.309-1.77-.922-1.363,.125-3.35,1.638-3.994,2.536-1.079,5.498,.61,7.07,2.874s2.231,5.025,3.464,7.49,3.404,4.815,6.159,4.889c2.755,.074,5.257-3.461,3.469-5.557-1.859-2.179-5.718-.619-8.084-2.233-3.751-2.559-.128-9.725-3.71-12.515-1.725-1.344-4.175-.844-6.361-.881-5.339-.092-10.329-4.275-11.351-9.517-.828,1.595-3.054,1.553-4.845,1.707s-3.989,1.64-3.195,3.252c.48,.974,1.742,1.181,2.808,1.386,4.444,.855,8.426,3.852,10.477,7.887,.274,.539,.495,1.251,.089,1.699-.464,.511-1.302,.228-1.916-.088-6.714-3.461-13.428-6.921-20.142-10.382-.759-.391-1.637-.99-1.543-1.839s1.844-.599,1.373,.113c1.733-.197,3.54-.42,4.988-1.391s2.388-2.941,1.623-4.508c-.686-1.408-2.49-2.086-2.972-3.577-.786-2.429,2.767-4.246,5.143-3.313s3.909,3.221,5.964,4.735c2.056,1.513,5.549,1.887,6.703-.39-3.208-2.607-6.416-5.214-9.623-7.821-5.347-4.346-10.829-8.851-14.117-14.907-1.727-3.181-2.571-7.634,.133-10.04-.172-1.893-.285-3.836,.243-5.662s1.817-3.537,3.64-4.076,4.102,.467,4.53,2.318-1.713,3.874-3.414,3.025c4.307,5.313,12.488,7.014,18.557,3.86,2.098-1.07,3.948-5.047,2.581-8.009-1.047-2.269-3.58-4.808-1.95-6.703,.939-1.091,2.705-.916,3.998-.284s2.43,1.626,3.83,1.961c3.827,.918,6.775-3.218,10.274-5.018,1.535-.789,3.253-1.132,4.946-1.466,3.946-.779,7.892-1.558,11.838-2.336,5.229,1.582,15.472,4.584,20.701,6.166,0,0,1.414-2.893,2.958-4.097s3.28-2.692,3.195-4.649c-.09-2.076-2.276-3.887-1.663-5.872,.586-1.896,3.119-2.172,4.737-3.32,3.955-2.807,.585-12.146-2.504-12.711"/><path class="cls-6" d="M238.977,221.523c-1.302,.104-2.668,.229-3.753,.955s-1.745,2.267-1.063,3.381c.456,.746,1.366,1.094,2.236,1.181,1.694,.17,3.578-.63,4.219-2.207s-.46-3.405-1.638-3.311Z"/><path class="cls-8" d="M206.367,163.169l-1.992-3.03c-1.324,3.115,.007,7.115,2.934,8.815,.653,.38,1.499,.644,2.14,.244,.99-.618,.633-2.145,.034-3.146-.938-1.569-2.189-2.95-3.117-2.883Z"/><path class="cls-6" d="M87.793,215.2l-3.028-.091c-.525,3.039-1.051,6.079-1.576,9.118-.377-1.405-1.921-2.239-3.375-2.273s-2.845,.549-4.182,1.121c-3.822,1.636-7.803,3.39-10.408,6.631-.459,.571-.873,1.393-.448,1.989,.661,.926,2.672,.32,2.888,1.437,.14,.724-.786,1.19-1.523,1.175s-1.555-.223-2.157,.203c-.927,.656-.453,2.201,.451,2.889s2.09,.95,2.944,1.7,1.093,2.404,.05,2.854c-1.003-1.107-3.137-.567-3.622,.846s.682,3.08,2.166,3.257,2.946-1.009,3.243-2.473c.243,.95,.487,1.899,.73,2.849-1.363-.99-3.532-.564-4.419,.868s-.303,3.564,1.19,4.344,3.577,.041,4.245-1.505c-2.241,3.277-1.119,8.325,2.259,10.41,1.151,.711,2.62,1.095,3.861,.556,1.376-.598,2.07-2.11,2.645-3.495,1.256-3.028,2.512-6.055,3.769-9.083,1.641-3.954,3.294-7.953,3.967-12.181s.281-8.77-1.951-12.423c1.778-1.525,3.685-3.288,3.909-5.619s-2.518-4.79-1.627-3.103Z"/><path class="cls-6" d="M94.765,213.633c-.433,1.432-.507,2.972-.213,4.439,1.728,.238,3.366-1.675,2.864-3.346s-2.922-2.366-2.651-1.093Z"/><path class="cls-6" d="M102.348,223.854l-1.557-2.431c1.431,.028,2.831-.373,4.244-.609s2.935-.289,4.201,.38,2.131,2.262,1.569,3.579c-.639,1.498-2.641,1.852-4.239,1.538s-3.138-1.075-4.764-.984c-.168-.666-.336-1.333,.546-1.475Z"/><path class="cls-6" d="M99.659,227.109l-1.421,4.24c.988,.516,2.262,.543,3.179-.089s1.336-1.968,.795-2.942-2.061-1.278-2.554-1.209Z"/><path class="cls-6" d="M104.528,233.354l-4.22,2.887c.879,.429,1.468,1.267,2.14,1.977s1.588,1.351,2.552,1.184c1.149-.199,1.825-1.534,1.668-2.69s-.925-2.132-2.141-3.358Z"/><path class="cls-6" d="M116.779,235.527c-.528,1.262-.761,2.647-.672,4.012,1.17,.133,2.437-.047,3.344-.799s1.304-2.175,.657-3.16-2.806-1.3-3.328-.053Z"/><path class="cls-6" d="M57.036,266.064c-1.427,1.241-2.906,2.555-3.583,4.321s-.243,4.113,1.442,4.971c1.646,.838,3.61-.031,5.246-.89,3.974-2.088,7.948-4.176,11.922-6.263,1.763-.926,3.581-1.869,5.561-2.071s4.189,.512,5.188,2.235c.685,1.18,.712,2.636,1.287,3.874s2.217,2.223,3.271,1.357c-1.738,1.828-1.203,4.782-.393,7.17s1.766,5.09,.58,7.316c-.983,1.844-3.2,2.795-4.121,4.67-.615,1.253-.552,2.717-.512,4.113,.23,8.07-.808,16.174-3.067,23.925-.475,1.229-.973,2.495-1.9,3.431s-2.407,1.457-3.595,.888c-1.06-.508-1.589-1.686-2.369-2.565-1.611-1.816-4.561-2.26-6.635-.998s-3.036,4.086-2.164,6.352c-1.823,1.056-3.74,2.14-5.845,2.227s-4.427-1.187-4.764-3.267c-.172-1.066,.122-2.351-.671-3.083-.821-.758-2.266-.218-2.814,.756s-.465,2.165-.367,3.279c-.633-3.003-2.268-5.786-4.583-7.801,1.567,.353,3.134,.706,4.701,1.059-1.118-5.148,.514-10.811,4.199-14.575,1.169-1.193,2.599-2.329,2.932-3.966s-1.447-3.62-2.846-2.708c1.471-3.639,2.8-7.494,2.431-11.401s-2.884-7.869-6.714-8.727c1.289-5.439,3.587-10.637,8.183-13.629Z"/><path class="cls-6" d="M184.829,287.282l-4.687-.413c-.04,1.34,.311,2.763,1.282,3.686s2.655,1.151,3.646,.249,.876-3.423-.241-3.522Z"/><path class="cls-6" d="M213.406,343.453c-1.184-.494-2.521-.614-3.775-.338-.608,.93-.402,2.302,.453,3.012s2.242,.66,3.044-.109c.757-.832,1.249-2.16,.277-2.566Z"/><path class="cls-6" d="M202.591,348.209l-2.862,2.348c2.132-.033,4.155,1.674,4.48,3.781,.13,.841,.111,1.879,.851,2.301,.555,.316,1.305,.06,1.705-.438s.514-1.169,.515-1.808c.006-2.878-2.228-5.603-4.689-6.183Z"/><path class="cls-6" d="M131.243,362.819c.829,1.378,2.209,2.413,3.764,2.824,.816-.73,1.324-1.865,1.1-2.937s-1.299-1.961-2.38-1.786-1.817,1.577-2.484,1.9Z"/><path class="cls-6" d="M124.91,395.118c.178,1.035,.384,2.094,.938,2.985s1.538,1.592,2.585,1.513c1.179-.088,2.144-1.238,2.118-2.42s-.966-2.253-2.116-2.528-2.419,.206-3.525,.45Z"/><path class="cls-10" d="M137.752,430.639c-.798,.743-1.372,1.723-1.631,2.782,.788,.725,2.297,.271,2.554-.769s-.819-2.111-.923-2.013Z"/><path class="cls-10" d="M183.514,419.1c-1.016,.469-1.845,1.33-2.274,2.364,.978-.165,2.01-.325,2.94,.019s1.68,1.388,1.341,2.32c-.111,.305-.323,.563-.459,.858-.445,.961,.008,2.147,.787,2.865,.779,.718,1.815,1.075,2.819,1.413,1.287,.434,2.909,.792,3.836-.2,.68-.728,.628-1.899,.228-2.81-.731-1.664-2.526-2.799-4.343-2.745-.831,.025-1.819,.218-2.365-.408-.475-.544-.299-1.371-.402-2.085-.214-1.486-1.966-2.533-2.108-1.591Z"/><path class="cls-6" d="M219.312,358.258l2.397,1.217c-5.677,7.148-10.95,14.616-15.786,22.356-.789,1.124-.646,2.806,.32,3.781s2.647,1.133,3.778,.355c.257,2.733,.514,5.465,.771,8.198,.107,1.143,.171,2.431-.592,3.289s-2.615,.539-2.563-.608c-.358,2.98-1.325,5.886-2.825,8.485-5.793,.518-11.763-2.437-14.865-7.357-1.221-1.938-2.152-4.27-4.182-5.331-2.007-1.049-4.43-.506-6.694-.594-10.966-.424-17.026-15.282-27.979-15.954-2.599-.159-5.577,.427-7.515-1.313-1.296-1.164-1.672-3.093-1.387-4.812s1.132-3.285,1.965-4.814c-1.106,.479-2.257,.968-3.462,.931s-2.479-.757-2.747-1.932,.979-2.525,2.089-2.056c-.084,1.496,1.86,2.429,3.276,1.938s2.333-1.835,3.102-3.122,1.568-2.67,2.905-3.347,3.362-.194,3.681,1.27c-1.281,1.164,.109,3.516,1.834,3.674s3.262-1.003,4.585-2.12,2.803-2.321,4.533-2.275c3.833,.102,5.571,6.009,9.405,5.994,.948-.004,1.864-.399,2.812-.386s2.027,.72,1.878,1.656c-.533-1.745,2.096-2.901,3.77-2.178s2.821,2.349,4.478,3.112c2.788,1.285,6.536-.737,6.994-3.772,4.2-.145,8.331-1.816,11.451-4.631,2.059,3.304,7.655,3.422,14.57,.345Z"/><path class="cls-11" d="M188.086,122.959c-2.107-.292-4.374-.56-6.26,.426s-2.944,3.771-1.463,5.299c1.26,1.3,3.751,1.191,4.486,2.846,.563,1.268-.325,2.655-.812,3.954-1.055,2.817,0,6.28,2.446,8.031"/><path class="cls-11" d="M183.311,152.154c7.008,3.254,16.027,1.457,21.254-4.235,2.359,4.047,6.39,7.086,10.93,8.239,2.925,.743,7.069-.164,7.214-3.178,.154-3.196-4.537-6.268-2.462-8.703,1.729-2.029,5.535,.352,7.585-1.352,2.294-1.907-.527-5.439-.63-8.421-.14-4.076,4.813-6.151,8.844-6.773,2.501-.386,5.063-.669,7.374-1.7s2.768-1.906,3.189-4.402"/><path class="cls-11" d="M106.214,84.412c1.202,2.987-1.722,5.822-3.064,8.749s-1.289,7.432,1.827,8.245c1.151-1.136,3.259-.477,4.153,.871s.92,3.072,.916,4.689c3.509-1.992,7.458-3.204,11.48-3.524-1.631,3.945-1.629,8.536,.003,12.479,.08,1.36-1.797,2.071-3.047,1.53s-2.03-1.768-2.948-2.774-2.302-1.882-3.577-1.402c-1.644,.619-1.78,2.997-.963,4.553s2.242,2.748,2.938,4.361,.143,4.024-1.599,4.254c-1.743,.23-2.835-1.764-3.527-3.381s-2.206-3.476-3.819-2.775c-1.602,.695-1.856,3.526-3.602,3.519-1.169-.004-1.814-1.438-1.705-2.602s.662-2.272,.622-3.44c-.06-1.733-1.63-3.275-3.364-3.305s-3.356,1.457-3.476,3.186c1.629,1.913,1.996,4.808,.894,7.067-3.803,2.272-5.087,7.894-2.648,11.592-5.079,.023-9.296-5.681-7.785-10.53-2.602-.011-5.118-1.713-6.096-4.124s-.36-5.385,1.499-7.206c-4.932-.715-10.045,3.276-10.549,8.234-.127,1.249-.03,2.616-.764,3.634-1.219,1.693-3.858,1.324-5.725,.391s-3.743-2.29-5.811-2.011c-2.308,.311-3.823,2.517-5.837,3.686s-5.638,.043-4.944-2.179"/><path class="cls-11" d="M120.173,108.518c3.421-2.305,8.773-.731,10.401,3.059,.318-4.629,6.159-6.328,10.771-6.831,6.031-.658,12.063-1.316,18.094-1.974-3.718,2.496-3.035,8.6,.181,11.715s7.905,4.038,12.314,4.822c11.507,2.046,23.015,4.091,34.522,6.137,2.612-5.238,9.588-7.784,14.961-5.46,1.969,.852,4.599,2.111,5.904,.409,.847-1.105,.623-3.099,1.946-3.533,1.352-.444,2.338,1.37,3.688,1.823,1.473,.494,5.742-2.423,6.818-3.545"/><path class="cls-6" d="M161.664,342.149c-.631,1.501-.688,3.235-.157,4.774,1.376,.331,2.911-.789,3.017-2.2s-1.248-2.746-2.86-2.574Z"/><path class="cls-1" d="M466.618,306.979c-.848,.406-1.56,1.091-2,1.923,.698,.942,2.177,1.181,3.137,.507,.96-.674,1.237-2.146,.589-3.123s-2.113-1.293-1.726,.693Z"/><path class="cls-7" d="M463.589,295.825c-1.914,.237-3.792,.768-5.547,1.569-.508,1.256,.326,2.779,1.568,3.322s2.719,.267,3.903-.393c.925-.515,1.751-1.298,2.074-2.306s.029-2.251-.858-2.829-2.31-.203-1.14,.637Z"/><path class="cls-7" d="M454.816,290.919c-.757-.4-1.546-.809-2.401-.854s-1.8,.384-2.07,1.197c-.21,.633,.036,1.347,.462,1.86,1.187,1.431,3.4,1.436,5.18,.898,.597-.181,1.199-.42,1.639-.861s.683-1.129,.45-1.708c-.351-.869-1.48-1.051-2.417-1.102-.693-.038-1.402-.075-2.069,.115s-1.299,.651,1.227,.455Z"/><path class="cls-7" d="M444.149,303.751l-2.638-.022c.856,2.652,3.599,4.137,6.104,5.358,.462,.225,.959,.457,1.468,.387,.91-.125,1.404-1.105,1.745-1.958,.379-.949,.764-1.932,.733-2.954-.031-1.022-.591-2.1-1.564-2.413-.983-.315-2.019,.213-2.916,.725-.917,.523-1.822,.885-2.932,.876Z"/><path class="cls-7" d="M431.19,283.708c-1.052,.862-2.103,1.724-3.155,2.586,.141,.924,.828,1.693,1.636,2.164s1.733,.692,2.643,.906c.711,.167,1.478,.331,2.154,.054,.807-.331,1.258-1.209,1.43-2.064,.279-1.391-.065-2.961-1.115-3.915-1.051-.954-2.398-.71-3.593,.269Z"/><path class="cls-7" d="M420.086,295.73c-.36,.767-.53,1.622-.49,2.468,1.494-.522,3.326,.344,3.873,1.829,.215,.586,.249,1.229,.49,1.804s.805,1.102,1.419,.989c.564-.104,.914-.724,.907-1.298s-.282-1.107-.561-1.609c-.628-1.129-1.328-2.248-2.319-3.076s-2.327-1.333-3.318-1.107Z"/><path class="cls-9" d="M412.483,301.546c-.562,.89-1.125,1.781-1.687,2.671,.078,.68,.857,1.034,1.536,1.123s1.43,.066,1.961,.499c.8,.653,.676,1.997,1.434,2.699,.696,.644,1.929,.407,2.499-.351s.543-1.847,.128-2.7-1.158-1.501-1.945-2.03c-1.293-.87-2.759-1.482-3.926-1.911Z"/><path class="cls-6" d="M252.525,231.574c.233,1.07,.515,2.222,1.359,2.92s2.427,.539,2.714-.517c.208-.767-.389-1.566-1.125-1.866s-1.563-.23-2.948-.537Z"/><path class="cls-5" d="M403.363,305.264c-.906,.832-.875,2.467,.062,3.263,.937,.796,2.556,.563,3.23-.465,.136,.07,.272,.141,.408,.211,.493-1.315-.152-2.953-1.41-3.578s-2.953-.151-2.29,.569Z"/><path class="cls-9" d="M323.052,323.145c-.783-1.529-.672-3.339-.939-5.035s-1.203-3.56-2.895-3.852c-1.525-.263-3.037,1.023-3.329,2.543-.292,1.52,.44,3.104,1.57,4.16,.863,.806,1.957,1.375,2.663,2.321,.568,.762,.847,1.721,1.481,2.429,1.21,1.351,3.276,1.387,5.088,1.322,.694-.109,.992-1.049,.682-1.679s-1.001-.978-1.674-1.181-1.386-.312-1.995-.664-1.098-1.047-.653-.363Z"/></svg>