<?xml version="1.0" encoding="UTF-8"?>
<svg id="south" xmlns="http://www.w3.org/2000/svg" viewBox="0 0 549.07 469.91">
  <defs>
    <style>
      .cls-1 {
        fill: none;
      }

      .cls-1, .cls-2, .cls-3, .cls-4, .cls-5, .cls-6, .cls-7, .cls-8, .cls-9, .cls-10, .cls-11 {
        stroke: #efedeb;
        stroke-miterlimit: 10;
      }

      .cls-2 {
        fill: #ffe9b3;
      }

      .cls-3 {
        fill: #fce7b1;
      }

      .cls-4 {
        fill: #e3d4ac;
      }

      .cls-5 {
        fill: #f7e4b5;
      }

      .cls-6 {
        fill: #f7e3b0;
      }

      .cls-7 {
        fill: #ffe28c;
      }

      .cls-8 {
        fill: #ffeab5;
      }

      .cls-9 {
        fill: #f0ddaf;
      }

      .cls-10 {
        fill: #ffebba;
      }

      .cls-11 {
        fill: #ffedbf;
      }
    </style>
  </defs>
  <path class="cls-7" d="m257.08,61.3c-9.96-.57-19.81-2.92-28.95-6.91-4.18-1.82-10.05-4.21-12.85-.61-2.51,3.22-1.04,9.35-4.9,10.71-1.64.57-3.43-.18-4.94-1.05s-3.05-1.9-4.79-1.89-3.64.57-3.04,2.2c-.43-2.59-2.92-3.96-2.92-3.96-.68.92-.24,1.53-1.41,2.18s-2.59.58-3.93.67-2.82.48-3.49,1.65c-.64,1.13-.28,2.58-.73,3.79-.75,2.01-3.3,2.58-5.44,2.65s-4.6.09-6,1.72c-3.24,3.77,3.37,9.9.87,14.2,2.09-.03,3.62,2.72,2.49,4.48s-4.27,1.5-5.1-.42c-.49-1.13-.22-2.43-.43-3.65s-1.37-2.5-2.49-2c-.74.32-1.01,1.23-1.58,1.8-1.15,1.15-3.12.65-4.51-.18s-2.78-1.96-4.4-1.9-2.99,2.37-1.67,3.31c-1.29,1.22-3.34,1.11-5.06.65s-3.46-1.17-5.21-.89-3.39,2.18-2.61,3.78c-2.91-.64-5.99.22-8.91-.41-1.52-.33-2.92-1.04-4.3-1.76-3.06-1.58-6.12-3.15-9.19-4.73.99,2.79,1.5,6.77-1.24,7.92-1.9.79-4.04-.58-5.26-2.24s-2.12-4.74-3.67-6.09-5.23-.08-5.23-.08c-1.16-2.87-5.53-4.15-8.57-4.71-4.19-.78-8.38-1.55-12.57-2.33.63-.12,1.25-.24,1.88-.36.69,2.84-1.8,5.66-4.62,6.41s-5.8-.01-8.61-.81-8.88-2.22-8.88-2.22c-.12,1-.62,2.74-.7,3.74-4.1-1.52-8.19-3.03-12.29-4.55.7,6.87-5.85,12.05-11.65,15.79-5.8,3.74-12.34,8.95-11.6,15.82l2.79.13c-3.05.53-5.73,2.79-6.78,5.7,1.23,1.61,3.88,1.03,5.42-.29s2.63-3.18,4.41-4.16c2.89-1.6,6.69-.21,8.86,2.27s1.76,8.15,2.63,11.33c-1.02,2.73-2.26,3.16-5.09,2.9,2.42,1.59,4.91,3.24,6.5,5.66s2.07,5.82.34,8.14c-1.54,2.09-4.32,2.75-6.84,3.35s-5.3,1.45-6.6,3.69.39,5.99,2.92,5.4c1.25-1.84,4.49-.74,5.2,1.37s-.29,4.39-1.46,6.28-2.58,3.78-2.78,5.99c-.3,3.38,2.44,6.43,5.61,7.62,3.17,1.2,6.68.97,10.06.72-4.45,2.4-5.89,11.64-5.89,11.64,2.29-.07,7.75-.7,9.79-1.76.99-.51,1.74-1.37,2.47-2.21,3.02-3.51,6.02-7.21,10.09-9.42,4.07-2.21,9.57-2.53,13.01.56.62.55,1.16,1.21,1.89,1.62.6.34,1.29.5,1.95.69,3.22.96,6.09,3.06,7.97,5.85,5.8,1.25,10.69,4.52,14.02,8.97-.52,2.88-.07,7.23,1.47,11.16.65,1.66,1.49,3.25,1.94,4.97s.49,3.65-.42,5.18c-.6,1-1.6,2.12-1.05,3.14.76,1.41,3.07.3,4.49,1.05.97.51,1.26,1.73,1.54,2.8,1.19,4.55,4.02,8.65,7.86,11.36-.39,1.38-1.57,2.51-2.97,2.82l.59,1.62c3-1.89,7.12-.99,9.91,1.2,2.8,2.18,4.58,5.38,6.28,8.5,8.56,3.83,11.08,15.31,19.03,20.29,1.76.27,3.11.2,4.46.14-.06,2.41.62,4.84,1.93,6.87,1.3-1.68,2.69-3.42,4.65-4.26s4.64-.36,5.56,1.55c.55,1.14.37,2.52.8,3.71s2.15,2.09,2.93,1.08c-.53-.89-1.08-1.83-1.13-2.88s.58-2.19,1.61-2.35c.76-.11,1.5.33,2.07.85,2.24,2.02,2.99,5.16,4.22,7.91s3.63,5.54,6.64,5.25c2.97-.11,5.02,4.14,3.01,6.29-.45-1.3-2.12-2.01-3.37-1.44s-1.81,2.29-1.13,3.48c2.64-1.15,5.35-2.33,8.22-2.5s6,.86,7.56,3.28c1.43,2.22,1.29,5.08,2.09,7.6s3.61,4.92,5.89,3.57c-.51,1.07-1.02,2.13-1.54,3.19,2.27,2.84,7.1-.4,10.43,1.07,1.93.85,2.81,3.05,3.51,5.03,3.15,8.97,6.3,17.94,9.45,26.92.4,1.14.8,2.38.41,3.52-.46,1.36-1.92,2.12-3.32,2.44s-2.87.3-4.23.77-2.64,1.62-2.62,3.06,2.02,2.57,2.99,1.51c.34,4.76-3.3,9.48-7.99,10.37-.26,4.99,5.98,9,10.41,6.69.92-4.86,4.42-9.15,9-11.03,1.49-.61,3.25-1.13,3.91-2.6.81-1.82-.6-3.81-.93-5.78-.55-3.22,2-6.32,5.04-7.53s6.43-.98,9.68-.73c.35-3.54.69-7.17-.21-10.62s-3.32-6.72-6.77-7.61c-2.43-.62-5.39-.16-7.09-1.99-2.08-2.23-.55-5.81,1.04-8.41,3.13-5.11,6.26-10.23,9.39-15.34.96-2.74,4.03-3.34,5.91-2.23s2.9,3.2,4.1,5.03,2.97,3.63,5.15,3.55c1.87-.06,3.62-1.52,5.44-1.11,1.4.32,2.34,1.69,2.74,3.07s.41,2.85.72,4.26c.97,4.39,5.24,7.8,9.73,7.79.8,0,1.8-.29,1.88-1.08.06-.6-.46-1.08-.72-1.61-1.1-2.21,2.07-4.16,2.68-6.55.7-2.78-2.13-5.01-4.3-6.87-2.74-2.36-4.89-5.33-7.6-7.72s-6.26-4.25-9.82-3.64c-13.51-9.69-26.94-18.01-40.38-26.33,2.1-.38,4.25-.77,6.08-1.88s3.28-3.08,3.14-5.21-2.38-4.05-4.4-3.37c-1.93.65-3.02,3.22-5.06,3.22-1.27,0-2.39-1.29-2.2-2.55-1.56,2.91-4.42,5.09-7.64,5.83-13.14-9.5-26.99-19.92-32.45-35.19-1.9-5.31-2.7-11.05-5.45-15.98-3.75-6.7-10.56-10.98-16.88-15.33-4.62-3.19-9.58-7.42-9.54-13.04,0-.79.1-1.63-.31-2.3-.56-.91-1.78-1.1-2.85-1.23s-2.3-.45-2.7-1.45,1.2-2.2,1.71-1.25c1.34-4.37,5.25-7.84,9.75-8.65-1.93-1.74-3.89-3.54-5.06-5.86s-1.37-5.31.19-7.39c1.44-1.92,3.95-2.62,6.27-3.21,4.55-1.15,9.11-2.29,13.66-3.44-1.28-2.51,1.53-4.93,3.25-3.65-.16,1.39.57,2.84,1.77,3.54.72-2.36,3.74-3.7,5.97-2.65s3.13,4.23,1.78,6.29-4.63,2.5-6.48.86c0,8,3.77,15.92,9.97,20.98.05-2.54.09-5.07.14-7.61,1.35.68,2.7,1.36,4.06,2.03,2.45-1.63.44-5.65,1.64-8.34.77-1.72,2.87-2.58,4.74-2.32s3.49,1.46,4.71,2.9c3.16,3.7,3.97,8.78,5.07,13.51s2.93,9.81,7.15,12.24c1.76,1.02,3.8,1.48,5.54,2.53s3.21,3.04,2.69,5.01c-1.35-1.58-2.8-3.23-4.78-3.85s-4.59.33-4.97,2.37c-.28,1.53.73,2.96,1.68,4.19,2.76,3.55,5.52,7.09,8.28,10.64.37-1.99.95-2.77,1.77-3.22s1.95-.49,2.61.17c.51.51.62,1.28.71,1.99.36,2.89.72,5.78,1.07,8.67,1.48-.63,2.95-1.26,4.43-1.88,3.83-1.08,7.33.03,10.04,2.17-.69,2.25-3.54,3.22-5.83,2.63s-4.1-2.26-5.81-3.88c.09,3.42,4.39,5.95,7.42,4.35-1.35,1.28-2.7,2.57-4.05,3.85,6.54,1.28,13.07,2.56,19.61,3.83-2.54-3.32-6.56-5.46-10.74-5.7,2.05-.01,3.65-2.49,2.81-4.36,3.79,3.97,8.08,7.46,12.73,10.37-2.34.67-4.84.76-7.22.29-3.66.52-7.33,1.04-10.99,1.56,4.11,1.14,8.22,2.28,12.34,3.42-.55-1.12-1.1-2.24-1.64-3.37,3.7-.92,7.92.9,9.78,4.24-1.63-.32-3.27-.64-4.9-.96,2.1,4.16,7.45,6.35,11.86,4.85-.72-.9-2.01-2.08-2.73-2.98,6.05,2.36,11.88,4.29,17.21,8.01,0,0-14.05-12.38-26.1-25.22-7.48-7.96-14.96-15.94-21.7-24.54-3.15-4.02-3.03-9.3-5.83-13.56-1.05-1.6-5.21-2.18-5.34-4.09s1.05-4.04,2.95-4.31c-2.41.09-3.38-3.73-1.57-5.32s4.8-.98,6.56.67,2.59,4.04,3.36,6.32c1.89-2.68,3.79-5.36,5.68-8.03,2.9.55,5.79,1.1,8.68,1.66,5.48,1.05,10.97,2.09,16.45,3.14,1.76.34,3.57.67,5.34.38,1.6-.26,3.07-1.02,4.61-1.5,5.29-1.65,11.5.25,14.95,4.57,1.12,1.41,2.05,3.1,3.65,3.93s4.15.05,4.16-1.75c-2.72-1.58-1.63-6.65,1.49-6.98,1.92-.2,4.46.81,5.4-.87.83-1.48-.97-3.19-2.66-3.35s-3.41.46-5.07.09c-3.7-.82-4.63-5.62-4.56-9.4s-.13-8.45-3.53-10.11c-4.22-2.06-8.48,2.54-12.91,4.1-6.91,2.42-17.07-6.62-19.34-7.81s-3.81-3.47-5.71-5.2c-6.49-5.91-18.05-16.94-18.05-16.94,5.04-5.26,7.67-10.31,5.66-17.31,1.73.86,4.12-.16,4.69-2s-.8-4.04-2.71-4.32c-1.18-.17-2.63.21-3.42-.7-1.21-1.4,1.2-3.36,2.99-2.88s3.16,2.04,4.97,2.43c3.27.7,6.08-2.78,6.47-6.09.48-4.03-1.23-7.94-2.38-11.83s-1.44-7.93,1.05-11.13"/>
  <path class="cls-7" d="m341.44,356.08c-1.91,1.65-3.82,3.29-5.73,4.94-.48.42-1.02.94-.97,1.58.06.79.92,1.22,1.66,1.49,2.23.82,4.45,1.65,6.68,2.47.95.35,2.09.67,2.88.05.67-.53.76-1.55.49-2.36s-.83-1.49-1.29-2.21-.82-1.58-.64-2.42c.11-.54.45-1.02.57-1.56.28-1.22-.64-2.51-1.84-2.85s-2.54.14-1.82.88h0Z"/>
  <path class="cls-7" d="m343.22,371.7l-1.94,2.2c1.07,2.33,3.56,3.61,5.94,4.57,1.27.52,2.88.93,3.87-.02.94-.9.62-2.58-.33-3.48s-2.3-1.19-3.59-1.4-2.63-.39-3.95-1.88h0Z"/>
  <path class="cls-5" d="m399.24,415.91c-1.28-.18-2.56-.37-3.84-.55.29,2.13.89,4.21,1.77,6.17.32.72.79,1.5,1.56,1.63.97.16,1.76-.81,2.04-1.75.61-2.04-.19-4.42-1.53-5.5Z"/>
  <path class="cls-7" d="m410.65,372.07c-1.43.42-2.8,1.08-4.01,1.96.13,1.03.71,2.04,1.64,2.51s2.18.32,2.85-.48c.53-.64.61-1.59.27-2.35-.34-.76-1.07-1.31-.74-1.64Z"/>
  <path class="cls-7" d="m441.68,398.66c-.89.73-1.55,1.71-2.22,2.65s-1.39,1.88-2.38,2.49-2.28.83-3.29.27-1.5-2.03-.79-2.95c.69-.89,2.02-.88,2.98-1.47.67-.4,1.12-1.08,1.63-1.66s1.18-1.14,1.96-1.15,1.57.79,2.1,1.83h0Z"/>
  <path class="cls-7" d="m440.07,390.92c-.4-.45-1.22-.27-1.52.25s-.17,1.2.18,1.7.86.84,1.36,1.17c.55.37,1.13.74,1.78.88s1.41-.03,1.8-.57c.53-.74.11-1.84-.62-2.36s-1.69-.63-2.96-1.05h0Z"/>
  <path class="cls-7" d="m435.49,385.6c-.6.8-1.2,1.61-1.79,2.42.31.85,1.31,1.39,2.2,1.18s1.54-1.14,1.43-2.04-.95-1.66-1.84-1.55h0Z"/>
  <path class="cls-7" d="m433.39,379.15c-.81,1.23-1.42,2.59-1.8,4.01.79.71,2.1.75,2.94.1s1.12-1.93.63-2.87-1.64-1.42-1.77-1.23Z"/>
  <path class="cls-7" d="m429.52,372.35c-.89,1.16-1.59,2.47-2.06,3.86,1.4.8,3.42.21,4.17-1.22.52-.98.27-2.48-.8-2.81-.62-.19-1.3.08-1.77.53s-.77,1.03.45-.36h0Z"/>
  <path class="cls-7" d="m439.62,373.53c-1.11-.14-2.54.12-2.8,1.2-.2.84.56,1.69,1.42,1.79s1.69-.4,2.22-1.08.81-1.51,1.07-2.33c-1.04-.16-2.09-.32-1.9.42h0Z"/>
  <path class="cls-5" d="m445.66,376.98c-1.19.36-2.31.95-3.3,1.71.04,1.15,1.06,2.18,2.21,2.24s2.26-.89,2.4-2.03c.14-1.14-.62-2.13-1.31-1.92h0Z"/>
  <path class="cls-8" d="m455.95,388.77c-.52.97-1.03,1.93-1.54,2.9-.43-.6-1.34-.6-2.02-.3s-1.24.81-1.92,1.09-1.61.21-1.98-.43c-.3-.52-.08-1.22.33-1.66s.97-.71,1.49-1.02c1.13-.66,2.13-1.56,2.91-2.61.35-.48.68-1,1.17-1.33s1.23-.4,1.64.02c.46.47.54,1.47,1.2,1.42.25-.02.45-.21.63-.39,1.17-1.21,2.34-2.42,3.52-3.64.1.94,1.64.97,2.03,1.83.21.46.02.99-.17,1.45-.38.94-.76,1.89-1.14,2.83-.37.92-.77,1.88-1.54,2.51s-2.03.77-2.7.04c-.47-.51-.52-1.28-.85-1.9s-1.28-1.04-1.07-.82h0Z"/>
  <path class="cls-8" d="m453.5,398.36c-.9.37-1.87.78-2.39,1.6s-.3,2.18.65,2.43c.52.14,1.09-.1,1.48-.47.93-.9.88-2.6.27-3.57h0Z"/>
  <path class="cls-8" d="m457.36,397.3l-3,.04c-.05,1.19.96,2.21,2.09,2.59s2.36.24,3.54.11c.19-1.01-.3-2.11-1.18-2.63s-2.08-.43-1.45-.11h0Z"/>
  <path class="cls-8" d="m461.4,404.5c-.43-.64-1.42-.72-2.05-.28s-.91,1.26-.86,2.02.37,1.48.75,2.15c.51.9,1.38,1.85,2.4,1.66.84-.16,1.35-1.05,1.5-1.89.24-1.4-.24-2.91-1.74-3.66Z"/>
  <path class="cls-2" d="m470.67,406.19h-4.09c-.33.52-.13,1.24.3,1.67s1.04.62,1.64.76c.82.18,1.7.27,2.48-.03s1.42-1.11,1.29-1.94-1.24-1.4-1.62-.46h0Z"/>
  <path class="cls-2" d="m469.8,395.42c-.38.33-.78.68-1.27.83s-1.09.05-1.38-.36c-.51-.72.18-1.66.83-2.26,2.18-2.02,4.35-4.04,6.53-6.05.77.47.75,1.66.25,2.4s-1.33,1.19-2.07,1.71c-1.74,1.23-3.09,3.02-2.89,3.73h0Z"/>
  <path class="cls-8" d="m456.36,375.22l-2.79,2.64c.64.91,1.83,1.46,2.91,1.21s1.94-1.39,1.73-2.48-1.44-1.75-1.85-1.36h0Z"/>
  <path class="cls-7" d="m437.1,363.51c.88,2.39,2.27,4.6,4.05,6.43.42.43.87.85,1.42,1.07s1.23.23,1.71-.13c.51-.39.67-1.11.55-1.74s-.49-1.19-.87-1.7c-1.21-1.65-2.68-3.11-4.34-4.3-.47-.34-1.05-.67-1.61-.5s-.72,1.15-.91.88h0Z"/>
  <path class="cls-8" d="m448.49,371.43c-.65.75-.22,2.02.61,2.57s1.89.59,2.89.61c.17-.82-.2-1.73-.89-2.2s-1.67-.49-2.61-.97h0Z"/>
  <path class="cls-10" d="m460.71,342.86c-.87.77-1.73,1.54-2.6,2.32.72,1.07,2.56,1.09,3.3.03s-.03-2.95-.7-2.34h0Z"/>
  <path class="cls-10" d="m470.76,342.57c-1.35-.23-2.76-.02-3.99.58.5,1.81,1.55,3.46,2.97,4.67.42.36.89.7,1.19,1.17s.39,1.13.04,1.57c-.51.64-1.6.45-2.17,1.03-.36.36-.4.95-.24,1.44s.49.89.81,1.29c.47.58,1.06,1.21,1.8,1.15.71-.05,1.21-.73,1.47-1.39s.39-1.4.84-1.95c.41-.5,1.03-.78,1.47-1.25.82-.87.9-2.2.7-3.38-.5-2.96-2.84-5.78-4.89-4.9h0Z"/>
  <path class="cls-7" d="m432.81,337.67l-2.84.94c1.09,1.85,2.57,3.46,4.32,4.7.35.25.79.49,1.19.35.63-.23.62-1.12.4-1.75-.68-2-2.27-3.68-3.07-4.24h0Z"/>
  <path class="cls-7" d="m418.65,327.97l-3.48,1.89c-.38.99.46,2.19,1.51,2.29s2.06-.78,2.23-1.82-.42-2.13-.26-2.36Z"/>
  <path class="cls-7" d="m411.4,331.87c-.08,1.09.03,2.19.33,3.24,1.32.11,2.53-1.32,2.18-2.61-.34-1.28-2.42-1.99-2.52-.63h0Z"/>
  <path class="cls-4" d="m442.02,317.53c-.08,1.49-.16,2.97-.24,4.46.75-.47,1.49-1.01,1.93-1.78s.49-1.82-.1-2.48-1.87-.61-1.58-.2h0Z"/>
  <path class="cls-5" d="m417.3,432.78c.17,1.74-.51,3.54-1.79,4.72-.19-.5-.39-1.02-.77-1.41s-.97-.61-1.46-.39c-.45.2-.69.69-.86,1.15-.66,1.8-.82,3.83-.11,5.61.71,1.78,2.4,3.21,4.31,3.31,1.71.08,3.42-.97,4.11-2.54.49,1.85,2.2,3.3,4.11,3.5,1.9.2,3.87-.88,4.73-2.59.24.34.66.55,1.32.84,3.55,1.01,6.68,3.42,8.57,6.59.43.73.89,1.57,1.71,1.79.74.2,1.49-.18,2.24-.36,2.14-.51,4.5.67,6.54-.17.92-.38,1.63-1.13,2.47-1.67,1.8-1.17,4.13-1.33,6.21-.79,1.77.46,3.8,1.37,5.29.3.48-.35.82-.86,1.29-1.23,2.17-1.73,5.5.41,8.11-.54,2-.73,2.91-2.99,3.59-5.01.27-.81.53-1.74.08-2.47-.57-.9-1.96-.89-2.86-.33s-1.49,1.51-2.21,2.3c-2.18,2.4-5.79,3.4-8.89,2.44.18-2.29.36-4.57.53-6.86-2.67,2.43-6.74,2.24-10.34,1.9-1.8-.17-3.61-.34-5.41-.52-.65-.06-1.34-.14-1.88-.51-.44-.31-.73-.79-1.15-1.13-.92-.75-2.29-.67-3.39-.23s-2.07,1.17-3.15,1.66c-3.97,1.8-8.64.04-12.33-2.27.5-.96,1-1.91,1.5-2.87-.56-.72-1.72-.64-2.49-.16s-1.32,1.25-2.03,1.83c-.7.58-1.72.97-2.52.53-.9-.5-1.02-1.7-1.17-2.72s-.7-2.23-1.88-1.72h0Z"/>
  <path class="cls-2" d="m483.2,398.39l1.9-1.76c-.05,1.02,1.45,1.57,1.47,2.59.02.76-.77,1.25-1.45,1.58-1.08.52-2.16,1.04-3.24,1.57-.28.14-.59.28-.9.22-.64-.11-.84-1.03-.5-1.58s.99-.83,1.59-1.07,1.25-.53,1.13-1.55h0Z"/>
  <path class="cls-2" d="m485.69,375.39c-.21.55-.73.92-1.14,1.34s-.78,1.02-.58,1.58c.21.58.96.79,1.57.67.93-.2,1.7-1.11,1.59-2.05s-1.22-1.67-1.43-1.53h0Z"/>
  <path class="cls-2" d="m490.48,377.26c.74.39,1.61.54,2.43.42.31-1.16,0-2.46-.78-3.36-.45-.51-1.12-.91-1.79-.76-.94.21-1.33,1.44-1.01,2.35s1.11,1.56,1.15,1.35h0Z"/>
  <path class="cls-2" d="m492.83,379.93c-.71.75-.78,2.02-.16,2.85s1.87,1.1,2.78.62c-.14.86-.29,1.75-.09,2.61.08.35.22.69.46.95.46.49,1.23.6,1.89.44s1.24-.55,1.8-.93c.11-.85.22-1.72,0-2.55s-.86-1.6-1.71-1.71c-.52-.07-1.09.11-1.56-.13-.64-.32-.74-1.17-1.15-1.76-.37-.54-1.05-.84-1.7-.77s-1.24.52-.57.38h0Z"/>
  <path class="cls-2" d="m506.8,386.94c-.82-.37-1.79-.31-2.64-.02s-1.61.79-2.37,1.29c-1.27.84-2.57,1.7-3.52,2.9s-1.51,2.81-1.08,4.27c.1.33.26.67.54.88.52.37,1.29.15,1.74-.3s.68-1.08.95-1.66c.16-.35.36-.72.73-.83.69-.21,1.2.63,1.44,1.32-.46.51-.42,1.34-.05,1.92s1.01.94,1.66,1.16c.65.22,1.47.28,1.93-.24.32-.36.34-.89.26-1.37-.28-1.6-1.72-2.92-3.34-3.05,1.45-1.21,2.91-2.42,4.36-3.63.64-.53,1.34-1.38.89-2.08-.24-.38-.74-.51-1.18-.45s-.83.3-.32-.11h0Z"/>
  <path class="cls-2" d="m508.39,400.05c-1.1-.04-2.2.45-2.9,1.3.33.74,1.15,1.17,1.96,1.27s1.62-.09,2.41-.27c.67-.15,1.44-.39,1.66-1.04.24-.73-.44-1.49-1.2-1.63s-1.51.16-1.93.37h0Z"/>
  <path class="cls-2" d="m514.1,405.2c-.82.32-1.57.8-2.2,1.4.7.52,1.63.72,2.48.53.57-.12,1.12-.43,1.42-.93s.31-1.19-.07-1.63-1.16-.49-1.63.62h0Z"/>
  <path class="cls-2" d="m529.21,398.48c-3.51,2.05-6.64,4.75-9.19,7.92-.39.49-.79,1.03-.82,1.66-.04.89.65,1.61,1.15,2.34.88,1.29,1.28,2.91,1.08,4.46-.05.44-.12.97.23,1.24.5.38,1.16-.2,1.51-.71,1.17-1.71,2.35-3.43,3.52-5.14,1.12-1.64,2.25-3.29,3.03-5.11s1.2-3.86.83-5.8c-.1-.54-.31-1.13-.79-1.39s-1.26.09-.55.55h0Z"/>
  <path class="cls-2" d="m508.24,418.34c-1.3,1.11-2.29,2.59-2.83,4.22.32-.13.68.23.66.58s-.3.63-.6.8-.63.29-.91.5c-.99.74-.81,2.39.07,3.26s2.18,1.13,3.41,1.26c.26.46-.05,1.02-.25,1.51s-.16,1.24.36,1.33c.2.04.4-.05.57-.15.89-.52,1.41-1.6,1.27-2.61-.25-1.83-2.37-3.24-1.98-5.05.29-1.33,1.87-2.15,1.94-3.51.04-.77-.51-1.53-1.26-1.73s-1.61.18-.45-.42h0Z"/>
  <path class="cls-2" d="m503.56,430.64c-1.5.89-2.84,2.04-3.93,3.4.05.62.71,1.04,1.33,1.04s1.19-.32,1.71-.64c.51-.32,1.01-.66,1.36-1.15s.51-1.14.27-1.69-.94-.89-.74-.96h0Z"/>
  <path class="cls-7" d="m472.17,253.41c-1.92-.98-4.24-1.15-6.28-.47-1.71,2.86,1.8,4.91,2.8,8.09,1.24,3.93-3.21,6.77-6.89,6.89s-7.92-.81-10.74,1.56c1.1-.44,2.2-.88,3.3-1.31-6.58-2.42-14.28-2.79-21.23-1.92l-.15-4.67c-13.86-3.98-28.64,10.86-42.85,8.37-.77,2.2-1.82,4.67-4.04,5.36-1.62.5-3.34-.12-5-.45-4.75-.93-9.85.74-13.05,4.36-1.32,1.49-2.5,3.44-4.35,4.17s-4.49-.88-3.85-2.77c-2.59,2.04-9.84,5.99-9.84,5.99.23,2.67.6,5.67-.73,7.99s-4.82,3.58-6.76,1.73c.31,2.23.5,4.51.07,6.72s-1.72,4.39-3.79,5.26c-1.38.58-3,.41-4.37,1.01s-2.46,2.36-1.57,3.56c.47.64,1.32.86,1.89,1.4,1.27,1.19-.3,4.42-1.45,5.73s-2.5,1.59-3.57,2.96c0,0,.14,5.3,1.73,7.3,5.75-.17,11.1,5.03,11.1,10.78,2.76-3.17,8.08-3.67,11.39-1.06-1.6,1.73-4.34,1.47-6.66,1.94s-4.71,3.13-3.16,4.9c-2.02-2.09-6.33-.08-6.03,2.81.3,2.89,4.93,3.97,6.48,1.51.87-1.38.78-3.36,2.05-4.39,3.49,3.81,5.69,8.78,6.17,13.92,2.67.59,4.91-3.4,3.01-5.37,2.07-.11,3.94,2.05,3.52,4.08,4.87-2.13,10.12-3.39,15.42-3.71-1.06.76-2.12,1.51-3.19,2.27,4.73,1.48,10.28-.19,13.4-4.04-.64,1.86.34,4.14,2.14,4.94-1.09-.69.27-2.52,1.54-2.26s2.05,1.48,2.96,2.39c2.6,2.61,7.22,2.84,10.07.51.15,1.1.3,2.2.45,3.3-1.84,1.59-4.23,2.53-6.66,2.62,1.21-.02,1.29,2.07.21,2.64s-2.38.09-3.49-.38c-5.38-2.3-10.77-4.61-16.15-6.91-1.8-.77-3.75-1.56-5.66-1.15s-3.55,2.6-2.64,4.33c-3.73.49-5.95.55-8.17.6,1.24.62,1.14,2.56.21,3.59s-2.33,1.47-3.57,2.11-2.46,1.73-2.42,3.12c.04,1.49,1.45,2.51,2.71,3.3,3.23,2.02,6.46,4.16,8.93,7.07,2.46,2.91,4.1,6.73,3.6,10.5-2.09.04-3.46,2.49-3.16,4.57s1.71,3.79,3.07,5.38c1.03,1.21,2.47,2.54,3.97,2.04,1.99-.67,1.7-3.55,1.11-5.57-.59-2.02-.47-5.02,1.62-5.27,1.66-.2,2.71,1.69,3.28,3.26,1.62,4.43,3.24,8.86,4.86,13.3.64,1.75,2.49,3.88,3.9,2.66.77-.67.63-1.88.39-2.86-.5-2.02-1.18-4.1-.8-6.14s2.33-3.99,4.35-3.48c1.26.32,2.12,1.44,2.88,2.49,2.5,3.45,5,6.89,7.51,10.34-.36-8.22-2.61-16.36-6.52-23.6-2.05-3.78-4.63-7.98-3.3-12.07,3.3,1.95,6.03,4.86,7.77,8.27-1.03-1.05.48-2.92,1.95-2.8s2.6,1.29,3.75,2.21,2.8,1.66,4.05.86c1.56-1,1-3.57-.43-4.76-1.43-1.18-3.36-1.55-4.98-2.44s-3.05-2.82-2.28-4.51c-.86-3.43-3.66-5.51-6.8-6.29,2.93-.98,5.85-1.96,8.78-2.95,1.36-.46,2.78-.92,4.21-.74,3.3.41,5.15,3.84,7.14,6.5s6.07,4.84,8.38,2.46c-3-1.05-3.29-5.12-2.99-8.28.29-3.16.13-7.2-2.81-8.4-1.77-.72-4.23-.18-5.31-1.77-.92-1.36.12-3.35,1.64-3.99,2.54-1.08,5.5.61,7.07,2.87s2.23,5.02,3.46,7.49,3.4,4.82,6.16,4.89,5.26-3.46,3.47-5.56c-1.86-2.18-5.72-.62-8.08-2.23-3.75-2.56-.13-9.73-3.71-12.52-1.73-1.34-4.17-.84-6.36-.88-5.34-.09-10.33-4.27-11.35-9.52-.83,1.6-3.05,1.55-4.85,1.71s-3.99,1.64-3.2,3.25c.48.97,1.74,1.18,2.81,1.39,4.44.86,8.43,3.85,10.48,7.89.27.54.49,1.25.09,1.7-.46.51-1.3.23-1.92-.09-6.71-3.46-13.43-6.92-20.14-10.38-.76-.39-1.64-.99-1.54-1.84s1.84-.6,1.37.11c1.73-.2,3.54-.42,4.99-1.39s2.39-2.94,1.62-4.51c-.69-1.41-2.49-2.09-2.97-3.58-.79-2.43,2.77-4.25,5.14-3.31s3.91,3.22,5.96,4.73c2.06,1.51,5.55,1.89,6.7-.39-3.21-2.61-6.42-5.21-9.62-7.82-5.35-4.35-10.83-8.85-14.12-14.91-1.73-3.18-2.57-7.63.13-10.04-.17-1.89-.29-3.84.24-5.66s1.82-3.54,3.64-4.08,4.1.47,4.53,2.32-1.71,3.87-3.41,3.02c4.31,5.31,12.49,7.01,18.56,3.86,2.1-1.07,3.95-5.05,2.58-8.01-1.05-2.27-3.58-4.81-1.95-6.7.94-1.09,2.7-.92,4-.28s2.43,1.63,3.83,1.96c3.83.92,6.77-3.22,10.27-5.02,1.54-.79,3.25-1.13,4.95-1.47,3.95-.78,7.89-1.56,11.84-2.34,5.23,1.58,15.47,4.58,20.7,6.17,0,0,1.41-2.89,2.96-4.1s3.28-2.69,3.2-4.65c-.09-2.08-2.28-3.89-1.66-5.87.59-1.9,3.12-2.17,4.74-3.32,3.95-2.81.58-12.15-2.5-12.71"/>
  <path class="cls-7" d="m238.98,221.52c-1.3.1-2.67.23-3.75.96s-1.74,2.27-1.06,3.38c.46.75,1.37,1.09,2.24,1.18,1.69.17,3.58-.63,4.22-2.21s-.46-3.4-1.64-3.31h0Z"/>
  <path class="cls-9" d="m206.37,163.17l-1.99-3.03c-1.32,3.12,0,7.12,2.93,8.82.65.38,1.5.64,2.14.24.99-.62.63-2.15.03-3.15-.94-1.57-2.19-2.95-3.12-2.88h0Z"/>
  <path class="cls-7" d="m87.79,215.2l-3.03-.09c-.53,3.04-1.05,6.08-1.58,9.12-.38-1.4-1.92-2.24-3.38-2.27s-2.85.55-4.18,1.12c-3.82,1.64-7.8,3.39-10.41,6.63-.46.57-.87,1.39-.45,1.99.66.93,2.67.32,2.89,1.44.14.72-.79,1.19-1.52,1.18s-1.56-.22-2.16.2c-.93.66-.45,2.2.45,2.89s2.09.95,2.94,1.7,1.09,2.4.05,2.85c-1-1.11-3.14-.57-3.62.85s.68,3.08,2.17,3.26,2.95-1.01,3.24-2.47c.24.95.49,1.9.73,2.85-1.36-.99-3.53-.56-4.42.87s-.3,3.56,1.19,4.34,3.58.04,4.25-1.51c-2.24,3.28-1.12,8.32,2.26,10.41,1.15.71,2.62,1.1,3.86.56,1.38-.6,2.07-2.11,2.64-3.49,1.26-3.03,2.51-6.05,3.77-9.08,1.64-3.95,3.29-7.95,3.97-12.18s.28-8.77-1.95-12.42c1.78-1.52,3.68-3.29,3.91-5.62s-2.52-4.79-1.63-3.1h0Z"/>
  <path class="cls-7" d="m94.76,213.63c-.43,1.43-.51,2.97-.21,4.44,1.73.24,3.37-1.68,2.86-3.35s-2.92-2.37-2.65-1.09Z"/>
  <path class="cls-7" d="m102.35,223.85l-1.56-2.43c1.43.03,2.83-.37,4.24-.61s2.93-.29,4.2.38,2.13,2.26,1.57,3.58c-.64,1.5-2.64,1.85-4.24,1.54s-3.14-1.07-4.76-.98c-.17-.67-.34-1.33.55-1.48h0Z"/>
  <path class="cls-7" d="m99.66,227.11l-1.42,4.24c.99.52,2.26.54,3.18-.09s1.34-1.97.79-2.94-2.06-1.28-2.55-1.21h0Z"/>
  <path class="cls-7" d="m104.53,233.35l-4.22,2.89c.88.43,1.47,1.27,2.14,1.98s1.59,1.35,2.55,1.18c1.15-.2,1.82-1.53,1.67-2.69s-.93-2.13-2.14-3.36h0Z"/>
  <path class="cls-7" d="m116.78,235.53c-.53,1.26-.76,2.65-.67,4.01,1.17.13,2.44-.05,3.34-.8s1.3-2.18.66-3.16-2.81-1.3-3.33-.05h0Z"/>
  <path class="cls-7" d="m57.04,266.06c-1.43,1.24-2.91,2.55-3.58,4.32s-.24,4.11,1.44,4.97c1.65.84,3.61-.03,5.25-.89,3.97-2.09,7.95-4.18,11.92-6.26,1.76-.93,3.58-1.87,5.56-2.07s4.19.51,5.19,2.23c.68,1.18.71,2.64,1.29,3.87s2.22,2.22,3.27,1.36c-1.74,1.83-1.2,4.78-.39,7.17s1.77,5.09.58,7.32c-.98,1.84-3.2,2.8-4.12,4.67-.61,1.25-.55,2.72-.51,4.11.23,8.07-.81,16.17-3.07,23.92-.47,1.23-.97,2.49-1.9,3.43s-2.41,1.46-3.6.89c-1.06-.51-1.59-1.69-2.37-2.57-1.61-1.82-4.56-2.26-6.64-1s-3.04,4.09-2.16,6.35c-1.82,1.06-3.74,2.14-5.85,2.23s-4.43-1.19-4.76-3.27c-.17-1.07.12-2.35-.67-3.08-.82-.76-2.27-.22-2.81.76s-.47,2.17-.37,3.28c-.63-3-2.27-5.79-4.58-7.8,1.57.35,3.13.71,4.7,1.06-1.12-5.15.51-10.81,4.2-14.58,1.17-1.19,2.6-2.33,2.93-3.97s-1.45-3.62-2.85-2.71c1.47-3.64,2.8-7.49,2.43-11.4s-2.88-7.87-6.71-8.73c1.29-5.44,3.59-10.64,8.18-13.63h0Z"/>
  <path class="cls-7" d="m184.83,287.28l-4.69-.41c-.04,1.34.31,2.76,1.28,3.69s2.65,1.15,3.65.25.88-3.42-.24-3.52Z"/>
  <path class="cls-7" d="m213.41,343.45c-1.18-.49-2.52-.61-3.77-.34-.61.93-.4,2.3.45,3.01s2.24.66,3.04-.11c.76-.83,1.25-2.16.28-2.57h0Z"/>
  <path class="cls-7" d="m202.59,348.21l-2.86,2.35c2.13-.03,4.15,1.67,4.48,3.78.13.84.11,1.88.85,2.3.55.32,1.3.06,1.71-.44s.51-1.17.51-1.81c0-2.88-2.23-5.6-4.69-6.18h0Z"/>
  <path class="cls-7" d="m131.24,362.82c.83,1.38,2.21,2.41,3.76,2.82.82-.73,1.32-1.86,1.1-2.94s-1.3-1.96-2.38-1.79-1.82,1.58-2.48,1.9h0Z"/>
  <path class="cls-7" d="m124.91,395.12c.18,1.04.38,2.09.94,2.98s1.54,1.59,2.59,1.51c1.18-.09,2.14-1.24,2.12-2.42s-.97-2.25-2.12-2.53-2.42.21-3.53.45h0Z"/>
  <path class="cls-6" d="m137.75,430.64c-.8.74-1.37,1.72-1.63,2.78.79.73,2.3.27,2.55-.77s-.82-2.11-.92-2.01Z"/>
  <path class="cls-6" d="m183.51,419.1c-1.02.47-1.85,1.33-2.27,2.36.98-.17,2.01-.33,2.94.02s1.68,1.39,1.34,2.32c-.11.3-.32.56-.46.86-.45.96,0,2.15.79,2.86s1.82,1.08,2.82,1.41c1.29.43,2.91.79,3.84-.2.68-.73.63-1.9.23-2.81-.73-1.66-2.53-2.8-4.34-2.74-.83.02-1.82.22-2.37-.41-.48-.54-.3-1.37-.4-2.08-.21-1.49-1.97-2.53-2.11-1.59h0Z"/>
  <path class="cls-7" d="m219.31,358.26l2.4,1.22c-5.68,7.15-10.95,14.62-15.79,22.36-.79,1.12-.65,2.81.32,3.78s2.65,1.13,3.78.36c.26,2.73.51,5.46.77,8.2.11,1.14.17,2.43-.59,3.29s-2.62.54-2.56-.61c-.36,2.98-1.32,5.89-2.82,8.48-5.79.52-11.76-2.44-14.87-7.36-1.22-1.94-2.15-4.27-4.18-5.33-2.01-1.05-4.43-.51-6.69-.59-10.97-.42-17.03-15.28-27.98-15.95-2.6-.16-5.58.43-7.51-1.31-1.3-1.16-1.67-3.09-1.39-4.81s1.13-3.29,1.96-4.81c-1.11.48-2.26.97-3.46.93s-2.48-.76-2.75-1.93.98-2.52,2.09-2.06c-.08,1.5,1.86,2.43,3.28,1.94s2.33-1.83,3.1-3.12,1.57-2.67,2.9-3.35,3.36-.19,3.68,1.27c-1.28,1.16.11,3.52,1.83,3.67s3.26-1,4.59-2.12,2.8-2.32,4.53-2.27c3.83.1,5.57,6.01,9.4,5.99.95,0,1.86-.4,2.81-.39s2.03.72,1.88,1.66c-.53-1.74,2.1-2.9,3.77-2.18s2.82,2.35,4.48,3.11c2.79,1.29,6.54-.74,6.99-3.77,4.2-.14,8.33-1.82,11.45-4.63,2.06,3.3,7.65,3.42,14.57.35h0Z"/>
  <path class="cls-1" d="m188.09,122.96c-2.11-.29-4.37-.56-6.26.43s-2.94,3.77-1.46,5.3c1.26,1.3,3.75,1.19,4.49,2.85.56,1.27-.32,2.65-.81,3.95-1.05,2.82,0,6.28,2.45,8.03"/>
  <path class="cls-1" d="m183.31,152.15c7.01,3.25,16.03,1.46,21.25-4.24,2.36,4.05,6.39,7.09,10.93,8.24,2.93.74,7.07-.16,7.21-3.18.15-3.2-4.54-6.27-2.46-8.7,1.73-2.03,5.54.35,7.59-1.35,2.29-1.91-.53-5.44-.63-8.42-.14-4.08,4.81-6.15,8.84-6.77,2.5-.39,5.06-.67,7.37-1.7s2.77-1.91,3.19-4.4"/>
  <path class="cls-1" d="m106.21,84.41c1.2,2.99-1.72,5.82-3.06,8.75s-1.29,7.43,1.83,8.25c1.15-1.14,3.26-.48,4.15.87s.92,3.07.92,4.69c3.51-1.99,7.46-3.2,11.48-3.52-1.63,3.94-1.63,8.54,0,12.48.08,1.36-1.8,2.07-3.05,1.53s-2.03-1.77-2.95-2.77-2.3-1.88-3.58-1.4c-1.64.62-1.78,3-.96,4.55s2.24,2.75,2.94,4.36.14,4.02-1.6,4.25c-1.74.23-2.83-1.76-3.53-3.38s-2.21-3.48-3.82-2.78c-1.6.69-1.86,3.53-3.6,3.52-1.17,0-1.81-1.44-1.71-2.6s.66-2.27.62-3.44c-.06-1.73-1.63-3.28-3.36-3.31s-3.36,1.46-3.48,3.19c1.63,1.91,2,4.81.89,7.07-3.8,2.27-5.09,7.89-2.65,11.59-5.08.02-9.3-5.68-7.79-10.53-2.6-.01-5.12-1.71-6.1-4.12s-.36-5.39,1.5-7.21c-4.93-.71-10.04,3.28-10.55,8.23-.13,1.25-.03,2.62-.76,3.63-1.22,1.69-3.86,1.32-5.72.39s-3.74-2.29-5.81-2.01c-2.31.31-3.82,2.52-5.84,3.69s-5.64.04-4.94-2.18"/>
  <path class="cls-1" d="m120.17,108.52c3.42-2.31,8.77-.73,10.4,3.06.32-4.63,6.16-6.33,10.77-6.83,6.03-.66,12.06-1.32,18.09-1.97-3.72,2.5-3.04,8.6.18,11.72s7.9,4.04,12.31,4.82c11.51,2.05,23.01,4.09,34.52,6.14,2.61-5.24,9.59-7.78,14.96-5.46,1.97.85,4.6,2.11,5.9.41.85-1.11.62-3.1,1.95-3.53,1.35-.44,2.34,1.37,3.69,1.82,1.47.49,5.74-2.42,6.82-3.54"/>
  <path class="cls-7" d="m161.66,342.15c-.63,1.5-.69,3.23-.16,4.77,1.38.33,2.91-.79,3.02-2.2s-1.25-2.75-2.86-2.57h0Z"/>
  <path class="cls-3" d="m466.62,306.98c-.85.41-1.56,1.09-2,1.92.7.94,2.18,1.18,3.14.51s1.24-2.15.59-3.12-2.11-1.29-1.73.69h0Z"/>
  <path class="cls-4" d="m463.59,295.82c-1.91.24-3.79.77-5.55,1.57-.51,1.26.33,2.78,1.57,3.32s2.72.27,3.9-.39c.92-.52,1.75-1.3,2.07-2.31s.03-2.25-.86-2.83-2.31-.2-1.14.64h0Z"/>
  <path class="cls-4" d="m454.82,290.92c-.76-.4-1.55-.81-2.4-.85s-1.8.38-2.07,1.2c-.21.63.04,1.35.46,1.86,1.19,1.43,3.4,1.44,5.18.9.6-.18,1.2-.42,1.64-.86s.68-1.13.45-1.71c-.35-.87-1.48-1.05-2.42-1.1-.69-.04-1.4-.08-2.07.11s-1.3.65,1.23.45h0Z"/>
  <path class="cls-4" d="m444.15,303.75l-2.64-.02c.86,2.65,3.6,4.14,6.1,5.36.46.23.96.46,1.47.39.91-.12,1.4-1.11,1.74-1.96.38-.95.76-1.93.73-2.95s-.59-2.1-1.56-2.41c-.98-.32-2.02.21-2.92.73-.92.52-1.82.89-2.93.88h0Z"/>
  <path class="cls-4" d="m431.19,283.71c-1.05.86-2.1,1.72-3.15,2.59.14.92.83,1.69,1.64,2.16s1.73.69,2.64.91c.71.17,1.48.33,2.15.05.81-.33,1.26-1.21,1.43-2.06.28-1.39-.07-2.96-1.11-3.92-1.05-.95-2.4-.71-3.59.27Z"/>
  <path class="cls-4" d="m420.09,295.73c-.36.77-.53,1.62-.49,2.47,1.49-.52,3.33.34,3.87,1.83.21.59.25,1.23.49,1.8s.8,1.1,1.42.99c.56-.1.91-.72.91-1.3s-.28-1.11-.56-1.61c-.63-1.13-1.33-2.25-2.32-3.08s-2.33-1.33-3.32-1.11h0Z"/>
  <path class="cls-5" d="m412.48,301.55c-.56.89-1.12,1.78-1.69,2.67.08.68.86,1.03,1.54,1.12s1.43.07,1.96.5c.8.65.68,2,1.43,2.7.7.64,1.93.41,2.5-.35s.54-1.85.13-2.7-1.16-1.5-1.95-2.03c-1.29-.87-2.76-1.48-3.93-1.91h0Z"/>
  <path class="cls-7" d="m252.52,231.57c.23,1.07.51,2.22,1.36,2.92s2.43.54,2.71-.52c.21-.77-.39-1.57-1.12-1.87s-1.56-.23-2.95-.54Z"/>
  <path class="cls-11" d="m403.36,305.26c-.91.83-.88,2.47.06,3.26s2.56.56,3.23-.46c.14.07.27.14.41.21.49-1.32-.15-2.95-1.41-3.58s-2.95-.15-2.29.57Z"/>
  <path class="cls-5" d="m323.05,323.14c-.78-1.53-.67-3.34-.94-5.04s-1.2-3.56-2.89-3.85c-1.52-.26-3.04,1.02-3.33,2.54-.29,1.52.44,3.1,1.57,4.16.86.81,1.96,1.38,2.66,2.32.57.76.85,1.72,1.48,2.43,1.21,1.35,3.28,1.39,5.09,1.32.69-.11.99-1.05.68-1.68s-1-.98-1.67-1.18-1.39-.31-1.99-.66-1.1-1.05-.65-.36h0Z"/>
</svg>