<?xml version="1.0" encoding="UTF-8"?><svg id="west_2" xmlns="http://www.w3.org/2000/svg" width="549.066" height="535.339" viewBox="0 0 549.066 535.339"><defs><style>.cls-1,.cls-2{fill:#9ac793;}.cls-1,.cls-2,.cls-3{stroke-miterlimit:10;}.cls-1,.cls-3{stroke:#eeedeb;}.cls-2{stroke:#efedeb;}.cls-3{fill:none;}</style></defs><path class="cls-1" d="M297.79,480.167c.019-1.768-.394-4.078-2.144-4.332-.578-.084-1.157,.108-1.705,.311-4.235,1.573-8.154,3.99-11.461,7.068-.484,.45-.971,.941-1.172,1.571s-.014,1.432,.578,1.724c.868,.428,1.792-.429,2.39-1.19,.687-.874,1.46-1.789,2.536-2.069s2.462,.462,2.383,1.571c-.09,1.263-1.89,2.058-1.64,3.299,.178,.882,1.288,1.204,2.185,1.144s1.856-.31,2.658,.098c.674,.343,1.069,1.079,1.72,1.464,1.182,.7,2.679,.022,3.849-.698,1.271-.783,2.534-1.649,3.413-2.857s1.317-2.828,.788-4.225-2.206-2.364-4.381-2.879Z"/><path class="cls-1" d="M309.388,478.547l-2.46,1.037c1.284,1.881,3.852,2.774,6.026,2.095-.736,.734-.281,2.17,.696,2.525s2.127-.246,2.603-1.17,.374-2.062-.033-3.018c-1.199-2.821-5.163-4.016-6.832-1.469Z"/><path class="cls-1" d="M264.699,493.715c.835-.452,1.698-.929,2.261-1.694s.731-1.909,.128-2.642c-.583-.709-1.628-.793-2.543-.727-1.424,.103-2.894,.469-3.957,1.422s-1.587,2.608-.913,3.866,2.709,1.631,3.566,.489c-.954,1.272-1.909,2.544-2.863,3.817,1,1.403,3.387,1.468,4.462,.121s.483-3.66-.142-4.652Z"/><path class="cls-1" d="M289.47,492.051c-1.485,.538-2.518,2.124-2.409,3.7,1.028,1.237,3.279,1.079,4.126-.289s-.119-3.99-1.716-3.411Z"/><path class="cls-1" d="M256.273,272.779l-4.265,1.796c.835,.518,1.704,1.049,2.679,1.169s2.09-.293,2.466-1.201-.315-2.003-.881-1.764Z"/><path class="cls-1" d="M259.379,279.201l-.363,2.629c.258,.175,.516,.351,.773,.526,1.184-.414,2.14-1.431,2.48-2.638-1.393-.817-3.226-.818-2.891-.517Z"/><path class="cls-1" d="M215.294,283.748l1.538,1.323c.735-.079,1.331-.82,1.251-1.555-.969-.734-2.535-.474-2.789,.232Z"/><path class="cls-1" d="M234.587,312.704l3.529,3.152c.072-.982,.077-2-.294-2.912s-1.197-1.699-2.18-1.754-1.911,.75-1.056,1.514Z"/><path class="cls-1" d="M243.528,329.044l2.378-1.359c-.003-.357-.006-.714-.008-1.072-1.246-.693-3.05,.489-2.37,2.43Z"/><path class="cls-1" d="M246.106,323.775l2.519-1.415c-1.026-.84-2.823-.368-2.519,1.415Z"/><path class="cls-1" d="M222.258,250.507c-.206,.832-1.004,1.368-1.778,1.735s-1.624,.675-2.166,1.339-.567,1.839,.193,2.235c.706,.368,1.535-.138,2.168-.622,.67-.512,1.356-1.043,1.784-1.77s.538-1.707,.042-2.389-1.688-.803-.243-.528Z"/><path class="cls-1" d="M231.434,206.31c-1.149,.533-2.614,.289-3.528-.587-.556-.533-.95-1.29-1.669-1.567-.615-.236-1.302-.054-1.934,.13-1.682,.49-3.364,.979-5.046,1.469-.754-1.76-3.393-2.324-4.8-1.026,.638-.065,.83,.997,.328,1.396s-1.226,.292-1.848,.136-1.311-.333-1.877-.032c-.72,.384-.893,1.355-1.495,1.907-.709,.648-1.87,.545-2.677,.026s-1.345-1.358-1.857-2.171c.429,1.294-.84,2.527-2.087,3.079s-2.722,.907-3.453,2.058c-.839-1.324-2.788-1.787-4.133-.982l-.339,1.077c-.169-1.279-1.787-1.756-3.075-1.695s-2.739,.318-3.737-.499c-.1,.65-.2,1.3-.301,1.95-.849-.539-1.293-1.645-1.052-2.621-.609,.244-1.273,.492-1.905,.316s-1.106-.993-.703-1.511c.186-.24,.494-.343,.784-.434,1.814-.571,3.627-1.142,5.441-1.713-2.152-1.088-4.78-1.189-7.01-.271-.711,.293-1.579,.669-2.183,.192-.554-.437-.446-1.368,.039-1.881s1.207-.711,1.895-.869c2.029-.465,4.094-.769,6.17-.908-.742-.913-2.154-.803-3.295-.513s-2.426,.656-3.427,.037c-.714-.441-1.15-1.325-1.963-1.53-.368-.093-.778-.031-1.113-.211-.81-.434-.369-1.771,.445-2.197,.875-.457,1.924-.363,2.904-.252s2.025,.217,2.91-.221,1.458-1.648,.879-2.447c-.375-.518-1.066-.678-1.698-.774-2.908-.44-5.901-.31-8.76,.38,2.57-3.181,7.756-3.807,11.009-1.328,.487,.371,.97,.817,1.578,.894s1.32-.474,1.117-1.052c-.085-.243-.302-.412-.45-.623-.563-.802,.058-1.995,.961-2.376s1.933-.197,2.894-.007c-.957-1.221-2.256-2.17-3.71-2.71,.518-1.097,2.031-1.582,2.215-.977,1.288-.005,2.601-.013,3.826-.411s2.372-1.253,2.788-2.472l-.123,.528c-.772-1.52-.086-3.607,1.437-4.372-1.745-.208-3.348-1.361-4.1-2.95,1.636,.412,3.271,.823,4.907,1.235,1.195,.301,2.406,.604,3.639,.595,.605-.004,1.338-.188,1.498-.772,.156-.57-.395-1.124-.972-1.249s-1.174,.03-1.763,.073c-1.624,.121-3.285-.679-4.203-2.024,.009-.345,.018-.689,.027-1.034-.49,.363-1.025,.742-1.635,.747s-1.25-.571-1.064-1.151c.162-.505,.843-.675,1.335-.476s.833,.644,1.15,1.07c.774,.198,1.241-1.033,.748-1.661s-1.385-.738-2.182-.8c-1.453-.111-2.906-.223-4.36-.334,.524-1.379,.316-3.014-.536-4.218-.353-.499-.828-.976-.861-1.586s.786-1.204,1.18-.736c-.225,1.623,.933,3.321,2.527,3.705,.486,.117,1.027,.115,1.451-.149s.67-.844,.445-1.29c-.382-.753-1.568-.526-2.231-1.05-.516-.408-.579-1.2-.325-1.807s.755-1.069,1.24-1.513c1.218,1.094,2.436,2.189,3.727,3.548,.92,.027,1.961-.272,2.369-1.097,.456-.921-.119-2.072-.964-2.656s-1.892-.77-2.879-1.056-2.012-.745-2.514-1.641c-.638-1.14-.218-2.568,.322-3.758,.678-1.491,1.834-3.089,3.472-3.067,.22,.764-.217,1.565-.755,2.15s-1.199,1.074-1.589,1.767c-.41,.728-.443,1.712,.091,2.354s1.68,.725,2.175,.053c.388-.527,.278-1.251,.322-1.905,.08-1.192,.768-2.326,1.788-2.947s2.344-.712,4.073,.348c.449-.846,1.854-.388,2.275,.473s.314,1.888,.625,2.794,1.462,1.685,2.19,1.063c.224-.191,.353-.478,.589-.653,.463-.345,1.116-.138,1.651,.081,1.388,.569,2.777,1.138,4.165,1.707,.197-1.237,.493-2.627,1.561-3.281,.733-.449,1.646-.426,2.5-.518s1.804-.399,2.157-1.182c.457-1.016-.446-2.224-1.522-2.511s-2.208,.063-3.267,.41c.299-.397-.092-.966-.536-1.189s-.987-.323-1.286-.721c-.514-.682,.135-1.717,.953-1.963s1.691-.003,2.54,.087,1.85-.051,2.298-.779c.432-.703,.122-1.669-.479-2.234s-1.419-.825-2.207-1.067c.017-.541,.461-1.038,.997-1.116s1.102,.272,1.182,1.029l2.173-.29c-.246-.282-.033-.756,.301-.924s.728-.133,1.102-.138,.79-.076,1.014-.375c.386-.516-.066-1.226-.5-1.702,1.983-.058,3.556,1.576,5.505,3.052,1.838-.484,3.527-1.519,4.793-2.936,.305-.341,.599-.714,1.011-.913s.987-.155,1.232,.231c.329,.518-.113,1.274,.214,1.794,.304,.483,1.011,.414,1.578,.348s1.325,.076,1.395,.643c.042,.345-.217,.65-.284,.991-.07,.358,.076,.718,.199,1.062s.222,.734,.066,1.064-.682,.477-1.001,.341c-.041,.237,.112,.473,.313,.604s.444,.179,.68,.224c.792,.151,1.631,.3,2.386,.018,.563-.21,1.052-.65,1.651-.695,.729-.055,1.43,.496,2.145,.344,.357-.076,.653-.317,.973-.494s.729-.287,.926-.007c.616,2.643,1.232,5.287,1.848,7.93,.158,.676,.315,1.352,.473,2.028,.315,1.352,.63,2.703,.945,4.055,.301,1.29,.602,2.63,.332,3.927-.496,2.383-2.727,3.938-4.779,5.246,.584-.098,.499-1.111-.065-1.294s-1.16,.245-1.453,.76-.392,1.117-.647,1.652-.763,1.032-1.352,.973c-.598-.059-.981-.635-1.366-1.096s-1.047-.878-1.547-.545c-.488,.325-.385,1.053-.268,1.628s.07,1.354-.494,1.514c-.124,.035-.26,.032-.374,.092-.269,.141-.269,.519-.23,.821,.215,1.692,.43,3.383,.644,5.075,.094,.74,.187,1.495,.043,2.226-.146,.742-.528,1.413-.803,2.117-.996,2.556-.548,5.419-.21,8.244-.013,1.004-.632,1.903-1.344,2.611s-1.542,1.302-2.168,2.088c-.77,.967-1.191,2.205-1.171,3.441,.005,.322,.038,.653-.065,.958-.201,.597-.855,.912-1.468,1.056s-1.272,.192-1.803,.531-.857,1.12-.459,1.608c.175,.214,.443,.322,.681,.462s.472,.355,.48,.631c.007,.231-.146,.435-.306,.602-.439,.461-.989,.815-1.589,1.025"/><path class="cls-1" d="M269.291,84.502l-1.329,1.05c.253,.419,.786,.546,1.238,.733s.922,.613,.785,1.082c-.139,.474-.817,.568-1.246,.324s-.691-.694-1.014-1.068-.803-.704-1.28-.575c-.558,.151-.779,.83-.785,1.408s.105,1.191-.15,1.71c-.533,1.083-2.109,.94-3.184,1.486-.658,.334-1.127,.939-1.597,1.507s-.996,1.142-1.698,1.37-1.614-.032-1.862-.726c-.325-.908,.6-1.755,1.446-2.22,.469-.258,.958-.499,1.344-.871s.656-.911,.558-1.437-.663-.966-1.172-.799c-.402,.132-.625,.555-.96,.814s-.997,.192-.989-.232c.003-.127,.071-.242,.138-.351,.884-1.436,1.767-2.871,2.651-4.307,.192,.646,.509,1.406,1.176,1.5,.382,.054,.75-.143,1.086-.332,1.932-1.092,3.863-2.183,5.795-3.275,.65-.367,1.431-.742,2.108-.426,.763,.357,.912,1.45,.525,2.198s-1.195,1.13-1.583,1.436Z"/><path class="cls-1" d="M255.143,93.692c-.679-.266-1.377-.536-2.106-.549s-1.51,.283-1.874,.915-.126,1.596,.567,1.826c.297,.098,.672,.082,.853,.337,.206,.29-.013,.699-.289,.923s-.626,.392-.78,.712c-.171,.355-.044,.772,.011,1.162,.153,1.076-.271,2.152-.801,3.1-1.031,1.843-2.503,3.436-4.259,4.608-.686,.458-1.423,.86-1.992,1.457s-.952,1.453-.734,2.248c1.853-1.061,3.823-2.249,4.671-4.208,.189-.437,.338-.932,.727-1.207,.493-.349,1.197-.218,1.719-.521,.853-.494,.739-1.728,1.013-2.675,.273-.943,1.007-1.681,1.783-2.282s1.631-1.114,2.305-1.828,1.159-1.698,.977-2.663-1.231-1.771-1.791-1.357Z"/><path class="cls-1" d="M264.889,96.793l-1.904,.451,.034,2.942c-.923,.2-1.87-.814-1.607-1.721,.056-.195,.157-.39,.119-.589-.087-.458-.799-.46-1.13-.131s-.446,.816-.73,1.186c-.382,.499-1.014,.723-1.538,1.07s-.987,.988-.745,1.568c.464,1.115,2.505,.304,3.202,1.29,.492,.696-.115,1.641-.062,2.493,.062,.996,1.008,1.685,1.905,2.123s1.912,.839,2.39,1.716c.055,.1,.102,.22,.058,.326-.082,.199-.366,.161-.581,.167-.596,.018-.987,.604-1.306,1.108s-.816,1.048-1.398,.921c-.796-.174-.799-1.28-1.068-2.049-.422-1.21-2.059-1.802-3.157-1.142,.317-.347,.919,.025,1.066,.472s.08,.958,.308,1.37c.275,.496,.876,.685,1.376,.954s.984,.826,.757,1.347c-.902-.049-1.459,1.04-1.4,1.942s.475,1.762,.454,2.665c-.022,.912-.526,1.798-1.298,2.283-.284,.178-.64,.305-.95,.178-.343-.141-.505-.556-.469-.925s.225-.703,.41-1.024c.193-.183,.481,.284,.23,.374-.358,.059-.735,.126-1.017,.355s-.421,.677-.197,.963c.156,.199,.426,.258,.664,.346,1.32,.488,1.838,2.398,1.123,3.388-1.209,.492-2.633,.425-3.79-.18-.466,.316-.358,1.09,.065,1.462s1.019,.454,1.579,.519c1.909,.222,3.916,.431,5.692-.304,3.226-1.335,4.84-5.423,8.223-6.284,.374-.095,.857-.103,1.052,.23,.199,.339-.055,.758-.311,1.057-.714,.833-1.533,1.576-2.432,2.206-.418,.293-.915,.763-.68,1.216,.354,.681,1.725,.058,2.034,.761,.142,.322-.107,.707-.431,.846s-.692,.1-1.043,.067c-1.337-.123-2.899-.02-3.696,1.059-.655,.887-.543,2.103-.808,3.173-.261,1.058-.927,2.01-1.83,2.62-.192,.13-.409,.248-.641,.239-.616-.025-.826-.905-.544-1.453s.83-.912,1.168-1.427c.32-.487,.324-1.312-.231-1.492-.487-.158-.932,.311-1.23,.727-.977,1.364-1.955,2.727-2.932,4.091-.024-.304-.047-.608-.071-.912-1.638,1.273-4.125-.541-6.057,.213-1.236,.483-1.868,1.944-1.771,3.267s.771,2.53,1.495,3.641c.269,.414,.615,.862,1.107,.899,.489,.036,.895-.35,1.23-.708,2.059-2.194,4.117-4.388,6.176-6.581,.632,.714,.784,1.754,.625,2.694s-.593,1.808-1.02,2.66c-1.11,2.209-2.219,4.419-3.329,6.628-.333,.663-.662,1.478-.266,2.105,.463,.734,1.651,.622,2.265,.009s.809-1.516,.996-2.363c.133-.607,.29-1.239,.703-1.702s1.167-.685,1.668-.318c.548,.402,.514,1.212,.466,1.89s.046,1.521,.676,1.777c.658,.267,1.37-.386,1.534-1.077s-.008-1.416,.031-2.125c.079-1.44,.999-2.678,1.882-3.819,.891-1.151,1.782-2.303,2.674-3.454,.497-.643,1.024-1.309,1.764-1.646s1.755-.218,2.176,.477c-.165-.695-.325-1.451-.032-2.103s1.252-1.027,1.741-.505c.524,.558,.051,1.479-.527,1.981s-1.322,.991-1.375,1.755c-.043,.615,.392,1.287,.062,1.809-.374,.591-1.262,.347-1.961,.382-1.022,.051-1.889,.898-2.186,1.877s-.111,2.05,.273,2.999c.438,1.083,1.143,2.138,1.052,3.303-.1,1.274-1.116,2.258-2.065,3.112-1.85,1.666-3.7,3.333-5.551,4.999-.631,.568-1.28,1.161-1.616,1.941s-.266,1.802,.249,2.458c.169,1.222,1.851,1.919,2.835,1.174l.354,1.048-.369-.72c1.445,.456,1.519,2.774,2.934,3.314,.708,.27,1.532-.035,2.081-.558s.88-1.227,1.2-1.914c.473,1.74,2.641,2.466,4.423,2.193s3.384-1.229,5.124-1.701,3.902-.3,4.927,1.183c-3.162-.144-5.661,2.628-7.232,5.375-1.075,1.879-1.953,4.251-.882,6.132,.549,.965,1.577,1.714,1.704,2.817,.086,.744-.244,1.606,.232,2.185,.522,.636,1.547,.367,2.265-.034s1.559-.898,2.304-.548c.644,.303,.874,1.148,.703,1.839s-.644,1.26-1.103,1.803c-1.431,1.693-2.862,3.386-4.293,5.079,.481-.326,1.012-.667,1.592-.625s1.128,.689,.844,1.197c-.171,.306-.543,.42-.862,.566-1.151,.524-1.879,1.723-2.155,2.958s-.165,2.518-.054,3.778c-1.056-.691-2.651-.34-3.319,.731-.06-1.146-1.36-1.8-2.499-1.941s-2.382-.04-3.337-.676c-.459-.306-.85-.78-1.398-.847-.872-.106-1.544,.874-2.421,.924-.748,.043-1.364-.615-1.654-1.306s-.376-1.459-.707-2.131c-.521-1.057-1.758-1.786-2.903-1.508s-1.918,1.713-1.348,2.744c.467,.843,1.565,1.172,2.056,2.001,.468,.792,.236,1.847-.316,2.583s-1.365,1.223-2.156,1.692c-1.484,.879-2.969,1.758-4.453,2.637,1.286-.633,2.614-1.279,4.045-1.371s3.005,.504,3.637,1.791c.495,1.007,.329,2.202,.101,3.301-.572,2.766-1.513,5.552-3.407,7.647s-4.918,3.354-7.96,2.464c-.3,.749-1.232,1.032-2.039,.99s-1.599-.308-2.404-.248c-.486,.036-.955,.191-1.418,.344-1.171,.387-2.342,.775-3.514,1.162,1.199-.187,2.424,.92,2.36,2.132s-1.399,2.183-2.572,1.871c1.684,.879,3.63,2.218,3.415,4.105,2.896-2.424,7.395-2.694,10.561-.635-1.309,.352-2.3,1.651-2.293,3.007,1.068-.4,2.173-.805,3.312-.755s2.334,.678,2.691,1.761c.167,.507,.139,1.054,.213,1.583,.266,1.886,1.968,3.425,3.859,3.654,1.185,.144,2.374-.164,3.528-.469,3.282-.867,6.565-1.734,9.847-2.602-2.519,1.495-5.096,3.041-6.921,5.333-1.042,1.31-1.983,2.956-3.617,3.32-1.342,.299-2.704-.405-3.79-1.249s-2.071-1.868-3.346-2.386c-2.037-.826-4.601-.045-5.83,1.777-.341,.505-.604,1.094-1.106,1.44-1.139,.784-2.651-.106-3.732-.967-.484,4.429-4.259,8.283-8.677,8.857-1.643,2.477-3.666,5.195-6.622,5.509-.648,.069-1.307,.013-1.95,.117s-1.304,.411-1.601,.991-.044,1.442,.591,1.59c1.017,.237,1.725-1.335,2.764-1.232,.766,.076,1.108,.971,1.362,1.698s.857,1.566,1.592,1.336c.389-.122,.622-.508,.82-.864,.833-1.499,1.665-2.999,2.498-4.498,.822,.377,1.356,1.304,1.27,2.205,.144-1.579,1.659-2.814,3.239-2.945s3.131,.671,4.114,1.778c.545-.878,1.981-.631,2.661,.148s.878,1.852,1.271,2.807,1.183,1.92,2.216,1.884c1.174-2.313,2.384-4.677,4.275-6.453s4.629-2.878,7.117-2.145c2.749,.811,4.423,3.513,5.841,6.004-.44-.608,.127-1.525,.856-1.703s1.479,.139,2.154,.466,1.394,.683,2.138,.587c1.347-.174,2.302-1.764,3.653-1.627,.861,.088,1.478,.863,1.888,1.626s.751,1.616,1.455,2.119c.935,.668,2.32,.477,3.178-.287s1.216-1.985,1.119-3.13c1.46,.075,2.81,1.173,3.544,2.467,1.637-1.252,4.01-.837,5.87,.052s3.555,2.194,5.565,2.648c1.623,.366,3.319,.142,4.947-.198,3.758-.785,7.387-2.19,10.695-4.139,1.374-.809,2.879-2.297,2.2-3.74-.44-.936-1.625-1.27-2.658-1.213s-2.046,.393-3.08,.344c-1.806-.086-3.468-1.485-3.861-3.25s.52-3.737,2.119-4.58c.259,.808,.518,1.617,.776,2.425,1.016-.252,1.6-1.299,1.997-2.268s.798-2.046,1.713-2.555,2.421,.142,2.208,1.167c.76,.422,1.558-.589,1.635-1.454s-.087-1.868,.52-2.49c.423-.435,1.078-.515,1.669-.651,3.481-.804,5.836-4.339,6.206-7.892,.251-2.408-.257-4.882-1.395-7.018-2.076-3.899-6.864-6.603-11.025-5.12-.904,.322-1.756,.824-2.705,.969s-2.08-.207-2.421-1.105c-.331-.871,.224-1.849,.948-2.435s1.617-.938,2.335-1.531c1.848-1.527,2.119-4.368,1.283-6.615s-2.545-4.038-4.21-5.762c1.743,.322,3.486,.645,5.229,.967-2.37-1.899-3.619-5.103-3.16-8.105,.214-1.397,.769-2.792,.509-4.182-.18-.962-.735-1.806-1.277-2.621-1.808-2.715-3.616-5.43-5.152-8.462-2.348-2.118-3.105-5.507-3.097-8.669s.648-6.306,.535-9.466c-.225-6.293-3.642-12.391-8.891-15.869-.558-.37-1.199-.725-1.861-.62-1.117,.178-1.639,1.511-2.627,2.062-1.47,.82-3.247-.353-4.389-1.589s-2.407-2.731-4.088-2.656c2.244-.162,4.488-.325,6.732-.487,1.316-.095,2.663-.187,3.933,.169,.954,.268,1.973,.782,2.878,.378,.818-.365,1.173-1.413,.954-2.281s-.891-1.559-1.644-2.045c-1.364-.881-3.077-1.204-4.669-.882,1.663-1.313,4.115-.636,6.146-1.241,1.805-.538,3.129-2.042,4.351-3.476,3.112-3.655,6.223-7.309,9.335-10.964,1.284-1.508,2.648-3.503,1.821-5.302-.57-1.239-1.973-1.827-3.267-2.256-3.406-1.13-6.922-1.926-10.695-2.342-.203-1.116-1.488-1.725-2.623-1.697s-2.208,.496-3.324,.7c-1.656,.303-3.416,0-4.876-.838-.168-.799,.619-1.503,1.408-1.712s1.638-.121,2.418-.364,1.511-1.035,1.24-1.805c-.343-.975-1.968-1.121-2.107-2.145-.068-.498,.297-.97,.741-1.206s.957-.293,1.452-.379c3.918-.683,7.147-3.358,10.175-5.936,.861-.733,1.8-1.637,1.739-2.767-.048-.887-.748-1.639-1.566-1.985s-1.736-.358-2.623-.306c-3.085,.183-6.322,1.051-9.168-.154-2.605-1.102-4.43-3.796-7.2-4.367-.807,2.435-2.436,4.59-4.559,6.03-.747,.507-1.56,.934-2.198,1.572s-1.085,1.565-.864,2.44c.174,.691,.717,1.214,1.135,1.791s.722,1.367,.367,1.984c-.541,.939-1.978,.624-2.904,.063s-2.048-1.273-2.997-.75c-.495,.272-.769,.811-1.016,1.319-1.057,2.181-2.113,4.362-3.17,6.544-.196,.405-.391,.894-.163,1.282,.249,.425,.858,.458,1.331,.323s.931-.389,1.422-.359c.771,.048,1.342,.813,1.441,1.579s-.154,1.53-.405,2.261c-.279,.813-.815,1.798-1.667,1.683-.896-.121-1.133-1.323-1.831-1.897-.753-.62-1.963-.43-2.679-1.092-.594-.549-.621-1.463-.605-2.271,.027-1.408,.071-2.88,.754-4.111,.393-.708,.995-1.334,1.131-2.133s-.591-1.787-1.422-1.8Z"/><path class="cls-1" d="M255.655,115.166c-2.083,.485-3.985,1.712-5.286,3.409,1.517-.143,3.021-.425,4.487-.84,.593-.168,1.239-.407,1.516-.957,.223-.443,.122-1.027-.238-1.369s-.947-.415-.479-.243Z"/><path class="cls-1" d="M255.209,126.939c-.787,.805-1.47,1.711-2.027,2.689,.845,.539,2.051,.424,2.778-.266,.459-.436,.721-1.148,.447-1.719s-1.196-.76-1.198-.704Z"/><path class="cls-1" d="M265.215,169.187c-1.398,.281-2.932,.645-3.761,1.806-.503,.704-.67,1.614-1.22,2.282-.241,.293-.569,.574-.572,.953-.004,.416,.419,.735,.834,.769s.816-.138,1.196-.307c.88-.39,1.759-.78,2.639-1.17,.472-.209,.973-.444,1.235-.888,.362-.613,.144-1.39-.082-2.065-.151-.45-.313-.918-.653-1.249s-.915-.473,.384-.132Z"/><path class="cls-1" d="M316.02,75.119c-.8-.697-2.056-.038-2.751,.764s-1.353,1.829-2.407,1.953c-.438,.052-.969-.036-1.242,.31-.585,.741,1.066,1.773,.576,2.579-.249,.409-.888,.358-1.271,.072s-.619-.728-.964-1.06-.912-.54-1.293-.25c.682-.2,1.062-1.035,.858-1.716s-.89-1.154-1.598-1.215-1.415,.244-1.946,.716c-.669,.594-1.09,1.46-1.141,2.354-.071,1.258,.467,2.785-.486,3.609,.533,.594,1.398,.87,2.177,.695s1.442-.795,1.67-1.56c-.475,.462-.95,.925-1.426,1.387-.427-.671-.245-1.659,.393-2.133s1.637-.364,2.156,.239,.48,1.606-.083,2.167c-.612,.609-1.793,.891-1.742,1.753,.033,.551,.664,.912,1.211,.842s1.003-.446,1.387-.842c1.118-1.153,1.909-2.621,2.256-4.189,.065-.296,.11-.626-.048-.885s-.603-.337-.748-.071c1.667,.077,3.356-.555,4.564-1.707s1.919-2.809,1.898-3.813Z"/><path class="cls-1" d="M310.488,73.065c-.933,.575-1.751,1.336-2.393,2.224,.366,.604,1.194,.812,1.872,.614s1.217-.721,1.619-1.302c.434-.626,.715-1.546,.19-2.099-.317-.335-.84-.404-1.287-.291s-.838,.378-.002,.854Z"/><path class="cls-1" d="M327.184,76.502c-1.25,.303-2.364,1.13-3.016,2.238,.231,.733,1.064,1.219,1.816,1.061s1.318-.939,1.234-1.703-.806-1.403-.033-1.596Z"/><path class="cls-1" d="M324.085,62.455c-.641,1.172-.507,2.723,.325,3.768,.933,.174,1.904-.586,2.045-1.524s-.491-1.907-1.379-2.243-1.945-.073-.991,0Z"/><path class="cls-1" d="M329.645,61.67c-.679-.489-1.715-.393-2.292,.213,1.817,1.42,3.564,2.929,5.232,4.521,.003,.951-.896,1.608-1.554,2.294s-1.052,1.968-.243,2.468c.703,.435,1.623-.234,1.926-1.004s.273-1.646,.623-2.395,1.384-1.303,1.994-.745c-.459-.657-.933-1.356-.998-2.155s.456-1.704,1.256-1.756c.48-.031,1.066,.206,1.379-.158,.302-.351,0-.902-.374-1.176s-.85-.481-1.017-.913c-.252-.652,.412-1.335,1.095-1.483s1.397,.022,2.092-.05,1.461-.55,1.435-1.248c-.029-.778-1.005-1.275-1.018-2.053-.009-.539,.452-.959,.898-1.263s.951-.612,1.118-1.125-.321-1.21-.813-.989c-2.078,1.361-3.822,3.229-5.038,5.396-.316-.734-.693-1.531-1.425-1.851s-1.82,.281-1.603,1.049c.27,.956,2.081,1.011,1.998,2.001-.084,.54-.855,.689-1.328,.415s-.745-.785-1.1-1.201-.923-.765-1.426-.552c-.623,.264-.649,1.151-.413,1.785s.639,1.264,.521,1.93c-.638-.027-1.283,.175-.926,.044Z"/><path class="cls-1" d="M338.66,60.861c.212,1.09,.986,2.055,2.003,2.499,.623-.431,.78-1.404,.324-2.009s-1.435-.721-2.327-.491Z"/><polyline class="cls-3" points="279.742 418.941 284.771 420.24 285.305 423.242"/><path class="cls-2" d="M368.424,416.213c-2.248,1.663-4.496,3.325-6.33,4.975-1.164-.556-2.516,.144-3.59,.86s-2.336,1.503-3.564,1.107c-.678-.219-1.192-.764-1.805-1.127s-1.497-.497-1.964,.04c-.234,.269-.313,.656-.579,.894-.525,.468-1.39,.043-1.767-.551s-.514-1.329-.967-1.866c-.601-.712-1.596-.905-2.492-1.157s-1.877-.722-2.114-1.623c-.136-.518,.008-1.088-.178-1.591-.364-.983-1.761-1.125-2.708-.675-.305,.145-.663,.333-.956,.166-.439-.25-.145-.997,.337-1.147s.997,.036,1.501,.079,1.13-.179,1.184-.681c.044-.416-.33-.745-.667-.993-.772-.569-1.676-1.17-2.614-.97-1.197,.255-1.751,1.637-2.742,2.355-.684,.497-1.618,.653-2.409,.355s-1.401-1.062-1.462-1.906c-.048-.653,.211-1.293,.217-1.947s-.412-1.42-1.066-1.389c-.583,.028-.936,.652-1.1,1.212s-.294,1.202-.784,1.519c-.528,.342-1.268,.127-1.716-.315s-.674-1.054-.898-1.641c-.337-.884-.722-1.795-1.44-2.411s-1.868-.834-2.604-.24c-.747,.603-.784,1.727-1.309,2.531-.87,1.332-3.193,1.264-3.985-.116-.154-.268-.281-.593-.568-.709-.433-.174-.862,.246-1.126,.631-.843,1.228-1.51,2.576-2.116,4.049-1.863-.11-3.759,.503-5.205,1.683s-2.426,2.915-2.692,4.762c-.138,.962-.093,1.962-.424,2.875-.38,1.05-1.221,1.882-1.61,2.928s.093,2.756,1.202,2.892l.119,11.173-15.077,5.522s-15.206,3.697-23.851,2.974c-2.111,1.733-4.223,3.465-6.334,5.198,.952,.051,1.905,.102,2.857,.154-1.055,2.559-3.211,4.642-5.806,5.609-.588-.267-13.437,9.187-13.437,9.187l-5.482,6.722-.168,7.73s3.076,6.322,5.754,8.575c-9.797,1.85-18.572,8.492-23.012,17.419,.663-.226,1.327-.452,1.99-.678,.104,.939,.207,1.877,.311,2.816-4.406,.47-8.931-.227-12.991-2.002l-.835,2.915-5.447-.518c-2.122,4.594-5.819,8.442-10.324,10.747-1.146-.866-1.687-2.456-1.306-3.841-1.697,.674-3.052,1.207-3.816-.451-.01,2.269-5.353,2.664-5.353,2.664l-6.681-4.207s-3.871,.21-4.745,2.304c-4.863-3.63-15.566-4.499-15.566-4.499l-7.23,2.308-5.288-2.051-5.532,3.709-4.733,3.424s-5.334-2.728-4.701-4.949c-.93,.336-1.86,.671-2.79,1.007-2.29-3.634-3.285-8.067-2.769-12.331-.817,.014-.44,.426-1.256,.44,1.355-7.715-13.267-15.908-13.267-15.908,0,0-6.944,4.026-10.891,2.347-1.277-.543-2.278-1.561-3.362-2.427-3.54-2.826-8.275-4.102-12.755-3.437,5.393-5.12,8.372-12.68,7.923-20.102,.428,1.038,2.136,.719,2.698-.253s.411-2.175,.472-3.296,.536-2.421,1.629-2.677c-.259,1.354,2.193,2.031,2.666,.737,.416-1.052-.851-2.112-1.981-2.052s-2.101,.773-3.122,1.259-2.372,.706-3.182-.084c-.925-.902-.484-2.562,.492-3.409s2.291-1.149,3.496-1.614,2.444-1.253,2.752-2.507c-.44-.695-.88-1.39-1.32-2.086-1.377,2.118-3.362,3.836-5.656,4.894-1.386-.265-2.485-1.606-2.471-3.017s1.137-2.731,2.528-2.97c-1.004-.48-.944-2.008-.287-2.905s1.689-1.45,2.413-2.295,1.026-2.286,.157-2.981c6.318-1.126,12.002-5.372,14.874-11.112-.399-3.011,1.863-5.633,3.773-7.994,5.749-7.106,9.212-16.932,7.214-25.851,0,0-.895-4.066-.091-7.118,3.078,.123,7.222-5.61,5.546-8.195,.821-.59-3.73,.809-2.91,.218-.967-2.646,1.846-4.496,.88-7.142-1.462-.442-2.088-3.601-2.088-3.601,0,0,1.944-2.567,3.452-2.326,5.261-1.71,15.783-1.151,15.783-1.151l7.697-3.96s9.114,2.036,8.404,6.157c.318-.584,4.815,2.016,5.133,1.432,1.529,1.611,2.262,.834,3.791,2.445,3.662-.653,12.019,.771,12.019,.771,0,0,9.056,2.623,7.445,5.977,4.636-.691,10.247,3.874,10.247,3.874,0,0,8.176,3.547,11.77,.537,.629,1.121,5.05,2.849,5.838,1.834,1.03,2.681,5.254,3.752,5.254,3.752l8.573,2.277,10.304,2.459,1.741,1.092c7.49-4.663,12.486-13.141,12.942-21.952l4.224-.284c1.593-1.489-1.211-4.546-2.832-3.087,2.569-5.844,5.137-11.687,7.706-17.531-1.13-.679-2.259-1.358-3.389-2.037,.765-1.043,1.53-2.086,2.295-3.128-2.445,.283-4.108-3.451-2.262-5.079-.395,3.321,2.58,6.634,5.924,6.598-.174-4.797-4.9-8.93-9.677-8.463,3.244-.153,6.487-.306,9.731-.459-6.215-2.018-11.245-7.348-12.899-13.669-.009-1.746,2.402-2.931,3.778-1.858,.093-2.08-.784-4.184-2.327-5.582,3.056,1.284,6.112,2.568,9.168,3.852-2.175-2.19-4.351-4.38-6.526-6.571-2.135,1.585-5.156,1.88-7.558,.738,.873-1.932,1.745-3.864,2.618-5.796l-6.348,.305c1.03-1.408,2.06-2.817,3.09-4.225-2.675,.941-5.838,.321-7.961-1.559-1.328,.64-2.655,1.28-3.983,1.92,.403-4.663-4.525-8.963-9.091-7.932-1.389-2.111-2.778-4.221-4.166-6.332,2.017-.318,4.035-.637,6.052-.955-2.968-.874-5.114-3.973-4.889-7.059,5.515-3.764,13.762-2.752,18.204,2.233,3.426-4.737,12.654-1.523,12.397,4.316,1.66-1.773,4.364-2.487,6.683-1.764-.072,1.273-.144,2.545-.216,3.818,1.765,.07,3.486-1.25,3.874-2.974,2.122,1.217,4.243,2.434,6.365,3.651-.591-7.605-1.181-15.21-1.772-22.815l7.112-.083c-.454,2.203,2.503,4.207,4.38,2.968-.739,2.409-1.478,4.819-2.217,7.228,1.855-.717,3.71-1.433,5.565-2.15,1.645,1.156,2.603,3.223,2.421,5.226,4.8,.894,9.868,.291,14.324-1.706-2.155-.174-4.16-1.612-5.016-3.597,8.526-2.093,17.051-4.185,25.577-6.278-2.676-6.164,.561-13.996,7.088-15.598,11.46-2.813,15.238-4.099,20.555-3.909,.661,0,1.266,.271,3.864-2.588-1.476-1.293-2.952-2.587-4.428-3.88,2.208,.389,4.416,.778,6.624,1.167-.349-1.663-.698-3.325-1.047-4.988,4.042,.343,8.084,.687,12.126,1.03l-6.143-3.744c2.925-1.766,5.176-4.619,6.212-7.875l4.368,1.977c-2.092-5.577-.499-12.344,3.862-16.401,4.361-4.058,11.225-5.16,16.637-2.672-5.423-1.395-11.598,.872-14.828,5.446s-3.304,11.151-.176,15.796c2.015-3.228,6.77-4.349,10.015-2.362-4.958-1.968-7.218-8.797-4.412-13.334s9.925-5.565,13.9-2.008c-1.279-.647-.231-2.873,1.202-2.901s3.919,1.971,3.919,1.971c1.645-1.205,1.367-3.69-.138-5.065,3.129-.073,6.258-.146,9.387-.22l4.231,.158c.734,2.609,3.093,4.684,5.774,5.077l3.394-6.334c3.341,1.006,6.683,2.013,10.024,3.019-3.921-1.994-6.089-6.913-4.917-11.153-1.387,.122-2.774,.244-4.161,.366-1.602-1.214-1.41-4.091,.338-5.083-.287,2.395,2.884,4.074,4.786,2.592-1.912-1.981-3.448-4.513-2.694-7.153,0,0,2.956-2.383,3.822-1.699,.381,.301,.63,.743,1.009,1.047,.953,.762,2.349,.417,3.492-.01s2.461-.894,3.526-.299c.875,.489,2.341,.428,2.341,.428,0,0,2.92,4.214,3.216,5.771-1.47,.752-1.587,.407-3.057,1.16,1.138,1.541,2.068,1.941,3.915,1.435-.854,1.284-.834,3.45,.476,2.792,1.551-.778,2.09-1.055,2.893-1.695,.535,1.167,3.739,2.649,4.987,2.347l1.107-.872c-.164-.646-.329-1.293-.493-1.939,1.196,.451,2.482-.234,3.726-.531s2.992,.227,2.938,1.504c-.063,1.486-2.224,1.597-3.663,1.221,.488,1.367,.414,2.925-.2,4.241-2.541,.24-4.681,2.656-4.613,5.207,.709-1.448,2.665-1.739,4.257-1.48s3.198,.873,4.77,.514,2.871-2.357,1.83-3.588c3.844,1.882,9.027,.251,11.101-3.492,.665-1.201,1.304-2.769,2.672-2.887-.585,.941-.426,2.277,.362,3.055s2.127,.918,3.06,.321c-.87-1.814-.478-4.156,.937-5.587s3.752-1.85,5.575-1.001c3.031,1.412,3.798,5.291,4.183,8.613-2.179,.646-4.599,.435-6.633-.577-1.635-.045-2.622,2.187-1.819,3.612s2.703,1.92,4.303,1.581,2.974-1.329,4.295-2.295c1.003,1.208,2.005,2.417,3.008,3.625,2.209,.557,4.418,1.114,6.627,1.672-3.133,.516-5.889,2.243-9.022,2.76,3.577,1.367,7.202,1.954,8.361,5.603-.795,1.19,.358,2.416-.29,3.693-.261,.514-.84,.762-1.328,1.069-1.292,.813-2.086,2.202-2.829,3.536-1,1.797-2,3.594-3.001,5.391,1.556-.441,3.327-.017,4.516,1.079s1.752,2.829,1.437,4.415c-.401,2.022-2.101,3.98-1.436,5.984,1.861,.121,3.25,2.339,2.546,4.066-.432,1.06-1.462,1.839-1.698,2.959-.188,.892,.172,1.797,.525,2.638,1.47,3.501,2.985,13.21,4.411,10.502,1.065-2.023,1.786,4.428,1.134,6.619s-3.675,3.696-5.305,2.092c-1.711-1.684-.777-5.419-3.036-6.232-1.305-.469-2.803,.757-2.869,2.142s1.014,2.647,2.319,3.115c-7.663-1.16-14.186,6.157-21.91,6.805-1.545,.129-3.186,.005-4.55,.741s-2.123,2.829-.942,3.833c-.587,.764-1.808-.102-2.112-1.016s-.476-2.094-1.392-2.391c-.958-.31-1.897,.819-1.763,1.817s.95,1.76,1.788,2.319,1.772,1.024,2.394,1.817c1.298,1.655,.788,4.02,.948,6.117,.202,2.64,1.548,5.037,2.863,7.335,.714,1.247,1.649,2.642,3.082,2.751,1.081,.082,2.223-.617,3.198-.144,1.635,.793,.582,3.309,1.068,5.06,.474,1.707,2.393,2.481,4.04,3.135s3.499,1.791,3.165,3.983c.674,.662,.197,1.9-.629,2.359s-1.826,.408-2.769,.473-1.991,.339-2.458,1.16c-.452,.794-.196,1.816-.515,2.671-.528,1.417-2.324,1.816-3.836,1.87s-3.241,.066-4.226,1.213c-2.282,2.66,2.375,6.978,.615,10.008,1.473-.023,2.55,1.918,1.752,3.156s-3.012,1.056-3.597-.296c-.345-.796-.156-1.715-.3-2.57s-.962-1.759-1.756-1.41c-.522,.229-.711,.867-1.115,1.269-.81,.808-2.196,.459-3.179-.126s-1.958-1.385-3.102-1.336-2.106,1.671-1.174,2.335c-.909,.862-2.353,.779-3.564,.458s-2.436-.828-3.673-.624-2.387,1.536-1.837,2.662c-2.051-.455-4.224,.153-6.277-.29-1.07-.231-2.057-.737-3.03-1.237-2.158-1.11-4.316-2.221-6.474-3.331,.695,1.968,1.054,4.773-.872,5.578-1.337,.559-2.845-.411-3.707-1.576s-1.492-3.338-2.585-4.29-3.683-.056-3.683-.056c-.814-2.024-3.896-2.924-6.041-3.321-2.952-.546-5.904-1.093-8.856-1.639,.441-.084,.883-.169,1.324-.253,.484,2-1.27,3.99-3.258,4.517s-4.088-.008-6.067-.572-6.257-1.564-6.257-1.564c-.087,.702-.441,1.929-.491,2.635-2.886-1.069-5.772-2.138-8.658-3.207,.494,4.841-4.122,8.489-8.211,11.127s-8.696,6.309-8.171,11.147l1.968,.092c-2.146,.377-4.037,1.965-4.778,4.014,.869,1.135,2.731,.724,3.82-.202s1.854-2.241,3.105-2.933c2.034-1.124,4.714-.149,6.247,1.598s1.239,5.743,1.856,7.984c-.716,1.922-1.59,2.229-3.586,2.047,1.705,1.12,3.458,2.287,4.581,3.99s1.456,4.1,.242,5.739c-1.089,1.47-3.041,1.94-4.822,2.358s-3.733,1.018-4.655,2.599,.275,4.218,2.058,3.806c.879-1.297,3.164-.518,3.663,.967s-.204,3.095-1.029,4.428-1.817,2.661-1.957,4.222c-.213,2.38,1.721,4.529,3.957,5.372s4.708,.681,7.092,.507c-2.033,1.923-3.921,5.305-4.152,8.094,0,0-5.56,1.39-8.831,3.809Z"/><path class="cls-1" d="M239.61,146.688l-1.449,1.958c-.168-1.708-2.627-2.64-3.885-1.473-.789,.732-.968,1.886-1.262,2.922s-.911,2.163-1.975,2.324c-.682,.103-1.347-.232-1.953-.561s-1.261-.676-1.947-.597-1.331,.802-1.055,1.434c.234,.535,.911,.663,1.464,.851s1.143,.749,.868,1.264c-.952,.516-2.115,.224-3.198,.211s-2.41,.571-2.388,1.654c.023,1.144,1.432,1.616,2.306,2.354,1.186,1.003,1.442,2.689,1.99,4.142s1.898,2.949,3.393,2.527c1.299-.366,1.79-1.903,2.183-3.194s1.219-2.787,2.567-2.735c1.539,.06,2.158,2.081,1.901,3.6s-.948,3.097-.39,4.532c.438,1.125,1.585,1.859,2.77,2.09s2.41,.036,3.587-.234"/><path class="cls-3" d="M335.363,255.435s-2.693,4.347-1.645,6.283,3.786,2.719,5.699,1.631c-.838,2.251,.016,5.015,1.978,6.402l1.915-1.372c.163,1.959,.327,3.919,.49,5.878,2.274-1.338,5.687-2.45,7.12-.234,.761,1.177,.458,2.718,.119,4.078s-.661,2.891,.071,4.086,2.995,1.272,3.255-.105c1.355-1.758,3.186-3.147,5.244-3.978-3.513,14.271,11.578,15.997,12.341,15.479"/><path class="cls-3" d="M344.437,254.236s.77,1.173,1.275,1.76c1.247-1.472,3.237-.023,4.89,.973s3.777,2.104,5.356,.995c.651-.457,1.026-1.2,1.509-1.832,2.365-3.091,7.868-2.84,9.941,.454,.468,.744,.813,1.631,1.564,2.087,1.383,.839,3.278-.255,4.757,.399,1.314,.582,1.712,2.315,1.421,3.722s-1.074,2.666-1.469,4.048-.281,3.097,.873,3.954c.385-1.106,1.953-1.368,2.977-.8s1.623,1.661,2.168,2.697"/><path class="cls-3" d="M235.49,395.535c-.237,.778,1.221,1.704,2.028,1.606s1.739-.394,2.349,.143c.899,.791,.011,2.233-.877,3.036s-1.84,2.17-1.011,3.034c.698,.727,1.891,.228,2.896,.155,1.774-.129,3.269,1.227,4.524,2.487,.895,.899,1.791,1.798,2.686,2.698,.572,.574,1.183,1.172,1.968,1.373,.826,.212,1.693-.053,2.545-.039,2.075,.035,3.717,1.656,5.488,2.736,2.415,1.473,5.273,1.996,8.059,2.492,.868,.155,1.926,.242,2.469-.453,.256-.328,.331-.767,.572-1.107,.619-.872,1.953-.707,2.955-.333,2.227,.831,4.237,2.239,5.779,4.048,.68,.798,.8,1.29,1.821,1.529l.074,.159c-1.358,.016-2.631,1.082-2.885,2.417s.3,2.913,1.558,3.427c1.187,.485,2.548,.157,3.733-.333s1.85-1.183,3.119-1.368c0,0,3.333,4.435,4.484,4.023,.787-.282,.645-1.461,1.126-2.145,.525-.747,1.694-.703,2.475-.23s1.325,1.247,2.007,1.854c2.099,1.864,9.979,2.13,9.979,2.13"/><path class="cls-3" d="M116.623,396.212c2.982-1.558,9.085-4.83,12.448-4.875,.308,2.418-.874,5.563-2.921,6.888,1.068,.316,2.137,.632,3.205,.949,2.804,2.828,7.493,3.562,11.026,1.725,1.219-.633,2.427-1.565,3.793-1.423s2.291,2.297,1.032,2.848c2.915-1.351,6.624-.748,8.961,1.456-1.952,.464-3.361,2.566-3.048,4.548,2.167-1.411,4.744,2.157,3.572,4.462s-4.011,3.11-6.541,3.643-5.367,1.235-6.672,3.467c-2.011,3.439,.873,8.398-1.487,11.607-1.284,1.746-3.675,2.264-5.275,3.725s-1.376,5.047,.784,4.875c-3.288,3.629-9.042,4.745-13.449,2.608,2.023,2.936,4.096,5.992,4.714,9.503s-.645,7.621-3.843,9.196c-1.116,.55-2.398,.768-3.408,1.493-1.91,1.372-2.238,4.21-1.388,6.403s2.603,3.889,4.305,5.512c-3.792,.922-7.728,1.914-10.731,4.406s-2.87,10.11-3.058,10.808"/><path class="cls-1" d="M278.417,26.314c-1.109-.173-2.19,.764-2.412,1.864s.27,2.252,1.041,3.067c.665,.704,1.785,1.207,2.58,.654,.542-.377,.713-1.145,.524-1.778s-.671-1.14-1.211-1.52c-.567-.398-1.236-.707-1.603-1.294s-.178-1.578,1.082-.993Z"/><path class="cls-1" d="M281.086,13.5c-1.603,1.82-4.466,2.383-6.639,1.306-.467,.439-.434,1.235-.073,1.765s.966,.839,1.57,1.055c1.917,.684,4.093,.611,5.96-.198-.19,.774-.674,1.437-1.117,2.1s-.868,1.383-.912,2.179,.418,1.675,1.198,1.84c.96,.203,1.802-.719,2.137-1.642s.417-1.963,.999-2.754c.82-1.116,2.34-1.382,3.696-1.664s2.88-.835,3.335-2.143c-1.571-.608-3.142-1.215-4.713-1.823-1.059-.41-2.153-.826-3.289-.794s-2.334,.627-2.153,.773Z"/></svg>