<?xml version="1.0" encoding="UTF-8"?><svg id="Layer_1" xmlns="http://www.w3.org/2000/svg" width="244.985" height="208.362" viewBox="0 0 244.985 208.362"><defs><style>.cls-1,.cls-2{stroke-linecap:round;}.cls-1,.cls-2,.cls-3{fill:none;stroke:#000;}.cls-1,.cls-3{stroke-miterlimit:10;stroke-width:11px;}.cls-2{stroke-linejoin:round;stroke-width:8px;}</style></defs><path class="cls-3" d="M57.259,22.734h104.853c19.082,0,34.573,15.492,34.573,34.573H22.686c0-19.082,15.492-34.573,34.573-34.573Z" transform="translate(-5.496 20.895) rotate(-10.618)"/><path class="cls-3" d="M28.5,91.862H202.5v64.688c0,25.56-20.752,46.312-46.312,46.312H74.812c-25.56,0-46.312-20.752-46.312-46.312V91.862h0Z"/><path class="cls-3" d="M97.326,6.501h9.348c8.807,0,15.957,7.15,15.957,15.957h-41.262c0-8.807,7.15-15.957,15.957-15.957Z" transform="translate(-.921 19.042) rotate(-10.618)"/><path class="cls-3" d="M20.5,107.862h8v30h-8c-8.279,0-15-6.721-15-15h0c0-8.279,6.721-15,15-15Z"/><path class="cls-3" d="M217.5,107.862h8v30h-8c-8.279,0-15-6.721-15-15h0c0-8.279,6.721-15,15-15Z" transform="translate(428 245.725) rotate(180)"/><line class="cls-1" x1="21.5" y1="91.862" x2="208.5" y2="91.862"/><path class="cls-2" d="M199.711,58.609h6.794s-.226-3.82,1.364-6.527c2.302-3.918,9.79-6.527,15.501,1.632,0,0,5.144-.719,9.79,.816,5.976,1.974,11.893,12.632,4.079,21.211-1.632,1.632-5.449,3.565-11.422,3.263,0,0-2.447,4.079-6.527,4.895s-6.527-1.632-7.342-2.447c-3.004-3.004-3.263-8.158-3.263-8.158h-30.185"/></svg>