<?xml version="1.0" encoding="UTF-8"?><svg id="Layer_1" xmlns="http://www.w3.org/2000/svg" width="149.581" height="75.603" viewBox="0 0 149.581 75.603"><defs><style>.cls-1{fill:#a5d6db;}.cls-2{fill:#5ca6aa;}.cls-3{fill:none;stroke:#5ca6aa;stroke-linecap:round;stroke-miterlimit:10;stroke-width:4px;}</style></defs><path class="cls-1" d="m.081,46.824c-2-4,33-82,119.993.5,0,0-87.762,63.961-119.993-.5Z"/><path class="cls-3" d="m32.581,15.324s27,22,2,56"/><path class="cls-2" d="m149.581,25.324s-10.307-.704-14.344-1.653c-13.391-3.148-29.116,12.591-29.116,12.591,0,0,7.914,8.512,14.688,10.427,14.101,3.988,28.772-21.365,28.772-21.365Z"/><path class="cls-2" d="m149.581,63.324s-9.988,2.298-14.025,3.247c-13.391,3.148-29.116-12.591-29.116-12.591,0,0,7.914-8.512,14.688-10.427,14.101-3.988,28.452,19.771,28.452,19.771Z"/><ellipse class="cls-2" cx="23.661" cy="38.935" rx="4.92" ry="4.611"/><path class="cls-2" d="m91.581,7.324s-9.595-6.254-12.956-7.044c-11.15-2.621-24.044,14.044-24.044,14.044,0,0,8.138,5.051,14,5,13.968-.121,23-12,23-12Z"/><path class="cls-2" d="m103.581,61.324s-4.959,7.131-8,8c-7,2-16-2-16-2,0,0,10.138-8,16-8,3,0,8,2,8,2Z"/></svg>