<?xml version="1.0" encoding="UTF-8"?><svg id="Layer_1" xmlns="http://www.w3.org/2000/svg" width="240" height="206" viewBox="0 0 240 206"><defs><style>.cls-1{stroke-linecap:round;}.cls-1,.cls-2{fill:none;stroke:#000;stroke-miterlimit:10;stroke-width:9px;}</style></defs><path class="cls-2" d="M119.5,102.5c18-2,24.612-10.64,27.798-19.745,4.98-14.232,7.564-45.403-6.945-59.912-7.5-7.5-16.853-9.343-22.853-9.343-7,0-16,2-23.5,9.5-14.509,14.509-11.925,45.68-6.945,59.912,3.186,9.105,11.445,17.588,28.445,19.588h4Z"/><path class="cls-1" d="M141.556,112.523s14,11,39,17,11,43,11,43c0,0-13.892,15.92-74.676,16.478-54.38,.499-74.38-16.501-74.38-16.501,0,0-14-37,11-43s39-17,39-17"/></svg>