<?xml version="1.0" encoding="UTF-8"?><svg id="Layer_1" xmlns="http://www.w3.org/2000/svg" width="218" height="253" viewBox="0 0 218 253"><defs><style>.cls-1{stroke-linecap:round;}.cls-1,.cls-2{fill:none;stroke:#000;stroke-miterlimit:10;stroke-width:11px;}</style></defs><circle class="cls-2" cx="109.5" cy="143.5" r="80"/><circle class="cls-2" cx="109" cy="144" r="103.5"/><circle class="cls-2" cx="109.689" cy="143.687" r="9.187"/><line class="cls-1" x1="109.5" y1="109.5" x2="109.5" y2="131.5"/><line class="cls-1" x1="109.562" y1="83.944" x2="109.562" y2="88.5"/><line class="cls-1" x1="151.953" y1="101.095" x2="148.732" y2="104.316"/><line class="cls-1" x1="66.955" y1="101.23" x2="70.176" y2="104.451"/><line class="cls-1" x1="53.332" y1="144.306" x2="48.775" y2="144.306"/><line class="cls-1" x1="169.29" y1="144.427" x2="164.734" y2="144.427"/><line class="cls-1" x1="109.199" y1="203.987" x2="109.199" y2="199.431"/><line class="cls-1" x1="151.591" y1="186.836" x2="148.369" y2="183.614"/><line class="cls-1" x1="66.592" y1="186.701" x2="69.814" y2="183.479"/><rect class="cls-1" x="94.5" y="11.5" width="29" height="29"/><line class="cls-1" x1="84.5" y1="11.5" x2="132.5" y2="11.5"/><rect class="cls-1" x="153.671" y="29.349" width="21.443" height="24.587" rx=".903" ry=".903" transform="translate(294.142 150.84) rotate(-154.13)"/></svg>