<?xml version="1.0" encoding="UTF-8"?><svg id="Layer_1" xmlns="http://www.w3.org/2000/svg" width="142" height="138" viewBox="0 0 142 138"><defs><style>.cls-1{fill:#cde598;}.cls-2{fill:#88c178;}</style></defs><path class="cls-1" d="M80.675,5s-3.296,18.079-34.433,47.74c-25.433,24.228-15.8,68.366-15.8,68.366,0,0,48.889-.407,65.78-34.307C112.91,53.306,80.675,5,80.675,5Z"/><path class="cls-2" d="M118.068,28.576s-9.206,15.905-48.528,33.313c-32.12,14.219-37.953,59.018-37.953,59.018,0,0,46.156,16.122,73.5-10.086,27.015-25.893,12.981-82.245,12.981-82.245Z"/><path class="cls-1" d="M31.587,120.907s64.075-22.849,70.103-54.999c0,0-10.608,13.201-26.122,26.122-15.878,13.224-36.752,26.205-43.981,28.877Z"/></svg>