<?xml version="1.0" encoding="UTF-8"?><svg id="Layer_1" xmlns="http://www.w3.org/2000/svg" width="165.552" height="165.493" viewBox="0 0 165.552 165.493"><defs><style>.cls-1{fill:#f99b2b;}.cls-2{fill:#88c178;}.cls-3{fill:none;stroke:#dd7b19;stroke-linecap:round;stroke-miterlimit:10;stroke-width:4px;}</style></defs><path class="cls-1" d="M108.22,57s-17-15-32-9S28.22,88,3.22,146c-7.586,17.601-1.309,23.323,14,17,34.987-14.451,96.9-53.651,103-75,4-14-12-31-12-31Z"/><path class="cls-2" d="M111.22,0s-12.721,15.539-14.5,20.5c-5.9,16.455,14,40,14,40,0,0,11.107-13.222,14.5-21.5C132.283,21.769,111.22,0,111.22,0Z"/><path class="cls-2" d="M165.552,64.572s-13.701,9.723-18.831,10.928c-17.017,4-37-16-37-16,0,0,10.057-10.816,18.666-13.251,17.92-5.068,37.166,18.323,37.166,18.323Z"/><path class="cls-3" d="M60.59,66.786s12.13,3.714,18.13,13.714"/><path class="cls-3" d="M72.72,105.5s9,5,12.587,13.952"/><path class="cls-3" d="M31.896,110.586c1.13,.968,6.665,2.346,11.824,8.914"/><path class="cls-3" d="M26.217,130.024s6.182,3.038,8.503,8.476"/></svg>