<?xml version="1.0" encoding="UTF-8"?><svg id="balkan_2" xmlns="http://www.w3.org/2000/svg" width="549.066" height="535.339" viewBox="0 0 549.066 535.339"><defs><style>.cls-1{fill:#ffc9c9;}.cls-1,.cls-2,.cls-3{stroke:#efedeb;stroke-miterlimit:10;}.cls-2{fill:#ffbb87;}.cls-3{fill:none;}</style></defs><path class="cls-1" d="M193.137,283.119c3.579,1.292,7.158,2.583,10.737,3.875-1.466,4.461,2.442,8.395,5.717,11.76s6.634,8.181,4.482,12.355c-.849,1.646-2.528,3.373-1.685,5.022,.894,1.749,3.769,1.079,4.819-.581s1.027-3.759,1.598-5.639c1.999-6.583,10.145-8.624,16.956-9.598,6.811-.974,14.959-3.06,16.903-9.66"/><path class="cls-1" d="M235.251,366.606c-4.996,0-9.794-.233-13.911-4.334-2.006-1.998-3.236-4.625-4.426-7.194-.749-1.616-1.497-3.232-2.246-4.847-2.744-5.923-5.521-11.952-6.44-18.415s-.267-12.78,4.118-17.615"/><path class="cls-2" d="M175.992,97.374c6.528-1.214,14.178-1.509,18.825,3.234,2.47,2.522,3.797,6.24,6.903,7.919,4.598,2.486,12.423,.394,13.849,5.423,.897,3.163-2.128,6.043-2.735,9.274-1.003,5.338,4.729,9.541,10.012,10.805s11.223,1.273,15.386,4.762c3.912,3.279,5.138,8.936,4.364,13.981-.774,5.045-3.233,9.652-5.653,14.146,5.249-.12,10.497-.241,15.746-.361,.338,2.424,.676,4.848,1.014,7.273,.65-3.403,5.745-3.233,8.681-1.394s6.092,4.593,9.375,3.487c2.336-.788,3.587-3.241,5.26-5.052,5.354-5.797,16.641-3.601,19.432,3.779-3.46-.012-7.191,.061-9.967,2.126-2.776,2.065-3.625,6.93-.718,8.807,1.26,.814,2.895,.882,4.144,1.712,2.511,1.669-.811,4.624-.811,4.624,0,0,12.137,3.412,15.852,3.37-4.082-.291-7.329,4.359-6.525,8.371,.804,4.012,4.607,6.91,8.608,7.765s8.166,.032,12.104-1.078c23.261,1.235,46.521,2.47,69.782,3.705,6.835,.363,14.115,.625,20.033-2.815,9.125-5.304,12.23-17.784,21.479-22.869,5.719-3.144,12.614-2.806,19.129-3.188s13.731-2.037,17.285-7.511c-.038,5.969,7.914,8.092,13.874,7.768,5.96-.324,13.605-.271,15.829,5.268,8.084,7.639,26.029,7.227,26.334,7.985,0,0,3.797,10.255,1.992,12.73-1.589,2.179-4.645,1.9-7.339,2.039-2.694,.139-5.467-.132-8.029,.711-4.805,1.582-7.577,6.64-8.848,11.535-1.893,7.294-1.462,15.172,1.216,22.216-4.285,3.337-8.446,6.833-12.472,10.478-1.123,1.017-2.342,2.478-1.74,3.869,.324,.749,1.09,1.19,1.799,1.597,7.264,4.164,13.527,10.062,17.621,17.768,3.509,2.082,4.986,1.519,6.182,5.419l-3.486,.996c-10.879,3.996-19.863-.921-31.452-.877-5.244,.02-10.481,1.085-15.317,3.113-7.243,3.038-14.237,10.148-12.26,17.75-3.388-1.729-7.475-2.034-11.083-.828-3.015,5.04,4.686,10.125,5.341,15.961,.725,6.462-7.23,10.331-13.729,10.537-6.499,.205-13.818-.951-18.804,3.222,1.939-.771,3.878-1.543,5.817-2.314-11.609-4.263-24.241-5.708-36.513-4.176-.086-2.744-.173-5.488-.259-8.232-24.448-7.02-50.429,19.391-75.482,14.994-1.359,3.874-3.208,8.243-7.127,9.463-2.853,.889-5.888-.22-8.821-.795-8.372-1.642-17.512,1.46-23.155,7.859-2.323,2.634-4.263,5.906-7.53,7.194s-8.073-1.394-6.938-4.717c-4.565,3.595-17.215,10.403-17.215,10.403,.412,4.709,.75,9.754-1.595,13.858-2.345,4.104-8.5,6.322-11.915,3.055,.552,3.934,1.102,7.954,.358,11.857-.744,3.903-3.03,7.737-6.691,9.28-2.425,1.022-5.205,.96-7.611,2.023s-4.336,4.163-2.776,6.282c.826,1.122,2.32,1.525,3.336,2.478,2.245,2.105,1.306,5.985-.706,8.313s-8.344,6.287-8.344,6.287c-.57-2.999-5.116-9.475-8.14-9.89,2.088-7.96-5.448-13.423-12.614-17.47-7.166-4.046-15.672-8.237-17.547-16.249,2.529,1.339,5.059,2.678,7.588,4.016,2.066-2.381,1.12-6.162-.707-8.731s-4.404-4.619-5.768-7.461-.83-7.038,2.137-8.102c2.783,2.25,6.812-1.786,6.533-5.353s-2.689-6.625-3.437-10.124c-.89-4.163,.651-8.425,2.255-12.368,1.604-3.944,3.331-8.079,2.821-12.306-.51-4.226-6.212-9.89-12.026-8.427-9.426-12.919-19.911-25.293-33.017-34.455,0,0-21.636-18.491-46.035-44.485-13.186-14.048-26.393-28.119-38.279-43.282-5.556-7.088-5.34-16.4-10.288-23.925-1.854-2.82-9.198-3.84-9.41-7.209-.212-3.369,1.854-7.128,5.197-7.596-4.253,.15-5.962-6.581-2.762-9.388,3.199-2.807,8.473-1.729,11.575,1.185,3.102,2.914,4.571,7.119,5.932,11.152,3.339-4.723,6.679-9.446,10.018-14.17,5.106,.974,10.213,1.948,15.319,2.921,9.671,1.844,19.343,3.689,29.014,5.533,3.109,.593,6.296,1.188,9.42,.676,2.82-.462,5.412-1.798,8.14-2.652,9.322-2.919,20.277,.433,26.37,8.069,1.984,2.487,3.606,5.472,6.433,6.933,2.826,1.461,7.317,.092,7.332-3.09-4.793-2.784-2.877-11.735,2.636-12.312,3.38-.354,7.864,1.435,9.524-1.531,1.46-2.609-1.711-5.626-4.686-5.916-2.975-.29-6.042,.917-8.933,.157-13.377-3.516-3.391-30.796-13.432-33.939,0,0,22.473-10.45,35.523-12.876Z"/><path class="cls-3" d="M130.634,284.115c-1.412-9.604,3.199-21.249,6.206-30.479,1.116-3.425-.323-7.931,2.618-10.012,2.94-2.081,7.613-2.069,9.674,.886,1.817,1.088,3.853-1.618,3.363-3.679s-2.208-3.592-3.089-5.519-.242-4.941,1.874-5.04c1.184-.056,2.155,.853,3.121,1.541,5.117,3.645,13.481,.682,15.162-5.372s-3.957-12.905-10.221-12.421c2.61-4.087,9-5.058,12.706-1.931,2.48-3.743-1.737-8.493-5.955-10.033s-9.338-2.199-11.721-6.004c-2.566-4.097-.406-9.498,2.382-13.447s6.336-7.836,6.616-12.662-5.397-9.872-9.217-6.91"/><path class="cls-3" d="M289.098,191.919c-6.782,4.132-2.924,7.671-4.912,9.939-6.107,6.968-4.556,18.239,.975,25.673,5.531,7.434,14.048,11.938,22.275,16.201-9.772,4.859-16.604,15.164-17.275,26.058,0,0-2.847,4.882-2.523,4.956,2.826,3.882,.582,9.751-3.392,12.445-3.974,2.695-9.025,3.073-13.818,3.367-6.765,.415-11.272,.431-18.037,.846,3.793-10.311,6.662-13.403,2.042-20.136s-12.482-10.3-19.102-15.08c-6.87-4.961-12.614-11.473-16.678-18.91-1.315,9.594-4.956,18.86-10.523,26.783-18.576-5.967-35.593-16.716-48.96-30.928"/><path class="cls-3" d="M208.13,264.259c-5.188,2.88-8.121,6.28-13.309,9.159-1.806,1.003-3.914,2.815-3.065,4.699,.516,1.144,1.908,1.588,2.736,2.53s.205,1.398-.925,2.529c-3.213,2.705-7.73,4.18-11.713,2.848s-6.837-6.005-5.343-9.93c-8.929,10.503-13.177,27.485-12.464,42.089"/><path class="cls-3" d="M284.841,287.505c2.236,7.859,14.015,9.349,19.883,15.035,4.4,4.263,6.034,10.764,5.712,16.882-.323,6.118-2.37,11.996-4.398,17.777"/></svg>