<svg xmlns="http://www.w3.org/2000/svg" width="124" height="123.957" viewBox="0 0 124 123.957">
  <g id="fav" transform="translate(-390 -3.236)">
    <g id="Group_9" data-name="Group 9" transform="translate(9 38.236)">
      <ellipse id="Ellipse_6" data-name="Ellipse 6" cx="25" cy="24" rx="25" ry="24" transform="translate(381 -22)" fill="#fff"/>
      <ellipse id="Ellipse_7" data-name="Ellipse 7" cx="25" cy="24" rx="25" ry="24" transform="translate(421 -35)" fill="#fff"/>
      <ellipse id="Ellipse_8" data-name="Ellipse 8" cx="25" cy="24" rx="25" ry="24" transform="translate(455 -16)" fill="#fff"/>
      <rect id="Rectangle_17" data-name="Rectangle 17" width="74" height="84" transform="matrix(0.998, 0.07, -0.07, 0.998, 406.18, 0)" fill="#fff"/>
    </g>
    <g id="Group_15" data-name="Group 15">
      <g id="Group_14" data-name="Group 14">
        <path id="Path_7" data-name="Path 7" d="M405.778,1427.274c-1.73-.593-3.731-1.5-3.843-3.265-.114-1.794,1.83-2.75,2.469-3.064l1.324,2.692c-.157.077-.287.147-.395.21a9.73,9.73,0,0,0,1.418.59Zm5.343-5.37-.711-2.914c1.48-.361,3.208-.734,5.134-1.106l.81-.155.56,2.947-.8.153C414.235,1421.193,412.555,1421.555,411.122,1421.9Zm11.675-2.295-.517-2.955c1.773-.31,3.587-.621,5.507-.951l.41-.07.507,2.957-.41.07C426.376,1418.99,424.564,1419.3,422.8,1419.61Zm11.826-2.043-.518-2.955c2.188-.383,4.115-.73,5.892-1.058l.546,2.95C438.755,1416.834,436.819,1417.182,434.622,1417.567Zm11.835-2.2-.592-2.941c2.073-.417,4.036-.835,5.834-1.241l.662,2.926C450.539,1414.52,448.553,1414.943,446.457,1415.365Zm11.786-2.691-.768-2.9c2.07-.548,3.978-1.109,5.67-1.666l.939,2.849C462.336,1411.532,460.37,1412.11,458.243,1412.673Zm11.595-3.938-1.257-2.724a18.276,18.276,0,0,0,4.683-2.9l2.037,2.2A20.867,20.867,0,0,1,469.838,1408.735Z" transform="translate(1 -1354)" fill="#ed8634"/>
        <path id="Path_14" data-name="Path 14" d="M76.3,11.777l-.094-3a22.161,22.161,0,0,0,5.539-.73l.876,2.869A25.019,25.019,0,0,1,76.3,11.777Zm-6.134-.132c-1.839-.114-3.873-.292-6.047-.528l.325-2.982c2.128.232,4.116.405,5.908.516ZM58.123,10.365C56.2,10.1,54.2,9.791,52.155,9.456l.485-2.96c2.018.331,4,.633,5.9.9ZM46.214,8.42c-1.969-.364-3.96-.752-5.918-1.153l.6-2.939c1.939.4,3.91.782,5.861,1.142ZM83.275,6.033a13.24,13.24,0,0,0-4.085-3.417L80.774.068a16.38,16.38,0,0,1,5,4.3ZM34.4,6c-2.042-.463-4.018-.936-5.872-1.405l.736-2.908c1.83.463,3.781.93,5.8,1.388ZM.324,5.391C-2.107,3.821-3.2,2.4-3.111.922a2.956,2.956,0,0,1,1.88-2.483L.089,1.133c-.045.022-.084.043-.117.062A6.773,6.773,0,0,0,1.951,2.87Zm22.42-2.343c-1.965-.482-3.911-.906-5.784-1.261l.559-2.948c1.925.365,3.924.8,5.94,1.295ZM11.133.874A53.125,53.125,0,0,0,5.317.465l.024-3A56.106,56.106,0,0,1,11.49-2.1Z" transform="translate(489.119 121.096) rotate(-177)" fill="#ed8634"/>
        <path id="Path_15" data-name="Path 15" d="M76.486,25.825a51.252,51.252,0,0,1-5.606-1.363l-.388-.115.858-2.875.378.112A48.319,48.319,0,0,0,77,22.869ZM83.7,24.5l-2.5-1.657s.3-.835-1.77-3.732l2.442-1.742C83.327,19.412,85.1,22.376,83.7,24.5Zm-18.971-2c-1.758-.6-3.672-1.274-5.689-2.01l1.029-2.818c2,.729,3.889,1.4,5.626,1.988Zm-11.33-4.121c-1.776-.679-3.663-1.413-5.608-2.181l1.1-2.79c1.935.764,3.812,1.494,5.577,2.169ZM42.2,13.96c-1.772-.717-3.644-1.482-5.563-2.274l1.144-2.773c1.914.789,3.779,1.552,5.545,2.266ZM31.093,9.381c-1.716-.718-3.527-1.479-5.537-2.328l1.167-2.764c2.007.848,3.815,1.608,5.527,2.324ZM.448,5.879C-2.278,3.362-3.459,1.414-3.269-.249L-.288.092c0,.009-.071.957,2.772,3.583ZM20.029,4.712C17.892,3.806,16,3.006,14.51,2.386l1.153-2.77c1.5.624,3.4,1.427,5.537,2.334ZM9.09.53A35.168,35.168,0,0,0,3.412-.3l.157-3a38.937,38.937,0,0,1,6.182.9Z" transform="matrix(-0.914, 0.407, -0.407, -0.914, 491.465, 82.033)" fill="#ed8634"/>
      </g>
      <g id="Group_10" data-name="Group 10" transform="translate(9.511 -29.952)">
        <path id="Path_11" data-name="Path 11" d="M2.142.041C4.081.078,4.876,8.4,5.069,18.573c.072,3.806-.517,17.483-.517,17.483l-2.881.266A165.422,165.422,0,0,1,.346,18.2C.153,8.02.2,0,2.142.041Z" transform="translate(495.379 49.434) rotate(45)" fill="#ed8634"/>
        <path id="Path_12" data-name="Path 12" d="M9.39.5,13.017.186l10.717,9.65,1.593,3.792L13.243,9.318,10.4,9.858.321,17.129.192,13.4Z" transform="matrix(0.669, 0.743, -0.743, 0.669, 482.229, 49.884)" fill="#ed8634"/>
        <path id="Path_13" data-name="Path 13" d="M5.431,0,11.76,3.949v.876L5.684,3.257.03,4.943,0,3.949Z" transform="translate(469.404 71.323) rotate(45)" fill="#ed8634"/>
      </g>
    </g>
  </g>
</svg>
