<?xml version="1.0" encoding="UTF-8"?><svg id="whiteLogo" xmlns="http://www.w3.org/2000/svg" width="665" height="173" xmlns:xlink="http://www.w3.org/1999/xlink" viewBox="0 0 665 173"><defs><style>.cls-1,.cls-2,.cls-3,.cls-4,.cls-5,.cls-6{fill:none;}.cls-7{clip-path:url(#clippath);}.cls-2,.cls-3{stroke-dasharray:0 0 6 2;}.cls-2,.cls-3,.cls-4{stroke-width:3px;}.cls-2,.cls-5{stroke:#ed8634;}.cls-3,.cls-4,.cls-6{stroke:#fff;}.cls-8{fill:#ed8634;}.cls-9{fill:#fff;}.cls-10{clip-path:url(#clippath-1);}.cls-11{clip-path:url(#clippath-2);}.cls-4{stroke-dasharray:0 6;}.cls-12{isolation:isolate;}.cls-5,.cls-6{stroke-dasharray:0 0 6.003 2.001;stroke-miterlimit:4.002;stroke-width:3.002px;}</style><clipPath id="clippath"><polygon class="cls-1" points="385.011 12.512 392.511 17.412 385.011 25.612 377.611 20.912 385.011 12.512"/></clipPath><clipPath id="clippath-1"><rect class="cls-1" x="340.948" y="89.556" width="57.998" height="11" transform="translate(255.659 459.52) rotate(-87)"/></clipPath><clipPath id="clippath-2"><rect class="cls-1" x="256.906" y="84.314" width="57.997" height="10.999" transform="translate(176.306 368.733) rotate(-85.988)"/></clipPath></defs><g class="cls-12"><g class="cls-12"><path class="cls-8" d="m48.549,51.353c-7.95-2.862-17.172-4.664-26.607-4.876v25.864h23.639c.636,2.438.318,5.088,0,7.103h-23.532v20.141c0,4.134.212,8.904,1.802,13.038-1.06,1.06-3.71,2.862-7.314,2.862-4.134,0-7.208-2.544-7.208-6.679l-.106-52.577c0-4.134-.318-8.586-1.802-12.826,3.074-2.756,5.724-3.181,11.342-3.181h31.165c3.604,0,2.014,9.541-1.378,11.131Z"/><path class="cls-8" d="m61.479,77.111c0-25.653,10.282-38.373,29.681-38.373,19.292,0,29.575,12.72,29.575,38.373s-10.282,38.373-29.575,38.373c-19.398,0-29.681-12.827-29.681-38.373Zm45.263,0c0-23.533-4.982-33.709-15.583-33.709s-15.688,10.176-15.688,33.709,5.088,33.709,15.688,33.709,15.583-10.177,15.583-33.709Z"/><path class="cls-8" d="m131.545,77.111c0-25.653,10.282-38.373,29.681-38.373,19.292,0,29.575,12.72,29.575,38.373s-10.282,38.373-29.575,38.373c-19.398,0-29.681-12.827-29.681-38.373Zm45.263,0c0-23.533-4.982-33.709-15.583-33.709s-15.688,10.176-15.688,33.709,5.088,33.709,15.688,33.709,15.583-10.177,15.583-33.709Z"/><path class="cls-8" d="m205.002,107.428l-.106-52.789c0-4.028.212-10.389-1.272-14.629,5.724-.742,16.218-.954,23.108-.954,20.989,0,32.967,12.402,32.967,37.207,0,26.395-11.978,37.737-32.225,37.737h-15.053c-4.558,0-7.42-2.544-7.42-6.572Zm21.73,1.908c12.826,0,18.869-8.692,18.869-32.225,0-23.215-6.042-33.285-18.869-33.285h-9.01v65.51h9.01Z"/></g><g class="cls-12"><path class="cls-8" d="m455.014,51.353c-4.876-2.12-11.448-4.664-17.809-5.937l.105,54.168c0,4.134.213,8.904,1.803,13.038-1.061,1.06-3.71,2.862-7.314,2.862-4.24,0-7.314-2.544-7.314-6.679v-63.39c-6.36,1.166-12.826,3.816-17.809,5.937-3.392-1.59-4.981-11.131-1.378-11.131h51.094c3.604,0,2.12,9.541-1.378,11.131Z"/><path class="cls-8" d="m465.188,77.111c0-25.653,10.282-38.373,29.681-38.373,19.293,0,29.575,12.72,29.575,38.373s-10.282,38.373-29.575,38.373c-19.398,0-29.681-12.827-29.681-38.373Zm45.264,0c0-23.533-4.982-33.709-15.583-33.709s-15.688,10.176-15.688,33.709,5.089,33.709,15.688,33.709,15.583-10.177,15.583-33.709Z"/><path class="cls-8" d="m592.707,81.563c0,22.473-9.116,33.921-27.349,33.921-17.597,0-26.606-10.494-26.606-33.921v-26.925c0-4.028-.318-8.692-1.908-12.933,1.166-1.06,3.816-2.756,7.314-2.756,4.027,0,7.208,2.438,7.208,6.466v36.677c0,20.247,4.346,28.728,13.992,28.728,10.176,0,14.734-9.965,14.734-28.728v-27.454c0-4.028-.212-8.692-1.802-12.933,1.06-1.06,3.604-2.756,7.208-2.756,4.028,0,7.208,2.438,7.208,6.466v36.147Z"/><path class="cls-8" d="m665.211,108.17c0,4.982-4.982,7.208-7.95,7.208-8.057,0-10.494-5.406-13.993-14.311l-3.71-9.54c-2.12-5.3-4.027-10.07-11.872-10.176h-4.771v18.974c0,3.074.213,8.375,1.908,12.297-1.166,1.06-3.815,2.862-7.313,2.862-4.24,0-7.314-2.544-7.421-6.679v-54.167c0-2.969-.212-8.692-1.802-12.933,3.71-1.802,9.435-2.968,18.656-2.968,20.141,0,30.847,5.512,30.847,19.504,0,10.389-6.571,17.703-16.748,20.353,5.3,1.484,7.95,4.982,10.282,9.328l4.664,10.812c2.015,4.771,3.71,6.784,5.725,6.891.741,0,1.802-.212,2.649-1.061.637,1.378.849,2.544.849,3.604Zm-36.89-31.482c9.965-.213,15.477-7.633,15.477-17.597,0-9.435-4.452-15.795-15.9-15.795-2.014,0-3.71.106-4.982.212v33.073c1.696.106,3.393.212,5.406.106Z"/></g></g><g id="Group_22"><g id="Group_9"><ellipse id="Ellipse_6" class="cls-9" cx="295" cy="37" rx="25" ry="24"/><ellipse id="Ellipse_7" class="cls-9" cx="335" cy="24" rx="25" ry="24"/><ellipse id="Ellipse_8" class="cls-9" cx="369" cy="43" rx="25" ry="24"/><rect id="Rectangle_17" class="cls-9" x="287.155" y="42.595" width="83.996" height="73.996" transform="translate(226.724 402.37) rotate(-85.988)"/></g><g id="Group_15"><g id="Group_14"><path id="Path_7" class="cls-2" d="m355.3,46.964c-8.4,7.7-40.5,11.7-58.5,15.1-14,2.7-17.3,5.3-3.9,7.9"/><path id="Path_14" class="cls-2" d="m289.3,112.364c-7.9-5.5-6-9.2,5.1-8.7,11.2.5,32.3,5.3,46.5,9.7,23.6,8.2,39.8,6.4,22.8-2.4"/><path id="Path_15" class="cls-5" d="m290.3,94.964c-6.3-3.7-5.5-6.6,6.6-8.2,20-2.7,60.4-2.5,64-2.9,5.5-.7,20.9-4.8,5.9-9.3"/></g><g id="Group_10"><path id="Path_11" class="cls-8" d="m386.411,17.812c1.3,1.4-4,7.8-11,15.2-2.6,2.7-12.7,12-12.7,12l-2.2-1.8c3.7-4.8,7.7-9.4,11.9-13.8,6.9-7.4,12.6-13,14-11.6Z"/><path id="Path_12" class="cls-8" d="m377.611,24.012l2.7,2.5v14.4l-1.8,3.7-4.8-11.8-2.3-1.8-12.1-2.6,2.7-2.6,15.6-1.8Z"/><path id="Path_13" class="cls-8" d="m362.711,42.012l1.7,7.3-.6.6-3.2-5.4-5.2-2.8.7-.7,6.6,1Z"/><g class="cls-7"><g id="Mask_Group_2"><g id="Path_17"><path class="cls-1" d="m387.376,16.731c1.344,1.344-4.031,7.849-11.031,15.132-2.616,2.758-12.728,12.021-12.728,12.021l-2.263-1.838c3.677-4.808,7.707-9.405,11.879-13.718,7.142-7.283,12.799-12.94,14.142-11.597Z"/><path class="cls-9" d="m387.376,16.731c-1.344-1.344-7.071,4.243-14.142,11.597-7.071,7.354-11.879,13.718-11.879,13.718l2.263,1.838s10.112-9.263,12.728-12.021c7.071-7.212,12.374-13.647,11.031-15.132h0m.707-.707s.071.071,0,0c.99.99.283,2.546.071,3.041-.424.99-1.202,2.192-2.333,3.606-1.909,2.616-4.879,6.01-8.768,10.041-2.616,2.758-12.374,11.667-12.728,12.021l-.636.636-3.606-3.041.566-.707c.071-.071,4.95-6.505,11.95-13.789,2.899-3.041,6.01-6.152,8.415-8.415,2.828-2.687,4.525-3.818,5.798-3.818.636-.071,1.061.212,1.273.424Z"/></g></g></g></g><g class="cls-10"><g id="Mask_Group_3"><g id="Group_38"><path id="Path_7-2" class="cls-4" d="m355.3,46.964c-8.4,7.7-40.5,11.7-58.5,15.1-14,2.7-17.3,5.3-3.9,7.9"/><path id="Path_14-2" class="cls-3" d="m289.3,112.364c-7.9-5.5-6-9.2,5.1-8.7,11.2.5,32.3,5.3,46.5,9.7,23.6,8.2,39.8,6.4,22.8-2.4"/><path id="Path_15-2" class="cls-6" d="m290.3,94.964c-6.3-3.7-5.5-6.6,6.6-8.2,20-2.7,60.4-2.5,64-2.9,5.5-.7,20.9-4.8,5.9-9.3"/></g></g></g></g></g><g class="cls-11"><g id="Mask_Group_4"><g id="Group_39"><path id="Path_7-3" class="cls-3" d="m355.3,46.964c-8.4,7.7-40.5,11.7-58.5,15.1-14,2.7-17.3,5.3-3.9,7.9"/><path id="Path_14-3" class="cls-3" d="m289.3,112.364c-7.9-5.5-6-9.2,5.1-8.7,11.2.5,32.3,5.3,46.5,9.7,23.6,8.2,39.8,6.4,22.8-2.4"/><path id="Path_15-3" class="cls-6" d="m290.3,94.964c-6.3-3.7-5.5-6.6,6.6-8.2,20-2.7,60.4-2.5,64-2.9,5.5-.7,20.9-4.8,5.9-9.3"/></g></g></g></svg>